<svg xmlns:svg="http://www.w3.org/2000/svg" xmlns="http://www.w3.org/2000/svg" version="1.1" width="2049" height="2049"><path d="m0.5 159.5v1729q0 66 47 113 47 47 113 47h1728q66 0 113-47 47-47 47-113v-1729q0-66-47-112.5-47-46.5-113-46.5h-1728q-66 0-113 46.5-47 46.5-47 112.5zm61 33q0-54 39-92.5 39-38.5 93-38.5h1662q54 0 93 38.5 39 38.5 39 92.5v1663q0 54-39 92.5-39 38.5-93 38.5h-1662q-54 0-93-38.5-39-38.5-39-92.5v-1663zm773 832q0 78 56 134 56 56 134 56 78 0 134-56 56-56 56-134 0-78-56-134.5-56-56.5-134-56.5-78 0-134 56.5-56 56.5-56 134.5z" style="fill:#91180e;stroke:#91180e"/></svg>