<svg xmlns:svg="http://www.w3.org/2000/svg" xmlns="http://www.w3.org/2000/svg" version="1.1" width="2049" height="2049"><path d="m0.5 159.5v1729q0 66 47 113 47 47 113 47h1728q66 0 113-47 47-47 47-113v-1729q0-66-47-112.5-47-46.5-113-46.5h-1728q-66 0-113 46.5-47 46.5-47 112.5zm184 271q0-101 72.5-173.5 72.5-72.5 173.5-72.5 101 0 173.5 72.5 72.5 72.5 72.5 173.5 0 101-72.5 173.5-72.5 72.5-173.5 72.5-101 0-173.5-72.5-72.5-72.5-72.5-173.5zm0 594q0-101 72.5-173.5 72.5-72.5 173.5-72.5 101 0 173.5 72.5 72.5 72.5 72.5 173.5 0 101-72.5 173-72.5 72-173.5 72-101 0-173.5-72-72.5-72-72.5-173zm0 594q0-101 72.5-173.5 72.5-72.5 173.5-72.5 101 0 173.5 72.5 72.5 72.5 72.5 173.5 0 101-72.5 173-72.5 72-173.5 72-101 0-173.5-72-72.5-72-72.5-173zm1188-1188q0-101 72.5-173.5 72.5-72.5 173.5-72.5 101 0 173.5 72.5 72.5 72.5 72.5 173.5 0 101-72.5 173.5-72.5 72.5-173.5 72.5-101 0-173.5-72.5-72.5-72.5-72.5-173.5zm0 594q0-101 72.5-173.5 72.5-72.5 173.5-72.5 101 0 173.5 72.5 72.5 72.5 72.5 173.5 0 101-72.5 173-72.5 72-173.5 72-101 0-173.5-72-72.5-72-72.5-173zm0 594q0-101 72.5-173.5 72.5-72.5 173.5-72.5 101 0 173.5 72.5 72.5 72.5 72.5 173.5 0 101-72.5 173-72.5 72-173.5 72-101 0-173.5-72-72.5-72-72.5-173z" style="fill:#91180e;stroke:#91180e"/></svg>