<svg xmlns:svg="http://www.w3.org/2000/svg" xmlns="http://www.w3.org/2000/svg" version="1.1" width="2052" height="2048"><style>.s0{fill:#91180e;}</style><path d="m220 2048c-29.3 0-58-6-86-18-28-12-50-27.3-66-46C46.7 1965.3 30.7 1942.7 20 1916 9.3 1889.3 2.7 1860 0 1828L4 220C1.3 188 6.7 158.7 20 132 33.3 105.3 48 82.7 64 64 85.3 45.3 108.7 30 134 18 159.3 6 189.3 0 224 0l1604 0c34.7 0 64.7 6 90 18 25.3 12 48.7 27.3 70 46 16 18.7 30.7 41.3 44 68 13.3 26.7 18.7 56 16 88l4 1608c-2.7 32-9.3 61.3-20 88-10.7 26.7-26.7 49.3-48 68-16 18.7-38 34-66 46-28 12-56.7 18-86 18l-1612 0zm32-196 1548 0c16 0 28.7-5.3 38-16 9.3-10.7 15.3-22.7 18-36l-4-1552c2.7-13.3-2-25.3-14-36-12-10.7-23.3-16-34-16l-1556 0c-10.7 0-22 5.3-34 16-12 10.7-16.7 22.7-14 36l-4 1552c2.7 13.3 8.7 25.3 18 36 9.3 10.7 22 16 38 16z" fill="#91180e"/><g transform="translate(780,776.47244)"><path d="M245.8 0C110 0 0 110.1 0 245.8c0 135.7 110 245.8 245.8 245.8 135.7 0 245.7-110 245.7-245.8 0-135.7-110-245.7-245.7-245.7zm0 138c59.5 0 107.8 48.3 107.8 107.8 0 59.5-48.3 107.8-107.8 107.8-59.5 0-107.8-48.2-107.8-107.8 0-59.5 48.2-107.8 107.8-107.8z" fill="#91180e"/></g></svg>