<svg xmlns:svg="http://www.w3.org/2000/svg" xmlns="http://www.w3.org/2000/svg" width="340.1" height="340.1" version="1.1"><style>.s0{fill:#000;stroke-width:0;stroke:#000;}</style><path d="M60.1 7.9V92.2q0 3.2 2.3 5.5 2.3 2.3 5.5 2.3h84.3q3.2 0 5.5-2.3 2.3-2.3 2.3-5.5V7.9q0-3.2-2.3-5.5-2.3-2.3-5.5-2.3H67.9q-3.2 0-5.5 2.3-2.3 2.3-2.3 5.5zm3 1.6q0-2.6 1.9-4.5 1.9-1.9 4.5-1.9h81.1q2.6 0 4.5 1.9 1.9 1.9 1.9 4.5V90.6q0 2.6-1.9 4.5-1.9 1.9-4.5 1.9h-81.1q-2.6 0-4.5-1.9-1.9-1.9-1.9-4.5V9.5zm37.7 40.6q0 3.8 2.7 6.5 2.7 2.7 6.5 2.7 3.8 0 6.5-2.7 2.7-2.7 2.7-6.5 0-3.8-2.7-6.6-2.7-2.8-6.5-2.8-3.8 0-6.5 2.8-2.7 2.8-2.7 6.6zM180.1 7.9V92.2q0 3.2 2.3 5.5 2.3 2.3 5.5 2.3h84.3q3.2 0 5.5-2.3 2.3-2.3 2.3-5.5V7.9q0-3.2-2.3-5.5-2.3-2.3-5.5-2.3h-84.3q-3.2 0-5.5 2.3-2.3 2.3-2.3 5.5zm3 1.6q0-2.6 1.9-4.5 1.9-1.9 4.5-1.9h81.1q2.6 0 4.5 1.9 1.9 1.9 1.9 4.5V90.6q0 2.6-1.9 4.5-1.9 1.9-4.5 1.9h-81.1q-2.6 0-4.5-1.9-1.9-1.9-1.9-4.5V9.5zm15.6 18.5q0 3.8 2.7 6.6 2.7 2.8 6.5 2.8 3.8 0 6.6-2.8 2.8-2.8 2.8-6.6 0-3.8-2.8-6.5-2.8-2.7-6.6-2.7-3.8 0-6.5 2.7-2.7 2.7-2.7 6.5zm44.2 44.2q0 3.8 2.8 6.6 2.8 2.8 6.6 2.8 3.8 0 6.5-2.8 2.7-2.8 2.7-6.6 0-3.8-2.7-6.5-2.7-2.7-6.5-2.7-3.8 0-6.6 2.7-2.8 2.7-2.8 6.5zM0.1 127.9v84.4q0 3.2 2.3 5.5 2.3 2.3 5.5 2.3h84.3q3.2 0 5.5-2.3 2.3-2.3 2.3-5.5v-84.4q0-3.2-2.3-5.5-2.3-2.3-5.5-2.3H7.9q-3.2 0-5.5 2.3-2.3 2.3-2.3 5.5zm3 1.6q0-2.6 1.9-4.5 1.9-1.9 4.5-1.9h81.1q2.6 0 4.5 1.9 1.9 1.9 1.9 4.5v81.1q0 2.6-1.9 4.5-1.9 1.9-4.5 1.9H9.5q-2.6 0-4.5-1.9-1.9-1.9-1.9-4.5v-81.1zm15.6 18.5q0 3.8 2.7 6.6 2.7 2.8 6.5 2.8 3.8 0 6.6-2.8 2.8-2.8 2.8-6.6 0-3.8-2.8-6.5-2.8-2.7-6.6-2.7-3.8 0-6.5 2.7-2.7 2.7-2.7 6.5zm22.1 22.1q0 3.8 2.7 6.5 2.7 2.7 6.5 2.7 3.8 0 6.5-2.7 2.7-2.7 2.7-6.5 0-3.8-2.7-6.6-2.7-2.8-6.5-2.8-3.8 0-6.5 2.8-2.7 2.8-2.7 6.6zm22.1 22.1q0 3.8 2.8 6.6 2.8 2.8 6.6 2.8 3.8 0 6.5-2.8 2.7-2.8 2.7-6.6 0-3.8-2.7-6.5-2.7-2.7-6.5-2.7-3.8 0-6.6 2.7-2.8 2.7-2.8 6.5z" class="s0"/><path d="m240.1 127.9v84.4q0 3.2 2.3 5.5 2.3 2.3 5.5 2.3h84.3q3.2 0 5.5-2.3 2.3-2.3 2.3-5.5v-84.4q0-3.2-2.3-5.5-2.3-2.3-5.5-2.3h-84.3q-3.2 0-5.5 2.3-2.3 2.3-2.3 5.5zm3 1.6q0-2.6 1.9-4.5 1.9-1.9 4.5-1.9h81.1q2.6 0 4.5 1.9 1.9 1.9 1.9 4.5v81.1q0 2.6-1.9 4.5-1.9 1.9-4.5 1.9h-81.1q-2.6 0-4.5-1.9-1.9-1.9-1.9-4.5v-81.1zm15.6 18.5q0 3.8 2.7 6.6 2.7 2.8 6.5 2.8 3.8 0 6.6-2.8 2.8-2.8 2.8-6.6 0-3.8-2.8-6.5-2.8-2.7-6.6-2.7-3.8 0-6.5 2.7-2.7 2.7-2.7 6.5zm0 44.2q0 3.8 2.7 6.6 2.7 2.8 6.5 2.8 3.8 0 6.6-2.8 2.8-2.8 2.8-6.6 0-3.8-2.8-6.5-2.8-2.7-6.6-2.7-3.8 0-6.5 2.7-2.7 2.7-2.7 6.5zm44.2-44.2q0 3.8 2.8 6.6 2.8 2.8 6.6 2.8 3.8 0 6.5-2.8 2.7-2.8 2.7-6.6 0-3.8-2.7-6.5-2.7-2.7-6.5-2.7-3.8 0-6.6 2.7-2.8 2.7-2.8 6.5zm0 44.2q0 3.8 2.8 6.6 2.8 2.8 6.6 2.8 3.8 0 6.5-2.8 2.7-2.8 2.7-6.6 0-3.8-2.7-6.5-2.7-2.7-6.5-2.7-3.8 0-6.6 2.7-2.8 2.7-2.8 6.5z" class="s0"/><path d="m60.1 247.9v84.4q0 3.2 2.3 5.5 2.3 2.3 5.5 2.3h84.3q3.2 0 5.5-2.3 2.3-2.3 2.3-5.5v-84.4q0-3.2-2.3-5.5-2.3-2.3-5.5-2.3H67.9q-3.2 0-5.5 2.3-2.3 2.3-2.3 5.5zm3 1.6q0-2.6 1.9-4.5 1.9-1.9 4.5-1.9h81.1q2.6 0 4.5 1.9 1.9 1.9 1.9 4.5v81.1q0 2.6-1.9 4.5-1.9 1.9-4.5 1.9h-81.1q-2.6 0-4.5-1.9-1.9-1.9-1.9-4.5v-81.1zm15.6 18.5q0 3.8 2.7 6.6 2.7 2.8 6.5 2.8 3.8 0 6.6-2.8 2.8-2.8 2.8-6.6 0-3.8-2.8-6.5-2.8-2.7-6.6-2.7-3.8 0-6.5 2.7-2.7 2.7-2.7 6.5zm0 44.2q0 3.8 2.7 6.6 2.7 2.8 6.5 2.8 3.8 0 6.6-2.8 2.8-2.8 2.8-6.6 0-3.8-2.8-6.5-2.8-2.7-6.6-2.7-3.8 0-6.5 2.7-2.7 2.7-2.7 6.5zm22.1-22.1q0 3.8 2.7 6.5 2.7 2.7 6.5 2.7 3.8 0 6.5-2.7 2.7-2.7 2.7-6.5 0-3.8-2.7-6.6-2.7-2.8-6.5-2.8-3.8 0-6.5 2.8-2.7 2.8-2.7 6.6zm22.1-22.1q0 3.8 2.8 6.6 2.8 2.8 6.6 2.8 3.8 0 6.5-2.8 2.7-2.8 2.7-6.6 0-3.8-2.7-6.5-2.7-2.7-6.5-2.7-3.8 0-6.6 2.7-2.8 2.7-2.8 6.5zm0 44.2q0 3.8 2.8 6.6 2.8 2.8 6.6 2.8 3.8 0 6.5-2.8 2.7-2.8 2.7-6.6 0-3.8-2.7-6.5-2.7-2.7-6.5-2.7-3.8 0-6.6 2.7-2.8 2.7-2.8 6.5z" class="s0"/><path d="m180.1 247.8v84.4q0 3.2 2.3 5.5 2.3 2.3 5.5 2.3h84.3q3.2 0 5.5-2.3 2.3-2.3 2.3-5.5v-84.4q0-3.2-2.3-5.5-2.3-2.3-5.5-2.3h-84.3q-3.2 0-5.5 2.3-2.3 2.3-2.3 5.5zm3 1.6q0-2.6 1.9-4.5 1.9-1.9 4.5-1.9h81.1q2.6 0 4.5 1.9 1.9 1.9 1.9 4.5v81.2q0 2.6-1.9 4.5-1.9 1.9-4.5 1.9h-81.1q-2.6 0-4.5-1.9-1.9-1.9-1.9-4.5v-81.2zm15.6 18.5q0 3.8 2.7 6.6 2.7 2.8 6.5 2.8 3.8 0 6.6-2.8 2.8-2.8 2.8-6.6 0-3.8-2.8-6.5-2.8-2.7-6.6-2.7-3.8 0-6.5 2.7-2.7 2.7-2.7 6.5zm0 22.1q0 3.8 2.7 6.5 2.7 2.7 6.5 2.7 3.8 0 6.6-2.7 2.8-2.7 2.8-6.5 0-3.8-2.8-6.6-2.8-2.8-6.6-2.8-3.8 0-6.5 2.8-2.7 2.8-2.7 6.6zm0 22.1q0 3.8 2.7 6.6 2.7 2.8 6.5 2.8 3.8 0 6.6-2.8 2.8-2.8 2.8-6.6 0-3.8-2.8-6.5-2.8-2.7-6.6-2.7-3.8 0-6.5 2.7-2.7 2.7-2.7 6.5zm44.2-44.2q0 3.8 2.8 6.6 2.8 2.8 6.6 2.8 3.8 0 6.5-2.8 2.7-2.8 2.7-6.6 0-3.8-2.7-6.5-2.7-2.7-6.5-2.7-3.8 0-6.6 2.7-2.8 2.7-2.8 6.5zm0 22.1q0 3.8 2.8 6.5 2.8 2.7 6.6 2.7 3.8 0 6.5-2.7 2.7-2.7 2.7-6.5 0-3.8-2.7-6.6-2.7-2.8-6.5-2.8-3.8 0-6.6 2.8-2.8 2.8-2.8 6.6zm0 22.1q0 3.8 2.8 6.6 2.8 2.8 6.6 2.8 3.8 0 6.5-2.8 2.7-2.8 2.7-6.6 0-3.8-2.7-6.5-2.7-2.7-6.5-2.7-3.8 0-6.6 2.7-2.8 2.7-2.8 6.5z" class="s0"/></svg>