<svg xmlns:svg="http://www.w3.org/2000/svg" xmlns="http://www.w3.org/2000/svg" width="340.1" height="340.1" version="1.1"><style>.s0{fill:#000;stroke-width:0;stroke:#000;}</style><g transform="translate(0,-712.29916)"><path d="m240.1 840.1v84.4q0 3.2 2.3 5.5 2.3 2.3 5.5 2.3h84.3q3.2 0 5.5-2.3 2.3-2.3 2.3-5.5v-84.4q0-3.2-2.3-5.5-2.3-2.3-5.5-2.3h-84.3q-3.2 0-5.5 2.3-2.3 2.3-2.3 5.5zm9 13.2q0-4.9 3.5-8.5 3.5-3.5 8.5-3.5 4.9 0 8.5 3.5 3.5 3.5 3.5 8.5 0 4.9-3.5 8.5-3.5 3.5-8.5 3.5-4.9 0-8.5-3.5-3.5-3.5-3.5-8.5zm0 58q0-4.9 3.5-8.5 3.5-3.5 8.5-3.5 4.9 0 8.5 3.5 3.5 3.5 3.5 8.5 0 4.9-3.5 8.4-3.5 3.5-8.5 3.5-4.9 0-8.5-3.5-3.5-3.5-3.5-8.4zm58-58q0-4.9 3.5-8.5 3.5-3.5 8.5-3.5 4.9 0 8.5 3.5 3.5 3.5 3.5 8.5 0 4.9-3.5 8.5-3.5 3.5-8.5 3.5-4.9 0-8.5-3.5-3.5-3.5-3.5-8.5zm0 58q0-4.9 3.5-8.5 3.5-3.5 8.5-3.5 4.9 0 8.5 3.5 3.5 3.5 3.5 8.5 0 4.9-3.5 8.4-3.5 3.5-8.5 3.5-4.9 0-8.5-3.5-3.5-3.5-3.5-8.4z" class="s0"/><g transform="translate(-202.01574,0)"><g transform="translate(262.01574,0)"><path d="m0.1 960.1v84.4q0 3.2 2.3 5.5 2.3 2.3 5.5 2.3H92.2q3.2 0 5.5-2.3 2.3-2.3 2.3-5.5v-84.4q0-3.2-2.3-5.5-2.3-2.3-5.5-2.3H7.9q-3.2 0-5.5 2.3-2.3 2.3-2.3 5.5zm9 13.2q0-4.9 3.5-8.5 3.5-3.5 8.5-3.5 4.9 0 8.5 3.5 3.5 3.5 3.5 8.5 0 4.9-3.5 8.5-3.5 3.5-8.5 3.5-4.9 0-8.5-3.5-3.5-3.5-3.5-8.5zm0 58q0-4.9 3.5-8.5 3.5-3.5 8.5-3.5 4.9 0 8.5 3.5 3.5 3.5 3.5 8.5 0 4.9-3.5 8.4-3.5 3.5-8.5 3.5-4.9 0-8.5-3.5-3.5-3.5-3.5-8.4zM38 1002.3q0-4.9 3.5-8.5 3.5-3.5 8.5-3.5 4.9 0 8.5 3.5 3.5 3.5 3.5 8.5 0 4.9-3.5 8.4-3.5 3.5-8.5 3.5-4.9 0-8.5-3.5-3.5-3.5-3.5-8.4zm29-29q0-4.9 3.5-8.5 3.5-3.5 8.5-3.5 4.9 0 8.5 3.5 3.5 3.5 3.5 8.5 0 4.9-3.5 8.5-3.5 3.5-8.5 3.5-4.9 0-8.5-3.5-3.5-3.5-3.5-8.5zm0 58q0-4.9 3.5-8.5 3.5-3.5 8.5-3.5 4.9 0 8.5 3.5 3.5 3.5 3.5 8.5 0 4.9-3.5 8.4-3.5 3.5-8.5 3.5-4.9 0-8.5-3.5-3.5-3.5-3.5-8.4zM120.1 960.1v84.4q0 3.2 2.3 5.5 2.3 2.3 5.5 2.3h84.3q3.2 0 5.5-2.3 2.3-2.3 2.3-5.5v-84.4q0-3.2-2.3-5.5-2.3-2.3-5.5-2.3h-84.3q-3.2 0-5.5 2.3-2.3 2.3-2.3 5.5zm9 13.2q0-4.9 3.5-8.5 3.5-3.5 8.5-3.5 4.9 0 8.5 3.5 3.5 3.5 3.5 8.5 0 4.9-3.5 8.5-3.5 3.5-8.5 3.5-4.9 0-8.5-3.5-3.5-3.5-3.5-8.5zm0 29q0-4.9 3.5-8.5 3.5-3.5 8.5-3.5 4.9 0 8.5 3.5 3.5 3.5 3.5 8.5 0 4.9-3.5 8.4-3.5 3.5-8.5 3.5-4.9 0-8.5-3.5-3.5-3.5-3.5-8.4zm0 29q0-4.9 3.5-8.5 3.5-3.5 8.5-3.5 4.9 0 8.5 3.5 3.5 3.5 3.5 8.5 0 4.9-3.5 8.4-3.5 3.5-8.5 3.5-4.9 0-8.5-3.5-3.5-3.5-3.5-8.4zm58-58q0-4.9 3.5-8.5 3.5-3.5 8.5-3.5 4.9 0 8.5 3.5 3.5 3.5 3.5 8.5 0 4.9-3.5 8.5-3.5 3.5-8.5 3.5-4.9 0-8.5-3.5-3.5-3.5-3.5-8.5zm0 29q0-4.9 3.5-8.5 3.5-3.5 8.5-3.5 4.9 0 8.5 3.5 3.5 3.5 3.5 8.5 0 4.9-3.5 8.4-3.5 3.5-8.5 3.5-4.9 0-8.5-3.5-3.5-3.5-3.5-8.4zm0 29q0-4.9 3.5-8.5 3.5-3.5 8.5-3.5 4.9 0 8.5 3.5 3.5 3.5 3.5 8.5 0 4.9-3.5 8.4-3.5 3.5-8.5 3.5-4.9 0-8.5-3.5-3.5-3.5-3.5-8.4z" class="s0"/></g><g transform="translate(262.01574,-240.00002)"><path d="m0.1 960.1v84.4q0 3.2 2.3 5.5 2.3 2.3 5.5 2.3H92.2q3.2 0 5.5-2.3 2.3-2.3 2.3-5.5v-84.4q0-3.2-2.3-5.5-2.3-2.3-5.5-2.3H7.9q-3.2 0-5.5 2.3-2.3 2.3-2.3 5.5zM38 1002.3q0-4.9 3.5-8.5 3.5-3.5 8.5-3.5 4.9 0 8.5 3.5 3.5 3.5 3.5 8.5 0 4.9-3.5 8.4-3.5 3.5-8.5 3.5-4.9 0-8.5-3.5-3.5-3.5-3.5-8.4zM120.1 960.1v84.4q0 3.2 2.3 5.5 2.3 2.3 5.5 2.3h84.3q3.2 0 5.5-2.3 2.3-2.3 2.3-5.5v-84.4q0-3.2-2.3-5.5-2.3-2.3-5.5-2.3h-84.3q-3.2 0-5.5 2.3-2.3 2.3-2.3 5.5zm9 13.2q0-4.9 3.5-8.5 3.5-3.5 8.5-3.5 4.9 0 8.5 3.5 3.5 3.5 3.5 8.5 0 4.9-3.5 8.5-3.5 3.5-8.5 3.5-4.9 0-8.5-3.5-3.5-3.5-3.5-8.5zm58 58q0-4.9 3.5-8.5 3.5-3.5 8.5-3.5 4.9 0 8.5 3.5 3.5 3.5 3.5 8.5 0 4.9-3.5 8.4-3.5 3.5-8.5 3.5-4.9 0-8.5-3.5-3.5-3.5-3.5-8.4z" class="s0"/></g></g><path d="m0.1 840.1v84.4q0 3.2 2.3 5.5 2.3 2.3 5.5 2.3h84.3q3.2 0 5.5-2.3 2.3-2.3 2.3-5.5v-84.4q0-3.2-2.3-5.5-2.3-2.3-5.5-2.3H7.9q-3.2 0-5.5 2.3-2.3 2.3-2.3 5.5zm9 13.2q0-4.9 3.5-8.5 3.5-3.5 8.5-3.5 4.9 0 8.5 3.5 3.5 3.5 3.5 8.5 0 4.9-3.5 8.5-3.5 3.5-8.5 3.5-4.9 0-8.5-3.5-3.5-3.5-3.5-8.5zm29 29q0-4.9 3.5-8.5 3.5-3.5 8.5-3.5 4.9 0 8.5 3.5 3.5 3.5 3.5 8.5 0 4.9-3.5 8.4-3.5 3.5-8.5 3.5-4.9 0-8.5-3.5-3.5-3.5-3.5-8.4zm29 29q0-4.9 3.5-8.5 3.5-3.5 8.5-3.5 4.9 0 8.5 3.5 3.5 3.5 3.5 8.5 0 4.9-3.5 8.4-3.5 3.5-8.5 3.5-4.9 0-8.5-3.5-3.5-3.5-3.5-8.4z" class="s0"/></g></svg>