<svg xmlns:svg="http://www.w3.org/2000/svg" xmlns="http://www.w3.org/2000/svg" width="13.2" height="13.2" version="1.1"><g transform="translate(-293.37999,-454.33205)"><g transform="matrix(1.25,0,0,-1.25,109.51812,831.58999)"><g transform="translate(147.5895,296.5251)"><path d="m0 0c0-2.6 2.1-4.8 4.8-4.8 2.6 0 4.8 2.1 4.8 4.8 0 2.6-2.1 4.8-4.8 4.8C2.1 4.8 0 2.6 0 0" fill="#fff"/></g><g transform="translate(147.5895,296.5251)"><path d="m0 0c0-2.6 2.1-4.8 4.8-4.8 2.6 0 4.8 2.1 4.8 4.8 0 2.6-2.1 4.8-4.8 4.8C2.1 4.8 0 2.6 0 0z" style="fill:none;stroke:#000"/></g></g><g transform="translate(-20.170645,-92.514394)"><path d="m321.2 557.1c-0.1-0.3-0.2-0.5-0.2-0.6-0.1-0.4-0.3-0.8-0.4-1-0.1-0.3-0.2-0.5-0.4-0.8-0.2-0.4-0.4-0.6-0.6-0.6-0.2 0-0.5 0.2-0.9 0.7-0.3 0.3-0.5 0.6-0.8 0.9-0.3 0.4-0.6 0.7-0.8 0.9-0.2 0.2-0.4 0.3-0.5 0.3-0.2 0-0.3-0.2-0.3-0.5 0-0.1 0-0.1 0-0.2 0-0.2 0-0.3 0.1-0.4 0.1-0.1 0.2-0.1 0.2-0.1 0.1 0 0.1 0 0.2 0 0 0 0.1 0 0.1 0 0.1 0 0.1-0.1 0.2-0.2 0.1-0.1 0.2-0.2 0.3-0.3 0 0 0.3-0.2 0.8-0.7 0.6-0.5 0.9-1 0.9-1.3 0-0.2 0-0.3-0.1-0.5-0.4-0.8-0.9-1.4-1.5-2-0.2-0.2-0.3-0.4-0.3-0.7 0-0.2 0-0.3 0.1-0.4 0.1-0.1 0.2-0.2 0.4-0.2 0.2 0 0.4 0.1 0.5 0.3 0.2 0.2 0.4 0.5 0.6 0.9 0.2 0.4 0.4 0.7 0.6 1.1 0.2 0.3 0.3 0.5 0.4 0.6 0.1 0.1 0.2 0.2 0.4 0.2 0.2 0 0.4-0.1 0.7-0.4 0.3-0.2 0.6-0.5 1-0.9 0.2-0.3 0.4-0.5 0.5-0.6 0.1-0.1 0.3-0.3 0.5-0.6 0.1-0.2 0.3-0.4 0.4-0.6 0.1-0.1 0.2-0.2 0.4-0.2 0.2 0 0.4 0.2 0.4 0.6 0 0.3-0.3 0.7-0.8 1.1-0.4 0.3-0.8 0.6-1.2 0.9-0.2 0.2-0.4 0.4-0.7 0.5-0.2 0.2-0.4 0.4-0.6 0.6-0.1 0.1-0.2 0.3-0.2 0.4 0 0.1 0 0.2 0.1 0.3 0.1 0.1 0.1 0.3 0.2 0.4 0.1 0.1 0.3 0.5 0.8 1.2 0.4 0.5 0.5 0.9 0.5 1.2 0 0.2-0.1 0.4-0.2 0.5-0.1 0.2-0.4 0.3-0.7 0.4z" fill="#8e1716"/></g></g></svg>