<?xml version="1.0" encoding="UTF-8" standalone="no"?>
<!-- Created with Inkscape (http://www.inkscape.org/) -->

<svg
   xmlns:dc="http://purl.org/dc/elements/1.1/"
   xmlns:cc="http://creativecommons.org/ns#"
   xmlns:rdf="http://www.w3.org/1999/02/22-rdf-syntax-ns#"
   xmlns:svg="http://www.w3.org/2000/svg"
   xmlns="http://www.w3.org/2000/svg"
   xmlns:sodipodi="http://sodipodi.sourceforge.net/DTD/sodipodi-0.dtd"
   xmlns:inkscape="http://www.inkscape.org/namespaces/inkscape"
   width="13.242188"
   height="13.203125"
   id="svg4727"
   version="1.1"
   inkscape:version="0.48.2 r9819"
   sodipodi:docname="charge-drain-empty.svg">
  <defs
     id="defs4729">
    <clipPath
       id="clipPath3831"
       clipPathUnits="userSpaceOnUse">
      <path
         inkscape:connector-curvature="0"
         id="path3833"
         d="m 47.861,288.729 323.536,0 0,109.84 -323.536,0 0,-109.84 z" />
    </clipPath>
  </defs>
  <sodipodi:namedview
     id="base"
     pagecolor="#ffffff"
     bordercolor="#666666"
     borderopacity="1.0"
     inkscape:pageopacity="0.0"
     inkscape:pageshadow="2"
     inkscape:zoom="18.990977"
     inkscape:cx="17.500055"
     inkscape:cy="17.192375"
     inkscape:document-units="px"
     inkscape:current-layer="g3827"
     showgrid="false"
     fit-margin-top="0"
     fit-margin-left="0"
     fit-margin-right="0"
     fit-margin-bottom="0"
     inkscape:window-width="918"
     inkscape:window-height="842"
     inkscape:window-x="2307"
     inkscape:window-y="98"
     inkscape:window-maximized="0" />
  <metadata
     id="metadata4732">
    <rdf:RDF>
      <cc:Work
         rdf:about="">
        <dc:format>image/svg+xml</dc:format>
        <dc:type
           rdf:resource="http://purl.org/dc/dcmitype/StillImage" />
        <dc:title></dc:title>
      </cc:Work>
    </rdf:RDF>
  </metadata>
  <g
     inkscape:label="Layer 1"
     inkscape:groupmode="layer"
     id="layer1"
     transform="translate(-293.37999,-454.33205)">
    <g
       id="g3827"
       transform="matrix(1.25,0,0,-1.25,109.51812,831.58999)">
      <g
         id="g3829"
         clip-path="url(#clipPath3831)">
        <g
           id="g3835"
           transform="translate(147.5895,296.5251)">
          <path
             inkscape:connector-curvature="0"
             d="m 0,0 c 0,-2.649 2.147,-4.796 4.796,-4.796 2.649,0 4.796,2.147 4.796,4.796 0,2.649 -2.147,4.796 -4.796,4.796 C 2.147,4.796 0,2.649 0,0"
             style="fill:#ffffff;fill-opacity:1;fill-rule:nonzero;stroke:none"
             id="path3837" />
        </g>
        <g
           id="g3839"
           transform="translate(147.5895,296.5251)">
          <path
             inkscape:connector-curvature="0"
             d="m 0,0 c 0,-2.649 2.147,-4.796 4.796,-4.796 2.649,0 4.796,2.147 4.796,4.796 0,2.649 -2.147,4.796 -4.796,4.796 C 2.147,4.796 0,2.649 0,0 z"
             style="fill:none;stroke:#231f20;stroke-width:1;stroke-linecap:butt;stroke-linejoin:miter;stroke-miterlimit:4;stroke-opacity:1;stroke-dasharray:none"
             id="path3841" />
        </g>
      </g>
    </g>
    <g
       style="font-size:15px;font-family:Dakota;-inkscape-font-specification:Dakota"
       id="text3867"
       transform="translate(-20.170645,-92.514394)">
      <path
         d="m 321.22822,557.14901 c -0.0975,-0.2774 -0.16881,-0.47985 -0.21389,-0.60734 -0.14993,-0.42 -0.2868,-0.75748 -0.41062,-1.01246 -0.12383,-0.25497 -0.24948,-0.5175 -0.37696,-0.78758 -0.20989,-0.3749 -0.41234,-0.56236 -0.60734,-0.56236 -0.19501,0 -0.50252,0.23243 -0.92251,0.69729 -0.27008,0.30762 -0.54005,0.61134 -0.8099,0.91117 -0.30007,0.36759 -0.5607,0.66577 -0.78192,0.89453 -0.22121,0.22877 -0.39556,0.34315 -0.52305,0.34315 -0.1577,0 -0.25898,-0.16502 -0.30384,-0.49507 -0.008,-0.0524 -0.0113,-0.13115 -0.0113,-0.2362 0,-0.16503 0.0413,-0.28879 0.12377,-0.37131 0.0825,-0.0825 0.15375,-0.12376 0.21372,-0.12377 0.0675,0.0151 0.12004,0.0227 0.15758,0.0227 0.03,10e-6 0.0787,-0.015 0.14626,-0.045 0.0675,-0.03 0.14436,-0.0956 0.23054,-0.1969 0.0862,-0.10128 0.17057,-0.19689 0.2532,-0.28684 0.0224,-0.0227 0.28862,-0.24021 0.79857,-0.65266 0.615,-0.50239 0.9225,-0.95237 0.92251,-1.34994 -1e-5,-0.15747 -0.0374,-0.31494 -0.11227,-0.47242 -0.36003,-0.75759 -0.85511,-1.41757 -1.48521,-1.97994 -0.20234,-0.18012 -0.3035,-0.39767 -0.3035,-0.65266 0,-0.17257 0.0487,-0.31882 0.14625,-0.43876 0.0975,-0.11993 0.22122,-0.1799 0.37114,-0.1799 0.17257,0 0.3507,0.0975 0.53438,0.29251 0.18367,0.19501 0.39556,0.49874 0.63566,0.91118 0.195,0.35248 0.39367,0.70496 0.59601,1.05743 0.16502,0.27764 0.29262,0.46521 0.3828,0.56271 0.11993,0.12749 0.24364,0.19123 0.37113,0.19123 0.1799,0 0.42366,-0.12749 0.73128,-0.38246 0.26252,-0.21011 0.58879,-0.52139 0.97882,-0.93384 0.23986,-0.27008 0.40854,-0.45387 0.50605,-0.55138 0.14259,-0.14991 0.2964,-0.33736 0.46143,-0.56236 0.13503,-0.18012 0.26996,-0.36392 0.40478,-0.55138 0.12015,-0.14235 0.24764,-0.21354 0.38246,-0.21354 0.24009,0 0.36013,0.1949 0.36014,0.58467 -10e-6,0.33761 -0.26253,0.71263 -0.78758,1.12507 -0.39735,0.28497 -0.7948,0.57004 -1.19236,0.85522 -0.21744,0.17991 -0.43499,0.35615 -0.65266,0.52872 -0.23987,0.20233 -0.43488,0.39734 -0.58502,0.58502 -0.11238,0.14237 -0.16857,0.27729 -0.16857,0.40478 0,0.0902 0.0319,0.19901 0.0956,0.3265 0.0637,0.12749 0.12559,0.2512 0.18556,0.37113 0.06,0.11994 0.32249,0.52872 0.78759,1.22635 0.35247,0.52482 0.52871,0.93349 0.52871,1.226 0,0.19501 -0.0712,0.36753 -0.21372,0.51756 -0.14248,0.15003 -0.38252,0.2738 -0.72012,0.37131 z"
         style="font-size:11.25px;font-variant:normal;font-weight:normal;font-stretch:normal;writing-mode:lr-tb;fill:#8e1716;fill-opacity:1;fill-rule:nonzero;stroke:none;font-family:Dakota;-inkscape-font-specification:Dakota"
         id="path4705"
         inkscape:connector-curvature="0" />
    </g>
  </g>
</svg>
