<svg xmlns:svg="http://www.w3.org/2000/svg" xmlns="http://www.w3.org/2000/svg" width="13.2" height="13.2" version="1.1"><defs><clipPath clipPathUnits="userSpaceOnUse"><path d="m47.9 288.7 323.5 0 0 109.8-323.5 0 0-109.8z"/></clipPath></defs><g transform="translate(-293.37999,-454.33205)"><g transform="matrix(1.25,0,0,-1.25,109.51812,831.58999)"><g clip-path="url(#clipPath3831)"><g transform="translate(147.5895,296.5251)"><path d="m0 0c0-2.6 2.1-4.8 4.8-4.8 2.6 0 4.8 2.1 4.8 4.8 0 2.6-2.1 4.8-4.8 4.8C2.1 4.8 0 2.6 0 0" fill="#fff"/></g><g transform="translate(147.5895,296.5251)"><path d="m0 0c0-2.6 2.1-4.8 4.8-4.8 2.6 0 4.8 2.1 4.8 4.8 0 2.6-2.1 4.8-4.8 4.8C2.1 4.8 0 2.6 0 0z" style="fill:none;stroke:#000"/></g></g></g></g></svg>