<?xml version="1.0" encoding="UTF-8" standalone="no"?>
<!-- Created with Inkscape (http://www.inkscape.org/) -->

<svg
   xmlns:dc="http://purl.org/dc/elements/1.1/"
   xmlns:cc="http://creativecommons.org/ns#"
   xmlns:rdf="http://www.w3.org/1999/02/22-rdf-syntax-ns#"
   xmlns:svg="http://www.w3.org/2000/svg"
   xmlns="http://www.w3.org/2000/svg"
   xmlns:sodipodi="http://sodipodi.sourceforge.net/DTD/sodipodi-0.dtd"
   xmlns:inkscape="http://www.inkscape.org/namespaces/inkscape"
   width="54.03709"
   height="63.28896"
   id="svg2"
   version="1.1"
   inkscape:version="0.48.2 r9819"
   sodipodi:docname="Ouml-windlass.svg">
  <defs
     id="defs4" />
  <sodipodi:namedview
     id="base"
     pagecolor="#ffffff"
     bordercolor="#666666"
     borderopacity="1.0"
     inkscape:pageopacity="0.0"
     inkscape:pageshadow="2"
     inkscape:zoom="3.959798"
     inkscape:cx="63.395349"
     inkscape:cy="38.459178"
     inkscape:document-units="px"
     inkscape:current-layer="layer1"
     showgrid="false"
     inkscape:window-width="1037"
     inkscape:window-height="732"
     inkscape:window-x="2512"
     inkscape:window-y="264"
     inkscape:window-maximized="0"
     fit-margin-top="0"
     fit-margin-left="0"
     fit-margin-right="0"
     fit-margin-bottom="0" />
  <metadata
     id="metadata7">
    <rdf:RDF>
      <cc:Work
         rdf:about="">
        <dc:format>image/svg+xml</dc:format>
        <dc:type
           rdf:resource="http://purl.org/dc/dcmitype/StillImage" />
        <dc:title></dc:title>
      </cc:Work>
    </rdf:RDF>
  </metadata>
  <g
     inkscape:label="Layer 1"
     inkscape:groupmode="layer"
     id="layer1"
     transform="translate(-105.85298,-277.82322)">
    <path
       style="font-size:13px;font-style:normal;font-variant:normal;font-weight:normal;font-stretch:normal;line-height:125%;letter-spacing:0px;word-spacing:0px;fill:#000000;fill-opacity:1;stroke:none;font-family:Windlass;-inkscape-font-specification:Windlass"
       d="M 35.53125 0 C 34.35551 0 33.36518 0.41604 32.53125 1.25 C 31.69722 2.08395 31.28119 3.11863 31.28125 4.34375 C 31.28114 5.56891 31.69729 6.60425 32.53125 7.4375 C 33.36518 8.27052 34.35545 8.6875 35.53125 8.6875 C 36.70708 8.6875 37.72859 8.27074 38.5625 7.4375 C 39.39669 6.60425 39.81245 5.56891 39.8125 4.34375 C 39.81239 3.51055 39.54653 2.88558 39.03125 2.46875 C 38.51592 2.05212 37.90378 1.64364 37.21875 1.25 C 36.92391 1.10343 36.65169 0.84333 36.40625 0.5 C 36.16091 0.15666 35.87405 -4.7548077e-018 35.53125 0 z M 18.5 0.0625 C 17.3228 0.0625 16.33324 0.47923 15.5 1.3125 C 14.66705 2.14565 14.25 3.18115 14.25 4.40625 C 14.25 5.63292 14.66683 6.66681 15.5 7.5 C 16.3333 8.33295 17.32286 8.75 18.5 8.75 C 19.67589 8.75 20.69799 8.33317 21.53125 7.5 C 22.36419 6.66681 22.78125 5.63292 22.78125 4.40625 C 22.78125 3.573 22.51474 2.9481 22 2.53125 C 21.48546 2.11471 20.87407 1.70439 20.1875 1.3125 C 19.89435 1.1658 19.62046 0.93699 19.375 0.59375 C 19.12972 0.25041 18.8428 0.0625 18.5 0.0625 z M 28.90625 11.4375 C 27.14646 11.43755 25.23901 11.7428 23.15625 12.34375 C 21.07349 12.94455 18.96907 13.75072 16.84375 14.78125 C 14.71839 15.81189 12.6525 17.06128 10.65625 18.5 C 8.65995 19.93875 6.88998 21.49202 5.34375 23.1875 C 3.79759 24.88309 2.56978 26.66346 1.625 28.53125 C 0.68027 30.3992 0.1875 32.3173 0.1875 34.25 C 0.1875 34.59332 0.26509 34.88916 0.4375 35.125 C 0.6099 35.36082 0.75852 35.58579 0.84375 35.84375 C 0.71543 36.61686 0.52722 37.46388 0.3125 38.34375 C 0.0975 39.22367 0 40.05868 0 40.875 C 0 42.67804 0.24652 44.35042 0.71875 45.875 C 1.19089 47.39956 2.09425 48.82628 3.46875 50.15625 C 3.46875 50.37126 3.68606 50.85194 4.09375 51.625 C 4.50149 52.39811 4.95311 53.23484 5.46875 54.09375 C 5.98434 54.95267 6.51626 55.73889 7.03125 56.46875 C 7.5462 57.19861 7.89084 57.62159 8.0625 57.75 C 8.32062 57.92141 8.70379 58.03879 9.21875 58.125 C 9.73368 58.2107 10.23436 58.33945 10.75 58.46875 C 11.26559 58.59756 11.74872 58.75453 12.15625 58.96875 C 12.56398 59.18327 12.75 59.48846 12.75 59.875 L 12.03125 60.96875 C 12.76107 61.31208 13.61777 61.63678 14.5625 61.9375 C 15.50727 62.23823 16.48142 62.49423 17.46875 62.6875 C 18.45607 62.88072 19.40863 63.01798 20.375 63.125 C 21.34137 63.23255 22.24742 63.28125 23.0625 63.28125 C 24.30725 63.28125 25.54541 63.20317 26.8125 63.03125 C 28.07959 62.85984 29.34894 62.65222 30.59375 62.4375 C 31.83854 62.22249 33.10791 62.03687 34.375 61.84375 C 35.64204 61.65054 36.88015 61.5625 38.125 61.5625 C 39.54142 60.48932 41.12591 59.20972 42.84375 57.75 C 44.56157 56.29029 46.15392 54.68658 47.65625 52.96875 C 49.15851 51.25092 50.42852 49.461 51.4375 47.59375 C 52.44642 45.72655 52.93745 43.83899 52.9375 41.90625 C 52.93745 40.78986 53.13448 39.69817 53.5 38.625 C 53.86563 37.55186 54.0312 36.48073 54.03125 35.40625 C 54.0312 35.10603 53.95366 34.73203 53.78125 34.28125 C 53.60884 33.8304 53.41191 33.38828 53.21875 32.9375 C 53.02554 32.48667 52.85887 32.00364 52.6875 31.53125 C 52.51609 31.05911 52.4375 30.63658 52.4375 30.25 C 52.43745 29.82047 52.55387 29.57321 52.8125 29.53125 C 52.8978 28.92986 52.65171 28.10513 52.09375 27.03125 C 51.53551 25.95752 50.77816 24.7977 49.8125 23.53125 C 48.84676 22.26486 47.75506 20.96594 46.53125 19.65625 C 45.30736 18.34659 44.09879 17.17659 42.875 16.125 C 41.6511 15.07352 40.46974 14.18735 39.375 13.5 C 38.28023 12.81279 37.40531 12.4688 36.71875 12.46875 C 35.51581 12.4688 34.22722 12.31228 32.875 11.96875 C 31.5227 11.62543 30.19426 11.43755 28.90625 11.4375 z M 26.65625 14.90625 C 27.77264 14.9063 28.89322 15.14306 30.03125 15.59375 C 31.16924 16.04458 32.22177 16.54691 33.1875 17.0625 C 34.15317 17.57814 35.02975 18.04927 35.78125 18.5 C 36.53271 18.95084 37.06293 19.18755 37.40625 19.1875 C 37.49245 19.18755 37.63113 19.1288 37.78125 19.0625 C 37.93135 18.9986 38.0383 18.94934 38.125 18.90625 C 38.42524 19.5929 38.87755 20.40074 39.5 21.28125 C 40.12235 22.16182 40.80005 22.71198 41.53125 22.96875 C 41.35834 23.18378 41.14357 23.47888 40.84375 23.84375 C 40.54352 24.20888 40.3745 24.54239 40.375 24.84375 C 40.37495 25.22919 40.51418 25.86949 40.75 26.75 C 40.98582 27.63057 41.25042 28.52404 41.59375 29.46875 C 41.93707 30.41353 42.28097 31.31899 42.625 32.15625 C 42.96882 32.99357 43.27438 33.54372 43.53125 33.84375 C 43.61745 34.18709 43.75614 34.52143 43.90625 34.84375 C 44.05637 35.16626 44.125 35.50046 44.125 35.84375 C 44.12495 36.83044 43.97637 37.93241 43.71875 39.15625 C 43.46113 40.38009 43.17738 41.65909 42.8125 42.96875 C 42.44737 44.27845 42.05239 45.57735 41.6875 46.84375 C 41.32238 48.11021 41.07787 49.25008 40.90625 50.28125 C 40.17634 50.88275 39.56609 51.57133 39.09375 52.34375 C 38.62162 53.11621 38.14059 53.86395 37.625 54.59375 C 37.10936 55.32362 36.5286 56.01225 35.90625 56.65625 C 35.2838 57.3003 34.46733 57.76114 33.4375 58.0625 L 32.71875 58.78125 C 32.50372 58.86795 32.25722 58.9749 32 59.125 C 31.74238 59.27511 31.45692 59.46279 31.15625 59.65625 C 30.85552 59.84946 30.61082 59.99569 30.375 60.125 C 30.13918 60.25381 29.94077 60.3125 29.8125 60.3125 C 28.95289 60.3125 28.09862 60.26376 27.21875 60.15625 C 26.33882 60.04869 25.45196 59.94081 24.59375 59.8125 L 24.15625 59.28125 C 23.6846 59.24155 23.14228 59.18993 22.5625 59.125 C 21.98266 59.0601 21.49229 58.95267 21.0625 58.78125 L 20.625 58.34375 C 19.25045 58.08564 18.01064 57.28805 16.9375 56 C 15.86431 54.71201 14.89978 53.23713 14.0625 51.5625 C 13.2252 49.88792 12.48775 48.17634 11.84375 46.4375 C 11.1997 44.69871 10.63994 43.25338 10.125 42.09375 L 10.125 36.375 C 10.59664 35.34511 10.85165 34.21424 10.9375 32.96875 C 11.0232 31.7233 11.19174 30.52269 11.40625 29.40625 C 11.53457 28.71965 11.73038 28.0606 12.03125 27.4375 C 12.33198 26.81446 12.66627 26.22584 13.03125 25.625 C 13.39588 25.02424 13.75041 24.40371 14.09375 23.78125 C 14.43708 23.15886 14.72259 22.51975 14.9375 21.875 C 15.58219 21.7897 16.37802 21.37651 17.34375 20.625 C 18.30949 19.87361 19.34202 19.08731 20.4375 18.25 C 21.53287 17.41273 22.62396 16.6248 23.71875 15.9375 C 24.81348 15.2503 25.79799 14.9063 26.65625 14.90625 z "
       transform="translate(105.85298,277.82322)"
       id="path2990" />
  </g>
</svg>
