<svg xmlns:svg="http://www.w3.org/2000/svg" xmlns="http://www.w3.org/2000/svg" width="103.5" height="69.2" version="1.1"><style>.s0{fill:#fff;}.s1{fill:none;stroke:#000;}.s2{fill:#000;}</style><g transform="translate(-527.21429,-540.2193)"><g transform="matrix(1.25,0,0,-1.25,528.12779,577.41345)"><path d="m0 0 0-22.7 6 0 2.8-2.9 5.2 0 2.6 2.9 6.1 0L22.7 0 0 0z" fill="#fff"/></g><g transform="matrix(1.25,0,0,-1.25,153.71429,1282.7693)"><g transform="translate(322.2127,541.603)"><path d="m0 0-6.1 0-5.1-5.7-5.5 5.8-6 0 0 22.7L0 22.7 0 0z" class="s1"/></g></g><g transform="matrix(1.25,0,0,-1.25,556.48016,572.68821)"><path d="m0 0-6.1 0-5.1-5.7-5.5 5.8-6 0 0 22.7L0 22.7 0 0z" fill="#fff"/></g><g transform="matrix(1.25,0,0,-1.25,556.48016,572.68817)"><path d="m0 0-6.1 0-5.1-5.7-5.5 5.8-6 0 0 22.7L0 22.7 0 0z" class="s1"/></g><g transform="matrix(1.25,0,0,1.25,533.96429,564.90958)"><path d="M8.4-0.5C8.3-0.9 8.2-1.2 8.1-1.4 7.9-2 7.7-2.5 7.5-2.8 7.4-3.2 7.2-3.6 7-3.9 6.7-4.5 6.4-4.7 6.1-4.7c-0.3 0-0.7 0.3-1.3 1-0.4 0.4-0.8 0.9-1.2 1.3-0.4 0.5-0.8 0.9-1.1 1.3-0.3 0.3-0.6 0.5-0.7 0.5-0.2 0-0.4-0.2-0.4-0.7 0-0.1 0-0.2 0-0.3 0-0.2 0.1-0.4 0.2-0.5 0.1-0.1 0.2-0.2 0.3-0.2 0.1 0 0.2 0 0.2 0 0 0 0.1 0 0.2-0.1 0.1 0 0.2-0.1 0.3-0.3 0.1-0.1 0.2-0.3 0.4-0.4 0 0 0.4-0.3 1.1-0.9C5-4.8 5.4-5.4 5.4-6 5.4-6.2 5.4-6.4 5.3-6.7 4.8-7.7 4-8.7 3.2-9.5 2.9-9.7 2.7-10.1 2.7-10.4c0-0.2 0.1-0.5 0.2-0.6 0.1-0.2 0.3-0.3 0.5-0.3 0.2 0 0.5 0.1 0.8 0.4 0.3 0.3 0.6 0.7 0.9 1.3 0.3 0.5 0.6 1 0.8 1.5 0.2 0.4 0.4 0.7 0.5 0.8 0.2 0.2 0.3 0.3 0.5 0.3 0.3 0 0.6-0.2 1-0.5 0.4-0.3 0.8-0.7 1.4-1.3 0.3-0.4 0.6-0.6 0.7-0.8 0.2-0.2 0.4-0.5 0.7-0.8 0.2-0.3 0.4-0.5 0.6-0.8 0.2-0.2 0.4-0.3 0.5-0.3 0.3 0 0.5 0.3 0.5 0.8 0 0.5-0.4 1-1.1 1.6-0.6 0.4-1.1 0.8-1.7 1.2-0.3 0.3-0.6 0.5-0.9 0.8-0.3 0.3-0.6 0.6-0.8 0.8-0.2 0.2-0.2 0.4-0.2 0.6 0 0.1 0 0.3 0.1 0.5 0.1 0.2 0.2 0.4 0.3 0.5 0.1 0.2 0.5 0.8 1.1 1.7 0.5 0.7 0.8 1.3 0.8 1.7 0 0.3-0.1 0.5-0.3 0.7C9.4-0.3 9.1-0.1 8.6 0z" class="s2"/></g><g transform="matrix(1.25,0,0,-1.25,601.47779,577.26271)"><path d="m0 0 0-22.7 6 0 2.9-3 5 0 2.7 3 6.1 0L22.7 0 0 0z" fill="#fff"/></g><g transform="matrix(1.25,0,0,-1.25,153.71429,1282.7693)"><g transform="translate(380.8927,541.7233)"><path d="m0 0-6.1 0-5.1-5.7-5.5 5.8-6 0 0 22.7L0 22.7 0 0z" class="s1"/></g></g><g transform="matrix(1.25,0,0,-1.25,629.83016,572.53783)"><path d="m0 0-6.1 0-5.1-5.7-5.5 5.8-6 0 0 22.7L0 22.7 0 0z" fill="#fff"/></g><g transform="matrix(1.25,0,0,-1.25,629.83016,572.5378)"><path d="m0 0-6.1 0-5.1-5.7-5.5 5.8-6 0 0 22.7L0 22.7 0 0z" class="s1"/></g><g transform="matrix(1.25,0,0,1.25,607.31429,564.75933)"><path d="M8.4-0.5C8.3-0.9 8.2-1.2 8.1-1.4 7.9-2 7.7-2.5 7.5-2.8 7.4-3.2 7.2-3.6 7-3.9 6.7-4.5 6.4-4.7 6.1-4.7c-0.3 0-0.7 0.3-1.3 1-0.4 0.4-0.8 0.9-1.2 1.3-0.4 0.5-0.8 0.9-1.1 1.3-0.3 0.3-0.6 0.5-0.7 0.5-0.2 0-0.4-0.2-0.4-0.7 0-0.1 0-0.2 0-0.3 0-0.2 0.1-0.4 0.2-0.5 0.1-0.1 0.2-0.2 0.3-0.2 0.1 0 0.2 0 0.2 0 0 0 0.1 0 0.2-0.1 0.1 0 0.2-0.1 0.3-0.3 0.1-0.1 0.2-0.3 0.4-0.4 0 0 0.4-0.3 1.1-0.9C5-4.8 5.4-5.4 5.4-6 5.4-6.2 5.4-6.4 5.3-6.7 4.8-7.7 4-8.7 3.2-9.5 2.9-9.7 2.7-10.1 2.7-10.4c0-0.2 0.1-0.5 0.2-0.6 0.1-0.2 0.3-0.3 0.5-0.3 0.2 0 0.5 0.1 0.8 0.4 0.3 0.3 0.6 0.7 0.9 1.3 0.3 0.5 0.6 1 0.8 1.5 0.2 0.4 0.4 0.7 0.5 0.8 0.2 0.2 0.3 0.3 0.5 0.3 0.3 0 0.6-0.2 1-0.5 0.4-0.3 0.8-0.7 1.4-1.3 0.3-0.4 0.6-0.6 0.7-0.8 0.2-0.2 0.4-0.5 0.7-0.8 0.2-0.3 0.4-0.5 0.6-0.8 0.2-0.2 0.4-0.3 0.5-0.3 0.3 0 0.5 0.3 0.5 0.8 0 0.5-0.4 1-1.1 1.6-0.6 0.4-1.1 0.8-1.7 1.2-0.3 0.3-0.6 0.5-0.9 0.8-0.3 0.3-0.6 0.6-0.8 0.8-0.2 0.2-0.2 0.4-0.2 0.6 0 0.1 0 0.3 0.1 0.5 0.1 0.2 0.2 0.4 0.3 0.5 0.1 0.2 0.5 0.8 1.1 1.7 0.5 0.7 0.8 1.3 0.8 1.7 0 0.3-0.1 0.5-0.3 0.7C9.4-0.3 9.1-0.1 8.6 0z" class="s2"/><path d="M8.4 26.6C8.3 26.2 8.2 25.9 8.1 25.7 7.9 25.1 7.7 24.7 7.5 24.3 7.4 23.9 7.2 23.6 7 23.2 6.7 22.7 6.4 22.4 6.1 22.4c-0.3 0-0.7 0.3-1.3 1-0.4 0.4-0.8 0.9-1.2 1.3-0.4 0.5-0.8 0.9-1.1 1.3-0.3 0.3-0.6 0.5-0.7 0.5-0.2 0-0.4-0.2-0.4-0.7 0-0.1 0-0.2 0-0.3 0-0.2 0.1-0.4 0.2-0.5 0.1-0.1 0.2-0.2 0.3-0.2 0.1 0 0.2 0 0.2 0 0 0 0.1 0 0.2-0.1 0.1 0 0.2-0.1 0.3-0.3 0.1-0.1 0.2-0.3 0.4-0.4 0 0 0.4-0.3 1.1-0.9 0.9-0.7 1.3-1.4 1.3-1.9 0-0.2-0.1-0.4-0.2-0.7C4.8 19.4 4 18.4 3.2 17.6 2.9 17.4 2.7 17.1 2.7 16.7c0-0.2 0.1-0.5 0.2-0.6 0.1-0.2 0.3-0.3 0.5-0.3 0.2 0 0.5 0.1 0.8 0.4 0.3 0.3 0.6 0.7 0.9 1.3 0.3 0.5 0.6 1 0.8 1.5 0.2 0.4 0.4 0.7 0.5 0.8 0.2 0.2 0.3 0.3 0.5 0.3 0.3 0 0.6-0.2 1-0.5 0.4-0.3 0.8-0.7 1.4-1.3 0.3-0.4 0.6-0.6 0.7-0.8 0.2-0.2 0.4-0.5 0.7-0.8 0.2-0.3 0.4-0.5 0.6-0.8 0.2-0.2 0.4-0.3 0.5-0.3 0.3 0 0.5 0.3 0.5 0.8 0 0.5-0.4 1-1.1 1.6-0.6 0.4-1.1 0.8-1.7 1.2-0.3 0.3-0.6 0.5-0.9 0.8-0.3 0.3-0.6 0.6-0.8 0.8-0.2 0.2-0.2 0.4-0.2 0.6 0 0.1 0 0.3 0.1 0.5 0.1 0.2 0.2 0.4 0.3 0.5 0.1 0.2 0.5 0.8 1.1 1.7 0.5 0.7 0.8 1.3 0.8 1.7 0 0.3-0.1 0.5-0.3 0.7-0.2 0.2-0.5 0.4-1 0.5z" fill="#91180e"/></g><g transform="matrix(1.25,0,0,-1.25,562.91491,591.30358)"><path d="M0 0 18.9 0" style="fill:none;stroke-width:0.8;stroke:#91180e"/></g><g transform="matrix(1.25,0,0,-1.25,592.87379,591.30358)"><path d="M0 0-6.7 2.4-5.1 0-6.7-2.4 0 0z" fill="#91180e"/></g></g></svg>