<svg xmlns:svg="http://www.w3.org/2000/svg" xmlns="http://www.w3.org/2000/svg" width="35" height="34.4" version="1.1"><style>.s0{fill:#fff;}.s1{fill:none;stroke:#000;}</style><g transform="translate(-333.92851,-506.59801)"><g transform="matrix(1.25,0,0,-1.25,353.92863,511.4385)"><path d="m0 0 1.2-8.8 6.6 6-4.8-7.6 8.9 0.3-8.5-2.7 7-5.5-8.3 3.4 1.9-8.7-4.2 7.9-4.2-7.9 1.9 8.7-8.3-3.4 7 5.5-8.5 2.7 8.9-0.3-4.8 7.6 6.6-6L0 0z" fill="#000"/></g><path d="m362.1 534.7-16.2 0 0-16.2 16.2 0 0 16.2z" fill="#fff"/><g transform="matrix(1.25,0,0,-1.25,362.05276,534.72225)"><path d="m0 0-13 0 0 13L0 13 0 0z" class="s1"/></g><path d="m350.8 523.5-16.2 0 0-16.2 16.2 0 0 16.2z" fill="#fff"/><g transform="matrix(1.25,0,0,-1.25,350.80351,523.47301)"><path d="m0 0-13 0 0 13L0 13 0 0z" class="s1"/></g><g transform="matrix(1.25,0,0,1.25,270.91813,846.61088)"><path d="m58.7-261.7c-0.1-0.3-0.2-0.5-0.2-0.6-0.2-0.4-0.3-0.8-0.4-1.1-0.1-0.3-0.3-0.6-0.4-0.8-0.2-0.4-0.4-0.6-0.6-0.6-0.2 0-0.5 0.2-1 0.7-0.3 0.3-0.6 0.7-0.9 1-0.3 0.4-0.6 0.7-0.8 1-0.2 0.2-0.4 0.4-0.6 0.4-0.2 0-0.3-0.2-0.3-0.5 0-0.1 0-0.1 0-0.3 0-0.2 0-0.3 0.1-0.4 0.1-0.1 0.2-0.1 0.2-0.1 0.1 0 0.1 0 0.2 0 0 0 0.1 0 0.2 0 0.1 0 0.2-0.1 0.2-0.2 0.1-0.1 0.2-0.2 0.3-0.3 0 0 0.3-0.3 0.9-0.7 0.7-0.5 1-1 1-1.4 0-0.2 0-0.3-0.1-0.5-0.4-0.8-0.9-1.5-1.6-2.1-0.2-0.2-0.3-0.4-0.3-0.7 0-0.2 0.1-0.3 0.2-0.5 0.1-0.1 0.2-0.2 0.4-0.2 0.2 0 0.4 0.1 0.6 0.3 0.2 0.2 0.4 0.5 0.7 1 0.2 0.4 0.4 0.8 0.6 1.1 0.2 0.3 0.3 0.5 0.4 0.6 0.1 0.1 0.3 0.2 0.4 0.2 0.2 0 0.5-0.1 0.8-0.4 0.3-0.2 0.6-0.6 1-1 0.3-0.3 0.4-0.5 0.5-0.6 0.2-0.2 0.3-0.4 0.5-0.6 0.1-0.2 0.3-0.4 0.4-0.6 0.1-0.2 0.3-0.2 0.4-0.2 0.3 0 0.4 0.2 0.4 0.6 0 0.4-0.3 0.8-0.8 1.2-0.4 0.3-0.8 0.6-1.3 0.9-0.2 0.2-0.5 0.4-0.7 0.6-0.3 0.2-0.5 0.4-0.6 0.6-0.1 0.2-0.2 0.3-0.2 0.4 0 0.1 0 0.2 0.1 0.3 0.1 0.1 0.1 0.3 0.2 0.4 0.1 0.1 0.3 0.6 0.8 1.3 0.4 0.6 0.6 1 0.6 1.3 0 0.2-0.1 0.4-0.2 0.6-0.2 0.2-0.4 0.3-0.8 0.4z"/></g></g></svg>