<svg xmlns:svg="http://www.w3.org/2000/svg" xmlns="http://www.w3.org/2000/svg" width="119.6" height="34.4" version="1.1"><style>.s0{fill:#000;}.s1{fill:#fff;}.s2{fill:none;stroke:#000;}</style><g transform="translate(-287.87339,-482.09266)"><g transform="matrix(1.25,0,0,-1.25,332.23302,499.78904)"><path d="M0 0 18.9 0" style="fill:none;stroke-width:0.8;stroke:#91180e"/></g><g transform="matrix(1.25,0,0,-1.25,362.19189,499.78904)"><path d="M0 0-6.7 2.4-5.1 0-6.7-2.4 0 0z" fill="#91180e"/></g><g transform="matrix(1.25,0,0,-1.25,307.87352,486.93316)"><path d="m0 0 1.2-8.8 6.6 6-4.8-7.6 8.9 0.3-8.5-2.7 7-5.5-8.3 3.4 1.9-8.7-4.2 7.9-4.2-7.9 1.9 8.7-8.3-3.4 7 5.5-8.5 2.7 8.9-0.3-4.8 7.6 6.6-6L0 0z" class="s0"/></g><path d="m316 510.2-16.2 0 0-16.2 16.2 0 0 16.2z" class="s1"/><g transform="matrix(1.25,0,0,-1.25,315.99764,510.21691)"><path d="m0 0-13 0 0 13L0 13 0 0z" class="s2"/></g><path d="m304.7 499-16.2 0 0-16.2 16.2 0 0 16.2z" class="s1"/><g transform="matrix(1.25,0,0,-1.25,304.74839,498.96766)"><path d="m0 0-13 0 0 13L0 13 0 0z" class="s2"/></g><g transform="matrix(1.25,0,0,-1.25,392.47351,486.93316)"><path d="m0 0 1.2-8.8 6.6 6-4.8-7.6 8.9 0.3-8.5-2.7 7-5.5-8.3 3.4 1.9-8.7-4.2 7.9-4.2-7.9 1.9 8.7-8.3-3.4 7 5.5-8.5 2.7 8.9-0.3-4.8 7.6 6.6-6L0 0z" class="s0"/></g><path d="m400.6 510.2-16.2 0 0-16.2 16.2 0 0 16.2z" class="s1"/><g transform="matrix(1.25,0,0,-1.25,400.59764,510.21691)"><path d="m0 0-13 0 0 13L0 13 0 0z" class="s2"/></g><path d="m389.3 499-16.2 0 0-16.2 16.2 0 0 16.2z" class="s1"/><g transform="matrix(1.25,0,0,-1.25,389.34839,498.96766)"><path d="m0 0-13 0 0 13L0 13 0 0z" class="s2"/></g><g transform="translate(-0.16334689,0.32669379)" class="s0"><path d="m382.6 495c-0.1-0.4-0.2-0.6-0.3-0.8-0.2-0.6-0.4-1-0.5-1.3-0.2-0.3-0.3-0.7-0.5-1.1-0.3-0.5-0.5-0.7-0.8-0.7-0.3 0-0.7 0.3-1.2 0.9-0.4 0.4-0.7 0.8-1.1 1.2-0.4 0.5-0.7 0.9-1 1.2-0.3 0.3-0.5 0.5-0.7 0.5-0.2 0-0.3-0.2-0.4-0.7 0-0.1 0-0.2 0-0.3 0-0.2 0.1-0.4 0.2-0.5 0.1-0.1 0.2-0.2 0.3-0.2 0.1 0 0.2 0 0.2 0 0 0 0.1 0 0.2-0.1 0.1 0 0.2-0.1 0.3-0.3 0.1-0.1 0.2-0.3 0.3-0.4 0 0 0.4-0.3 1.1-0.9 0.8-0.7 1.2-1.3 1.2-1.8 0-0.2 0-0.4-0.1-0.6-0.5-1-1.1-1.9-2-2.6-0.3-0.2-0.4-0.5-0.4-0.9 0-0.2 0.1-0.4 0.2-0.6 0.1-0.2 0.3-0.2 0.5-0.2 0.2 0 0.5 0.1 0.7 0.4 0.2 0.3 0.5 0.7 0.8 1.2 0.3 0.5 0.5 0.9 0.8 1.4 0.2 0.4 0.4 0.6 0.5 0.8 0.2 0.2 0.3 0.3 0.5 0.3 0.2 0 0.6-0.2 1-0.5 0.4-0.3 0.8-0.7 1.3-1.2 0.3-0.4 0.5-0.6 0.7-0.7 0.2-0.2 0.4-0.4 0.6-0.7 0.2-0.2 0.4-0.5 0.5-0.7 0.2-0.2 0.3-0.3 0.5-0.3 0.3 0 0.5 0.3 0.5 0.8 0 0.5-0.4 1-1.1 1.5-0.5 0.4-1.1 0.8-1.6 1.1-0.3 0.2-0.6 0.5-0.9 0.7-0.3 0.3-0.6 0.5-0.8 0.8-0.1 0.2-0.2 0.4-0.2 0.5 0 0.1 0 0.3 0.1 0.4 0.1 0.2 0.2 0.3 0.2 0.5 0.1 0.2 0.4 0.7 1.1 1.6 0.5 0.7 0.7 1.2 0.7 1.6 0 0.3-0.1 0.5-0.3 0.7-0.2 0.2-0.5 0.4-1 0.5z" class="s0"/></g><g transform="translate(-84.6638,0.43811453)"><path d="m382.6 495c-0.1-0.4-0.2-0.6-0.3-0.8-0.2-0.6-0.4-1-0.5-1.3-0.2-0.3-0.3-0.7-0.5-1.1-0.3-0.5-0.5-0.7-0.8-0.7-0.3 0-0.7 0.3-1.2 0.9-0.4 0.4-0.7 0.8-1.1 1.2-0.4 0.5-0.7 0.9-1 1.2-0.3 0.3-0.5 0.5-0.7 0.5-0.2 0-0.3-0.2-0.4-0.7 0-0.1 0-0.2 0-0.3 0-0.2 0.1-0.4 0.2-0.5 0.1-0.1 0.2-0.2 0.3-0.2 0.1 0 0.2 0 0.2 0 0 0 0.1 0 0.2-0.1 0.1 0 0.2-0.1 0.3-0.3 0.1-0.1 0.2-0.3 0.3-0.4 0 0 0.4-0.3 1.1-0.9 0.8-0.7 1.2-1.3 1.2-1.8 0-0.2 0-0.4-0.1-0.6-0.5-1-1.1-1.9-2-2.6-0.3-0.2-0.4-0.5-0.4-0.9 0-0.2 0.1-0.4 0.2-0.6 0.1-0.2 0.3-0.2 0.5-0.2 0.2 0 0.5 0.1 0.7 0.4 0.2 0.3 0.5 0.7 0.8 1.2 0.3 0.5 0.5 0.9 0.8 1.4 0.2 0.4 0.4 0.6 0.5 0.8 0.2 0.2 0.3 0.3 0.5 0.3 0.2 0 0.6-0.2 1-0.5 0.4-0.3 0.8-0.7 1.3-1.2 0.3-0.4 0.5-0.6 0.7-0.7 0.2-0.2 0.4-0.4 0.6-0.7 0.2-0.2 0.4-0.5 0.5-0.7 0.2-0.2 0.3-0.3 0.5-0.3 0.3 0 0.5 0.3 0.5 0.8 0 0.5-0.4 1-1.1 1.5-0.5 0.4-1.1 0.8-1.6 1.1-0.3 0.2-0.6 0.5-0.9 0.7-0.3 0.3-0.6 0.5-0.8 0.8-0.1 0.2-0.2 0.4-0.2 0.5 0 0.1 0 0.3 0.1 0.4 0.1 0.2 0.2 0.3 0.2 0.5 0.1 0.2 0.4 0.7 1.1 1.6 0.5 0.7 0.7 1.2 0.7 1.6 0 0.3-0.1 0.5-0.3 0.7-0.2 0.2-0.5 0.4-1 0.5z" class="s0"/></g><g transform="translate(13.017643,12.525785)"><path d="m382.6 495c-0.1-0.4-0.2-0.6-0.3-0.8-0.2-0.6-0.4-1-0.5-1.3-0.2-0.3-0.3-0.7-0.5-1.1-0.3-0.5-0.5-0.7-0.8-0.7-0.3 0-0.7 0.3-1.2 0.9-0.4 0.4-0.7 0.8-1.1 1.2-0.4 0.5-0.7 0.9-1 1.2-0.3 0.3-0.5 0.5-0.7 0.5-0.2 0-0.3-0.2-0.4-0.7 0-0.1 0-0.2 0-0.3 0-0.2 0.1-0.4 0.2-0.5 0.1-0.1 0.2-0.2 0.3-0.2 0.1 0 0.2 0 0.2 0 0 0 0.1 0 0.2-0.1 0.1 0 0.2-0.1 0.3-0.3 0.1-0.1 0.2-0.3 0.3-0.4 0 0 0.4-0.3 1.1-0.9 0.8-0.7 1.2-1.3 1.2-1.8 0-0.2 0-0.4-0.1-0.6-0.5-1-1.1-1.9-2-2.6-0.3-0.2-0.4-0.5-0.4-0.9 0-0.2 0.1-0.4 0.2-0.6 0.1-0.2 0.3-0.2 0.5-0.2 0.2 0 0.5 0.1 0.7 0.4 0.2 0.3 0.5 0.7 0.8 1.2 0.3 0.5 0.5 0.9 0.8 1.4 0.2 0.4 0.4 0.6 0.5 0.8 0.2 0.2 0.3 0.3 0.5 0.3 0.2 0 0.6-0.2 1-0.5 0.4-0.3 0.8-0.7 1.3-1.2 0.3-0.4 0.5-0.6 0.7-0.7 0.2-0.2 0.4-0.4 0.6-0.7 0.2-0.2 0.4-0.5 0.5-0.7 0.2-0.2 0.3-0.3 0.5-0.3 0.3 0 0.5 0.3 0.5 0.8 0 0.5-0.4 1-1.1 1.5-0.5 0.4-1.1 0.8-1.6 1.1-0.3 0.2-0.6 0.5-0.9 0.7-0.3 0.3-0.6 0.5-0.8 0.8-0.1 0.2-0.2 0.4-0.2 0.5 0 0.1 0 0.3 0.1 0.4 0.1 0.2 0.2 0.3 0.2 0.5 0.1 0.2 0.4 0.7 1.1 1.6 0.5 0.7 0.7 1.2 0.7 1.6 0 0.3-0.1 0.5-0.3 0.7-0.2 0.2-0.5 0.4-1 0.5z" fill="#91180e"/></g></g></svg>