<svg xmlns:svg="http://www.w3.org/2000/svg" xmlns="http://www.w3.org/2000/svg" width="103.5" height="166.1" version="1.1"><style>.s5{fill-rule:nonzero;fill:#000;}.s1{fill:none;stroke-miterlimit:4;stroke:#000;}.s3{fill-rule:nonzero;fill:#fff;}</style><g transform="translate(-323.25,-449.33075)"><path d="m352.5 614.8-28.4 0 0-28.4 28.4 0 0 28.4z" class="s3"/><g transform="matrix(1.25,0,0,-1.25,-50.25,872.33075)"><g transform="translate(322.213,206.0497)"><path d="m0 0-22.7 0 0 22.7L0 22.7 0 0z" class="s1"/></g></g><g transform="matrix(1.25,0,0,-1.25,352.51587,581.12812)"><path d="m0 0-6.1 0-5.1-5.7-5.5 5.8-6 0 0 22.7L0 22.7 0 0z" class="s3"/></g><g transform="matrix(1.25,0,0,-1.25,-50.25,872.33075)"><g transform="translate(322.2127,232.9621)"><path d="m0 0-6.1 0-5.1-5.7-5.5 5.8-6 0 0 22.7L0 22.7 0 0z" class="s1"/></g></g><g transform="matrix(1.25,0,0,-1.25,352.51587,548.0495)"><path d="m0 0-6.1 0-5.1-5.7-5.5 5.8-6 0 0 22.7L0 22.7 0 0z" class="s3"/></g><g transform="matrix(1.25,0,0,-1.25,-50.25,872.33075)"><g transform="translate(322.2127,259.425)"><path d="m0 0-6.1 0-5.1-5.7-5.5 5.8-6 0 0 22.7L0 22.7 0 0z" class="s1"/></g></g><g transform="matrix(1.25,0,0,-1.25,352.51587,514.877)"><path d="m0 0-6.1 0-5.1-5.7-5.5 5.8-6 0 0 22.7L0 22.7 0 0z" class="s3"/></g><g transform="matrix(1.25,0,0,-1.25,-50.25,872.33075)"><g transform="translate(322.2127,285.963)"><path d="m0 0-6.1 0-5.1-5.7-5.5 5.8-6 0 0 22.7L0 22.7 0 0z" class="s1"/></g></g><g transform="matrix(1.25,0,0,-1.25,352.51587,481.7995)"><path d="m0 0-6.1 0-5.1-5.7-5.5 5.8-6 0 0 22.7L0 22.7 0 0z" class="s3"/></g><g transform="matrix(1.25,0,0,-1.25,-50.25,872.33075)"><g transform="translate(322.2127,312.425)"><path d="m0 0-6.1 0-5.1-5.7-5.5 5.8-6 0 0 22.7L0 22.7 0 0z" class="s1"/></g></g><path d="m340.5 473.4c-0.2-0.5-0.3-0.9-0.4-1.1-0.3-0.7-0.5-1.3-0.7-1.8-0.2-0.5-0.4-0.9-0.7-1.4-0.4-0.7-0.7-1-1.1-1-0.3 0-0.9 0.4-1.6 1.2-0.5 0.5-1 1.1-1.4 1.6-0.5 0.7-1 1.2-1.4 1.6-0.4 0.4-0.7 0.6-0.9 0.6-0.3 0-0.5-0.3-0.5-0.9 0-0.1 0-0.2 0-0.4 0-0.3 0.1-0.5 0.2-0.7 0.1-0.1 0.3-0.2 0.4-0.2 0.1 0 0.2 0 0.3 0 0.1 0 0.1 0 0.3-0.1 0.1-0.1 0.3-0.2 0.4-0.4 0.2-0.2 0.3-0.4 0.5-0.5 0 0 0.5-0.4 1.4-1.2 1.1-0.9 1.6-1.7 1.6-2.4 0-0.3-0.1-0.6-0.2-0.8-0.6-1.3-1.5-2.5-2.6-3.5-0.4-0.3-0.5-0.7-0.5-1.2 0-0.3 0.1-0.6 0.3-0.8 0.2-0.2 0.4-0.3 0.7-0.3 0.3 0 0.6 0.2 1 0.5 0.3 0.3 0.7 0.9 1.1 1.6 0.3 0.6 0.7 1.3 1.1 1.9 0.3 0.5 0.5 0.8 0.7 1 0.2 0.2 0.4 0.3 0.7 0.3 0.3 0 0.8-0.2 1.3-0.7 0.5-0.4 1-0.9 1.7-1.7 0.4-0.5 0.7-0.8 0.9-1 0.3-0.3 0.5-0.6 0.8-1 0.2-0.3 0.5-0.6 0.7-1 0.2-0.3 0.4-0.4 0.7-0.4 0.4 0 0.6 0.3 0.6 1 0 0.6-0.5 1.3-1.4 2-0.7 0.5-1.4 1-2.1 1.5-0.4 0.3-0.8 0.6-1.2 0.9-0.4 0.4-0.8 0.7-1 1-0.2 0.3-0.3 0.5-0.3 0.7 0 0.2 0.1 0.4 0.2 0.6 0.1 0.2 0.2 0.4 0.3 0.7 0.1 0.2 0.6 0.9 1.4 2.2 0.6 0.9 0.9 1.7 0.9 2.2 0 0.3-0.1 0.7-0.4 0.9-0.3 0.3-0.7 0.5-1.3 0.7zM340.5 507.3 340.5 507.3c-0.2-0.5-0.3-0.9-0.4-1.1-0.3-0.7-0.5-1.3-0.7-1.8-0.2-0.5-0.4-0.9-0.7-1.4-0.4-0.7-0.7-1-1.1-1-0.3 0-0.9 0.4-1.6 1.2-0.5 0.5-1 1.1-1.4 1.6-0.5 0.7-1 1.2-1.4 1.6-0.4 0.4-0.7 0.6-0.9 0.6-0.3 0-0.5-0.3-0.5-0.9 0-0.1 0-0.2 0-0.4 0-0.3 0.1-0.5 0.2-0.7 0.1-0.1 0.3-0.2 0.4-0.2 0.1 0 0.2 0 0.3 0 0.1 0 0.1 0 0.3-0.1 0.1-0.1 0.3-0.2 0.4-0.4 0.2-0.2 0.3-0.4 0.5-0.5 0 0 0.5-0.4 1.4-1.2 1.1-0.9 1.6-1.7 1.6-2.4 0-0.3-0.1-0.6-0.2-0.8-0.6-1.3-1.5-2.5-2.6-3.5-0.4-0.3-0.5-0.7-0.5-1.2 0-0.3 0.1-0.6 0.3-0.8 0.2-0.2 0.4-0.3 0.7-0.3 0.3 0 0.6 0.2 1 0.5 0.3 0.3 0.7 0.9 1.1 1.6 0.3 0.6 0.7 1.3 1.1 1.9 0.3 0.5 0.5 0.8 0.7 1 0.2 0.2 0.4 0.3 0.7 0.3 0.3 0 0.8-0.2 1.3-0.7 0.5-0.4 1-0.9 1.7-1.7 0.4-0.5 0.7-0.8 0.9-1 0.3-0.3 0.5-0.6 0.8-1 0.2-0.3 0.5-0.6 0.7-1 0.2-0.3 0.4-0.4 0.7-0.4 0.4 0 0.6 0.3 0.6 1 0 0.6-0.5 1.3-1.4 2-0.7 0.5-1.4 1-2.1 1.5-0.4 0.3-0.8 0.6-1.2 0.9-0.4 0.4-0.8 0.7-1 1-0.2 0.3-0.3 0.5-0.3 0.7 0 0.2 0.1 0.4 0.2 0.6 0.1 0.2 0.2 0.4 0.3 0.7 0.1 0.2 0.6 0.9 1.4 2.2 0.6 0.9 0.9 1.7 0.9 2.2 0 0.3-0.1 0.7-0.4 0.9-0.3 0.3-0.7 0.5-1.3 0.7zM340.5 541.2c-0.2-0.5-0.3-0.9-0.4-1.1-0.3-0.7-0.5-1.3-0.7-1.8-0.2-0.5-0.4-0.9-0.7-1.4-0.4-0.7-0.7-1-1.1-1-0.3 0-0.9 0.4-1.6 1.2-0.5 0.5-1 1.1-1.4 1.6-0.5 0.7-1 1.2-1.4 1.6-0.4 0.4-0.7 0.6-0.9 0.6-0.3 0-0.5-0.3-0.5-0.9 0-0.1 0-0.2 0-0.4 0-0.3 0.1-0.5 0.2-0.7 0.1-0.1 0.3-0.2 0.4-0.2 0.1 0 0.2 0 0.3 0 0.1 0 0.1 0 0.3-0.1 0.1-0.1 0.3-0.2 0.4-0.4 0.2-0.2 0.3-0.4 0.5-0.5 0 0 0.5-0.4 1.4-1.2 1.1-0.9 1.6-1.7 1.6-2.4 0-0.3-0.1-0.6-0.2-0.8-0.6-1.3-1.5-2.5-2.6-3.5-0.4-0.3-0.5-0.7-0.5-1.2 0-0.3 0.1-0.6 0.3-0.8 0.2-0.2 0.4-0.3 0.7-0.3 0.3 0 0.6 0.2 1 0.5 0.3 0.3 0.7 0.9 1.1 1.6 0.3 0.6 0.7 1.3 1.1 1.9 0.3 0.5 0.5 0.8 0.7 1 0.2 0.2 0.4 0.3 0.7 0.3 0.3 0 0.8-0.2 1.3-0.7 0.5-0.4 1-0.9 1.7-1.7 0.4-0.5 0.7-0.8 0.9-1 0.3-0.3 0.5-0.6 0.8-1 0.2-0.3 0.5-0.6 0.7-1 0.2-0.3 0.4-0.4 0.7-0.4 0.4 0 0.6 0.3 0.6 1 0 0.6-0.5 1.3-1.4 2-0.7 0.5-1.4 1-2.1 1.5-0.4 0.3-0.8 0.6-1.2 0.9-0.4 0.4-0.8 0.7-1 1-0.2 0.3-0.3 0.5-0.3 0.7 0 0.2 0.1 0.4 0.2 0.6 0.1 0.2 0.2 0.4 0.3 0.7 0.1 0.2 0.6 0.9 1.4 2.2 0.6 0.9 0.9 1.7 0.9 2.2 0 0.3-0.1 0.7-0.4 0.9-0.3 0.3-0.7 0.5-1.3 0.7zM340.5 575.1c-0.2-0.5-0.3-0.9-0.4-1.1-0.3-0.7-0.5-1.3-0.7-1.8-0.2-0.5-0.4-0.9-0.7-1.4-0.4-0.7-0.7-1-1.1-1-0.3 0-0.9 0.4-1.6 1.2-0.5 0.5-1 1.1-1.4 1.6-0.5 0.7-1 1.2-1.4 1.6-0.4 0.4-0.7 0.6-0.9 0.6-0.3 0-0.5-0.3-0.5-0.9 0-0.1 0-0.2 0-0.4 0-0.3 0.1-0.5 0.2-0.7 0.1-0.1 0.3-0.2 0.4-0.2 0.1 0 0.2 0 0.3 0 0.1 0 0.1 0 0.3-0.1 0.1-0.1 0.3-0.2 0.4-0.4 0.2-0.2 0.3-0.4 0.5-0.5 0 0 0.5-0.4 1.4-1.2 1.1-0.9 1.6-1.7 1.6-2.4 0-0.3-0.1-0.6-0.2-0.8-0.6-1.3-1.5-2.5-2.6-3.5-0.4-0.3-0.5-0.7-0.5-1.2 0-0.3 0.1-0.6 0.3-0.8 0.2-0.2 0.4-0.3 0.7-0.3 0.3 0 0.6 0.2 1 0.5 0.3 0.3 0.7 0.9 1.1 1.6 0.3 0.6 0.7 1.3 1.1 1.9 0.3 0.5 0.5 0.8 0.7 1 0.2 0.2 0.4 0.3 0.7 0.3 0.3 0 0.8-0.2 1.3-0.7 0.5-0.4 1-0.9 1.7-1.7 0.4-0.5 0.7-0.8 0.9-1 0.3-0.3 0.5-0.6 0.8-1 0.2-0.3 0.5-0.6 0.7-1 0.2-0.3 0.4-0.4 0.7-0.4 0.4 0 0.6 0.3 0.6 1 0 0.6-0.5 1.3-1.4 2-0.7 0.5-1.4 1-2.1 1.5-0.4 0.3-0.8 0.6-1.2 0.9-0.4 0.4-0.8 0.7-1 1-0.2 0.3-0.3 0.5-0.3 0.7 0 0.2 0.1 0.4 0.2 0.6 0.1 0.2 0.2 0.4 0.3 0.7 0.1 0.2 0.6 0.9 1.4 2.2 0.6 0.9 0.9 1.7 0.9 2.2 0 0.3-0.1 0.7-0.4 0.9-0.3 0.3-0.7 0.5-1.3 0.7zM340.5 609c-0.2-0.5-0.3-0.9-0.4-1.1-0.3-0.7-0.5-1.3-0.7-1.8-0.2-0.5-0.4-0.9-0.7-1.4-0.4-0.7-0.7-1-1.1-1-0.3 0-0.9 0.4-1.6 1.2-0.5 0.5-1 1.1-1.4 1.6-0.5 0.7-1 1.2-1.4 1.6-0.4 0.4-0.7 0.6-0.9 0.6-0.3 0-0.5-0.3-0.5-0.9 0-0.1 0-0.2 0-0.4 0-0.3 0.1-0.5 0.2-0.7 0.1-0.1 0.3-0.2 0.4-0.2 0.1 0 0.2 0 0.3 0 0.1 0 0.1 0 0.3-0.1 0.1-0.1 0.3-0.2 0.4-0.4 0.2-0.2 0.3-0.4 0.5-0.5 0 0 0.5-0.4 1.4-1.2 1.1-0.9 1.6-1.7 1.6-2.4 0-0.3-0.1-0.6-0.2-0.8-0.6-1.3-1.5-2.5-2.6-3.5-0.4-0.3-0.5-0.7-0.5-1.2 0-0.3 0.1-0.6 0.3-0.8 0.2-0.2 0.4-0.3 0.7-0.3 0.3 0 0.6 0.2 1 0.5 0.3 0.3 0.7 0.9 1.1 1.6 0.3 0.6 0.7 1.3 1.1 1.9 0.3 0.5 0.5 0.8 0.7 1 0.2 0.2 0.4 0.3 0.7 0.3 0.3 0 0.8-0.2 1.3-0.7 0.5-0.4 1-0.9 1.7-1.7 0.4-0.5 0.7-0.8 0.9-1 0.3-0.3 0.5-0.6 0.8-1 0.2-0.3 0.5-0.6 0.7-1 0.2-0.3 0.4-0.4 0.7-0.4 0.4 0 0.6 0.3 0.6 1 0 0.6-0.5 1.3-1.4 2-0.7 0.5-1.4 1-2.1 1.5-0.4 0.3-0.8 0.6-1.2 0.9-0.4 0.4-0.8 0.7-1 1-0.2 0.3-0.3 0.5-0.3 0.7 0 0.2 0.1 0.4 0.2 0.6 0.1 0.2 0.2 0.4 0.3 0.7 0.1 0.2 0.6 0.9 1.4 2.2 0.6 0.9 0.9 1.7 0.9 2.2 0 0.3-0.1 0.7-0.4 0.9-0.3 0.3-0.7 0.5-1.3 0.7zM425.9 614.6l-28.4 0 0-28.4 28.4 0 0 28.4M425.9 614.6l-28.4 0 0-28.4 28.4 0 0 28.4" class="s5"/><path d="m425.9 614.6-28.4 0 0-28.4 28.4 0 0 28.4z" class="s3"/><g transform="matrix(1.25,0,0,-1.25,-50.25,872.33075)"><g transform="translate(380.893,206.17)"><path d="m0 0-22.7 0 0 22.7L0 22.7 0 0z" class="s1"/></g></g><g transform="matrix(1.25,0,0,-1.25,425.86587,580.97787)"><path d="m0 0-6.1 0-5.1-5.7-5.5 5.8-6 0 0 22.7L0 22.7 0 0z" class="s3"/></g><g transform="matrix(1.25,0,0,-1.25,-50.25,872.33075)"><g transform="translate(380.8927,233.0823)"><path d="m0 0-6.1 0-5.1-5.7-5.5 5.8-6 0 0 22.7L0 22.7 0 0z" class="s1"/></g></g><g transform="matrix(1.25,0,0,-1.25,425.86587,547.89925)"><path d="m0 0-6.1 0-5.1-5.7-5.5 5.8-6 0 0 22.7L0 22.7 0 0z" class="s3"/></g><g transform="matrix(1.25,0,0,-1.25,-50.25,872.33075)"><g transform="translate(380.8927,259.5452)"><path d="m0 0-6.1 0-5.1-5.7-5.5 5.8-6 0 0 22.7L0 22.7 0 0z" class="s1"/></g></g><g transform="matrix(1.25,0,0,-1.25,425.86587,514.72662)"><path d="m0 0-6.1 0-5.1-5.7-5.5 5.8-6 0 0 22.7L0 22.7 0 0z" class="s3"/></g><g transform="matrix(1.25,0,0,-1.25,-50.25,872.33075)"><g transform="translate(380.8927,286.0833)"><path d="m0 0-6.1 0-5.1-5.7-5.5 5.8-6 0 0 22.7L0 22.7 0 0z" class="s1"/></g></g><g transform="matrix(1.25,0,0,-1.25,425.86587,481.64925)"><path d="m0 0-6.1 0-5.1-5.7-5.5 5.8-6 0 0 22.7L0 22.7 0 0z" class="s3"/></g><g transform="matrix(1.25,0,0,-1.25,-50.25,872.33075)"><g transform="translate(380.8927,312.5452)"><path d="m0 0-6.1 0-5.1-5.7-5.5 5.8-6 0 0 22.7L0 22.7 0 0z" class="s1"/></g></g><g transform="matrix(1.25,0,0,-1.25,358.8,529.91437)"><path d="M0 0 18.9 0" style="fill:none;stroke-width:0.8;stroke:#8b0304"/></g><g transform="matrix(1.25,0,0,-1.25,388.75888,529.91437)"><path d="M0 0-6.7 2.4-5.1 0-6.7-2.4 0 0z" fill="#8b0304"/></g></g></svg>