<?xml version="1.0" encoding="UTF-8" standalone="no"?>
<svg
   xmlns:dc="http://purl.org/dc/elements/1.1/"
   xmlns:cc="http://creativecommons.org/ns#"
   xmlns:rdf="http://www.w3.org/1999/02/22-rdf-syntax-ns#"
   xmlns:svg="http://www.w3.org/2000/svg"
   xmlns="http://www.w3.org/2000/svg"
   xmlns:sodipodi="http://sodipodi.sourceforge.net/DTD/sodipodi-0.dtd"
   xmlns:inkscape="http://www.inkscape.org/namespaces/inkscape"
   viewBox="0 0 512 512"
   id="svg3015"
   version="1.1"
   inkscape:version="0.48.2 r9819"
   width="100%"
   height="100%"
   sodipodi:docname="fist.svg">
  <metadata
     id="metadata3043">
    <rdf:RDF>
      <cc:Work
         rdf:about="">
        <dc:format>image/svg+xml</dc:format>
        <dc:type
           rdf:resource="http://purl.org/dc/dcmitype/StillImage" />
      </cc:Work>
    </rdf:RDF>
  </metadata>
  <defs
     id="defs3041" />
  <sodipodi:namedview
     pagecolor="#ffffff"
     bordercolor="#666666"
     borderopacity="1"
     objecttolerance="10"
     gridtolerance="10"
     guidetolerance="10"
     inkscape:pageopacity="0"
     inkscape:pageshadow="2"
     inkscape:window-width="922"
     inkscape:window-height="692"
     id="namedview3039"
     showgrid="false"
     inkscape:zoom="0.84617359"
     inkscape:cx="278.77966"
     inkscape:cy="234.30508"
     inkscape:window-x="2060"
     inkscape:window-y="264"
     inkscape:window-maximized="0"
     inkscape:current-layer="svg3015" />
  <g
     transform="matrix(18.68858,0,0,18.68858,713.79153,-13004.96853)"
     id="g3019"
     style="fill:#ffffff">
    <path
       d="m -33.0363,703.7839 c 6.5767,-1.9087 15.695156,-0.85039 19.476456,0.18667 1.1198,19.35 -20.426756,23.27109 -19.476456,-0.18667 z"
       id="path3021"
       style="fill:#ffffff;fill-rule:evenodd;stroke:#000000"
       inkscape:connector-curvature="0"
       sodipodi:nodetypes="ccc" />
    <path
       d="m-34.076,706.8905 .0012-7.8812c1.1251-1.0837 4.0582-1.544 5.128-.8021l-.0012,8.6836-5.128-.0003z"
       fill="#fff"
       stroke="#000"
       id="path3023"
       style="fill:#ffffff" />
    <path
       d="m-28.9477,709.0038 .0012-11.6229c1.1251-.9718 4.0582-1.1404 5.128-.2921l-.0012,11.935"
       fill="#fff"
       stroke="#000"
       id="path3025"
       style="fill:#ffffff" />
    <path
       d="m-23.8198,709.0736 .0012-11.5283c1.1252-.8279 4.0582-.6214 5.128.3638l-.0012,10.9276"
       fill="#fff"
       stroke="#000"
       id="path3027"
       style="fill:#ffffff" />
    <path
       d="m-18.6522,708.7998 .0012-10.3071c1.1252-.7959 4.0582-.506 5.128.5095l-.1194,9.51"
       fill="#fff"
       stroke="#000"
       id="path3029"
       style="fill:#ffffff" />
    <path
       d="m-20.6693,706.5268c-4.6393,1.3962-9.2127,1.7302-13.4684.7187-2.447-7.4767 14.3857-6.194 13.4684-.7187z"
       fill="#fff"
       stroke="#000"
       id="path3031"
       style="fill:#ffffff" />
    <path
       d="m -34.6617,708.4234 c 6.6875,1.5112 13.405345,1.98683 20.832945,-0.34667"
       id="path3033"
       style="fill:#ffffff;stroke:#000000"
       inkscape:connector-curvature="0"
       sodipodi:nodetypes="cc" />
    <path
       d="m-24.0909,718.2229c1.1657-7.2365-2.5088-14.3217-10.9833-11.257 .513,6.2172 4.6196,12.2831 10.9833,11.257z"
       fill="#fff"
       fill-rule="evenodd"
       stroke="#000"
       id="path3035"
       style="fill:#ffffff" />
    <path
       d="m-31.5142,721.402 .0006-5.2982c3.5661,1.7533 11.1163,1.1039 15.2504-.002l-.0007,5.2982c-3.9304,1.7125-12.1558,1.6675-15.2504.002z"
       fill="#fff"
       stroke="#000"
       id="path3037"
       style="fill:#ffffff" />
  </g>
</svg>
