<svg xmlns:svg="http://www.w3.org/2000/svg" xmlns="http://www.w3.org/2000/svg" width="120" height="42" version="1"><style>.sf{fill:#fff;}.s0{fill:#000;}</style><path d="m3.254 0.654 113.355 0.201c1.584 0 2.999-0.235 2.999 3.16l-0.139 37.33-119.075 0 0-37.468c0-1.674 0.162-3.223 2.861-3.223zM117.753 0l-115.506 0M117.753 0l-115.506 0M117.753 0l-115.506 0M117.753 0l-115.506 0" nodetypes="ccccccc" fill="#91180e"/><path d="m117.753 0-115.506 0C1.008 0 0 1.007 0 2.246L0 41.493C0 41.773 0.228 42 0.508 42l118.985 0C119.772 42 120 41.773 120 41.493L120 2.246C120 1.007 118.992 0 117.753 0zm-115.506 1.014 115.506 0c0.679 0 1.232 0.553 1.232 1.232 0 0 0 15.785 0 27.209l-82.557 0c-3.026 5.471-8.856 9.185-15.546 9.185-6.693 0-12.522-3.711-15.546-9.185l-4.32 0c0-11.424 0-27.209 0-27.209 0-0.679 0.553-1.232 1.232-1.232z"/><path d="m68.781 36.736c0-0.165-0.04-0.343-0.119-0.531-0.08-0.189-0.186-0.366-0.318-0.531-0.132-0.166-0.281-0.303-0.447-0.412-0.166-0.109-0.338-0.164-0.517-0.164-0.033 0-0.096-0.018-0.189-0.055-0.093-0.036-0.146-0.068-0.159-0.094 0.232-0.126 0.399-0.218 0.502-0.278 0.103-0.06 0.185-0.118 0.248-0.174 0.063-0.056 0.129-0.127 0.199-0.214 0.07-0.086 0.19-0.219 0.363-0.397 0.053 0.013 0.079-0.013 0.079-0.079l0-0.298c-0.033-0.046-0.056-0.103-0.07-0.169-0.013-0.066-0.02-0.129-0.02-0.189 0-0.026 0.002-0.056 0.005-0.089 0.003-0.033 0.022-0.056 0.055-0.069-0.06-0.179-0.132-0.351-0.219-0.517-0.086-0.165-0.192-0.313-0.318-0.442-0.126-0.129-0.273-0.232-0.442-0.308-0.169-0.076-0.359-0.114-0.571-0.114-0.026 0-0.071-0.007-0.134-0.02-0.063-0.013-0.134-0.03-0.214-0.05-0.079-0.02-0.162-0.036-0.248-0.05-0.086-0.013-0.166-0.02-0.239-0.02-0.232 0-0.459 0.03-0.68 0.089-0.222 0.06-0.442 0.089-0.66 0.089-0.212 0-0.424-0.007-0.636-0.02-0.212-0.013-0.424-0.02-0.636-0.02-0.106 0-0.208-0.023-0.308-0.07-0.099-0.046-0.189-0.07-0.268-0.07-0.046 0-0.091 0.03-0.134 0.089-0.043 0.06-0.065 0.109-0.065 0.149 0.093 0.046 0.186 0.086 0.278 0.119 0.093 0.033 0.182 0.076 0.268 0.129 0.033 0.172 0.081 0.349 0.144 0.531 0.063 0.182 0.094 0.359 0.094 0.531 0 0.073-0.017 0.166-0.05 0.278-0.033 0.113-0.07 0.195-0.109 0.248 0.007 0.053 0.015 0.154 0.025 0.303 0.01 0.149 0.013 0.303 0.01 0.462-0.003 0.159-0.018 0.301-0.045 0.427-0.026 0.126-0.073 0.189-0.139 0.189 0.073 0.232 0.143 0.488 0.209 0.77 0.066 0.281 0.099 0.545 0.099 0.789 0 0.066-0.013 0.142-0.04 0.229-0.026 0.086-0.056 0.177-0.089 0.273-0.033 0.096-0.063 0.195-0.089 0.298-0.026 0.103-0.04 0.204-0.04 0.303 0 0.046 0 0.093 0 0.139 0 0.04 0.007 0.083 0.02 0.129-0.026 0.079-0.043 0.162-0.05 0.248-0.007 0.086-0.013 0.172-0.02 0.258-0.007 0.086-0.017 0.169-0.03 0.248-0.013 0.08-0.036 0.159-0.069 0.238-0.02 0.053-0.061 0.096-0.124 0.129-0.063 0.033-0.127 0.065-0.194 0.094-0.066 0.03-0.126 0.065-0.179 0.104-0.053 0.04-0.083 0.089-0.089 0.149 0.033 0.02 0.068 0.045 0.104 0.074 0.036 0.03 0.078 0.045 0.124 0.045 0.06 0 0.142-0.01 0.248-0.03 0.106-0.02 0.223-0.04 0.353-0.06 0.129-0.02 0.262-0.04 0.397-0.06 0.136-0.02 0.267-0.03 0.392-0.03 0.232 0 0.469 0.02 0.71 0.06 0.242 0.04 0.482 0.06 0.72 0.06 0.06 0 0.185-0.01 0.377-0.03 0.192-0.02 0.394-0.045 0.606-0.075 0.212-0.03 0.407-0.06 0.586-0.089 0.179-0.03 0.285-0.055 0.318-0.074 0.126-0.073 0.263-0.171 0.412-0.293 0.149-0.122 0.286-0.258 0.412-0.407 0.126-0.149 0.23-0.306 0.313-0.472 0.083-0.165 0.124-0.324 0.124-0.477 0-0.046-0.002-0.093-0.005-0.139-0.003-0.046-0.008-0.096-0.015-0.149l0.04-0.099c0.066-0.066 0.108-0.117 0.124-0.154 0.017-0.036 0.025-0.101 0.025-0.194zm-1.639-3.536c-0.033 0.318-0.084 0.576-0.154 0.775-0.07 0.199-0.157 0.356-0.263 0.472-0.106 0.116-0.227 0.199-0.363 0.248-0.136 0.05-0.291 0.086-0.467 0.109-0.176 0.023-0.369 0.04-0.581 0.05-0.212 0.01-0.44 0.031-0.685 0.065-0.053-0.318-0.086-0.631-0.099-0.939-0.013-0.308-0.046-0.621-0.099-0.939 0.053-0.113 0.093-0.242 0.119-0.387 0.026-0.146 0.04-0.281 0.04-0.407 0.053-0.04 0.108-0.081 0.164-0.124 0.056-0.043 0.111-0.091 0.164-0.144 0.073-0.007 0.144-0.017 0.213-0.03 0.07-0.013 0.141-0.02 0.214-0.02 0.099 0 0.203 0.017 0.313 0.05 0.109 0.033 0.22 0.05 0.333 0.05 0.172 0 0.315 0.038 0.427 0.114 0.113 0.076 0.21 0.172 0.293 0.288 0.083 0.116 0.157 0.242 0.223 0.377 0.066 0.136 0.136 0.266 0.209 0.392zm0.576 3.983-0.079 0.089c-0.093 0.033-0.167 0.084-0.224 0.154-0.056 0.07-0.104 0.147-0.144 0.233-0.04 0.086-0.081 0.172-0.124 0.258-0.043 0.086-0.098 0.159-0.164 0.219-0.066 0.06-0.126 0.123-0.179 0.189-0.053 0.066-0.113 0.126-0.179 0.179-0.033 0.033-0.088 0.075-0.164 0.124-0.076 0.05-0.137 0.075-0.184 0.075-0.02 0-0.03 0.003-0.03 0.01 0 0.013 0.007 0.027 0.02 0.04 0.013 0.013 0.003 0.02-0.03 0.02-0.106 0-0.213 0.018-0.323 0.055-0.109 0.036-0.19 0.055-0.243 0.055-0.046 0-0.083-0.018-0.109-0.055-0.026-0.036-0.063-0.055-0.109-0.055-0.06 0-0.126 0.003-0.199 0.01-0.073 0.007-0.149 0.01-0.228 0.01-0.073 0-0.142-0.01-0.209-0.03-0.066-0.02-0.119-0.056-0.159-0.109-0.026-0.325-0.05-0.656-0.07-0.993-0.02-0.338-0.07-0.665-0.149-0.983l0.119-0.01c0.033-0.132 0.05-0.255 0.05-0.367 0-0.133-0.007-0.272-0.02-0.417-0.013-0.146 0.027-0.275 0.119-0.388 0.099 0.02 0.185 0.027 0.258 0.02 0.073-0.007 0.141-0.017 0.204-0.03 0.063-0.013 0.128-0.026 0.194-0.04 0.066-0.013 0.142-0.02 0.228-0.02 0.06 0 0.099 0.033 0.119 0.099 0.073-0.02 0.144-0.02 0.214 0 0.07 0.02 0.141 0.037 0.213 0.05 0.113 0.026 0.227 0.041 0.343 0.045 0.116 0.003 0.224 0.038 0.323 0.104 0.026 0.02 0.07 0.066 0.129 0.139 0.06 0.073 0.121 0.151 0.184 0.234 0.063 0.083 0.117 0.164 0.164 0.243 0.046 0.079 0.076 0.136 0.089 0.169l0 0.02c0.007 0.093 0.005 0.172-0.005 0.238-0.01 0.066-0.01 0.124 0 0.174 0.01 0.05 0.04 0.093 0.089 0.129 0.05 0.036 0.137 0.074 0.263 0.114zM76.435 31.562l0-0.079-0.03-0.04-0.119-0.089c-0.232 0.033-0.465 0.065-0.7 0.094-0.235 0.03-0.468 0.055-0.7 0.074l-0.079-0.04c-0.172 0.007-0.343 0.003-0.512-0.01-0.169-0.013-0.339-0.023-0.512-0.03-0.04-0.007-0.07 0.008-0.089 0.045-0.02 0.036-0.04 0.068-0.06 0.094l0 0.109c0.093 0.073 0.189 0.131 0.288 0.174 0.099 0.043 0.195 0.094 0.288 0.154 0.013 0.02 0.045 0.033 0.094 0.04 0.05 0.007 0.081 0.02 0.094 0.04 0.027 0.066 0.02 0.171-0.02 0.313-0.04 0.142-0.104 0.301-0.194 0.477-0.089 0.175-0.194 0.362-0.313 0.561-0.119 0.199-0.243 0.391-0.373 0.576-0.129 0.185-0.255 0.354-0.377 0.507-0.122 0.152-0.23 0.272-0.323 0.358-0.186-0.232-0.354-0.46-0.507-0.685-0.152-0.225-0.301-0.455-0.447-0.69-0.146-0.235-0.291-0.478-0.437-0.73-0.146-0.252-0.301-0.52-0.467-0.804 0.02-0.02 0.021-0.045 0.005-0.075-0.016-0.03-0.008-0.045 0.025-0.045 0.053 0 0.109 0.008 0.169 0.025 0.06 0.017 0.119 0.025 0.179 0.025 0.04-0.026 0.068-0.051 0.085-0.074 0.017-0.023 0.03-0.048 0.04-0.074 0.01-0.026 0.02-0.05 0.03-0.07 0.01-0.02 0.031-0.037 0.065-0.05-0.033-0.033-0.07-0.066-0.109-0.099-0.04-0.033-0.083-0.06-0.129-0.079l-0.159 0.04-0.06-0.02c-0.113 0.013-0.238 0.042-0.377 0.085-0.139 0.043-0.262 0.065-0.368 0.065l-0.487 0c-0.113-0.04-0.248-0.071-0.407-0.094-0.159-0.023-0.298-0.035-0.417-0.035-0.033 0-0.066 0.023-0.099 0.069-0.033 0.046-0.056 0.086-0.069 0.119 0 0.066 0.023 0.116 0.07 0.149 0.046 0.033 0.103 0.06 0.169 0.079 0.066 0.02 0.129 0.041 0.189 0.065 0.06 0.023 0.106 0.058 0.139 0.104 0.099 0.073 0.2 0.149 0.303 0.229 0.103 0.079 0.19 0.165 0.263 0.258 0.073 0.093 0.126 0.194 0.159 0.303 0.033 0.109 0.086 0.214 0.159 0.313 0.113 0.146 0.248 0.333 0.407 0.561 0.159 0.228 0.318 0.469 0.477 0.72 0.159 0.252 0.303 0.498 0.432 0.74 0.129 0.242 0.223 0.445 0.283 0.611 0.02 0.053 0.05 0.099 0.089 0.139 0.04 0.04 0.079 0.079 0.119 0.119-0.02 0.026-0.038 0.053-0.055 0.079-0.017 0.026-0.025 0.056-0.025 0.089l0.01 0.01-0.049 0.109c0.02 0.113 0.045 0.228 0.074 0.348 0.03 0.119 0.045 0.235 0.045 0.348 0 0.258-0.012 0.538-0.035 0.839-0.023 0.301-0.065 0.578-0.124 0.829-0.027 0.113-0.076 0.199-0.149 0.258-0.073 0.06-0.147 0.104-0.223 0.134-0.076 0.03-0.144 0.055-0.204 0.074-0.06 0.02-0.089 0.046-0.089 0.079 0 0.013 0.003 0.027 0.01 0.04 0.007 0.013 0.013 0.026 0.02 0.04 0.033 0.007 0.066 0.015 0.099 0.025 0.033 0.01 0.066 0.025 0.099 0.045 0.02-0.013 0.069-0.032 0.149-0.055 0.079-0.023 0.129-0.035 0.149-0.035 0.033 0 0.066 0 0.099 0 0.04 0 0.076 0.007 0.109 0.02l0.06-0.059c0.298-0.007 0.581 0.012 0.849 0.055 0.268 0.043 0.545 0.068 0.829 0.075 0-0.026 0.003-0.053 0.01-0.08 0.007-0.027 0.01-0.053 0.01-0.08 0-0.026 0-0.05 0-0.069 0-0.02-0.013-0.036-0.04-0.05-0.219-0.046-0.369-0.121-0.452-0.223-0.083-0.103-0.124-0.28-0.124-0.531 0-0.026 0.003-0.051 0.01-0.075 0.007-0.023 0.01-0.048 0.01-0.075l-0.109-0.01-0.03-0.049 0.149-0.298c-0.027-0.053-0.052-0.109-0.075-0.169-0.023-0.06-0.035-0.116-0.035-0.169 0-0.113 0.018-0.227 0.055-0.343 0.036-0.116 0.055-0.233 0.055-0.353 0-0.225-0.007-0.45-0.02-0.675-0.013-0.225-0.023-0.454-0.03-0.685 0.093-0.119 0.208-0.288 0.348-0.506 0.139-0.219 0.288-0.455 0.447-0.71 0.159-0.255 0.324-0.518 0.497-0.79 0.172-0.271 0.341-0.518 0.507-0.74 0.166-0.222 0.323-0.409 0.472-0.561 0.149-0.152 0.28-0.238 0.393-0.258 0.02-0.007 0.064-0.025 0.134-0.055 0.07-0.03 0.141-0.065 0.214-0.104 0.073-0.04 0.137-0.079 0.194-0.119 0.056-0.04 0.084-0.07 0.084-0.09z" class="sf"/><path d="m98.292 32.166 0-0.123c-0.082-0.035-0.167-0.052-0.254-0.052-0.117 0-0.247 0.02-0.39 0.061-0.143 0.041-0.274 0.076-0.39 0.105-0.035-0.012-0.088-0.02-0.158-0.026-0.07-0.006-0.146-0.009-0.228-0.009-0.076 0-0.151-0.001-0.224-0.004-0.073-0.003-0.13-0.004-0.171-0.004-0.047-0.023-0.088-0.035-0.123-0.035-0.012 0-0.024 0.003-0.035 0.009-0.012 0.006-0.02-0.003-0.026-0.026-0.041 0-0.079-0.003-0.114-0.009-0.035-0.006-0.07-0.009-0.105-0.009-0.035 0-0.073 0.021-0.114 0.061-0.041 0.041-0.061 0.079-0.061 0.114 0 0.035 0.012 0.067 0.035 0.096 0.023 0.029 0.044 0.059 0.061 0.088 0.129 0.006 0.25 0.025 0.364 0.057 0.114 0.032 0.214 0.079 0.298 0.14 0.085 0.061 0.149 0.142 0.193 0.241 0.044 0.099 0.06 0.219 0.048 0.36l0 0.044 0.018 0.044 0.079 0.079c-0.111 0.334-0.17 0.68-0.176 1.04-0.006 0.36-0.009 0.715-0.009 1.066 0 0.117 0.018 0.231 0.053 0.342 0.035 0.111 0.056 0.222 0.061 0.334-0.029 0.058-0.053 0.108-0.07 0.149-0.018 0.041-0.026 0.094-0.026 0.158 0 0.082 0.006 0.169 0.018 0.263 0.012 0.094-0.006 0.181-0.053 0.263-0.023-0.029-0.066-0.091-0.127-0.184-0.061-0.094-0.133-0.199-0.215-0.316-0.082-0.117-0.167-0.24-0.255-0.369-0.088-0.129-0.171-0.246-0.25-0.351-0.079-0.105-0.146-0.193-0.202-0.263-0.056-0.07-0.092-0.105-0.11-0.105-0.029-0.047-0.056-0.089-0.079-0.127-0.023-0.038-0.047-0.08-0.07-0.127l-0.114-0.088c0.006-0.094-0.012-0.171-0.053-0.233-0.041-0.061-0.086-0.114-0.136-0.158-0.05-0.044-0.095-0.083-0.136-0.119-0.041-0.035-0.061-0.076-0.061-0.123-0.035-0.076-0.076-0.151-0.123-0.224-0.047-0.073-0.095-0.145-0.145-0.215-0.05-0.07-0.095-0.143-0.136-0.219-0.041-0.076-0.073-0.155-0.097-0.237-0.012 0.018-0.025 0.037-0.039 0.057-0.015 0.021-0.031 0.031-0.048 0.031l-0.009-0.009c0-0.029-0.019-0.089-0.057-0.18-0.038-0.091-0.088-0.193-0.149-0.307-0.061-0.114-0.129-0.233-0.202-0.355-0.073-0.123-0.145-0.235-0.215-0.338-0.07-0.102-0.134-0.186-0.193-0.25-0.058-0.064-0.102-0.097-0.132-0.097-0.129 0.012-0.266 0.029-0.413 0.053-0.146 0.023-0.287 0.032-0.421 0.026-0.082-0.006-0.174-0.013-0.277-0.022-0.102-0.009-0.208-0.019-0.316-0.031-0.108-0.012-0.212-0.022-0.311-0.031-0.099-0.009-0.181-0.013-0.246-0.013-0.059 0-0.114 0.032-0.167 0.097-0.053 0.064-0.079 0.12-0.079 0.167 0 0.041 0.02 0.07 0.061 0.088 0.041 0.018 0.091 0.029 0.149 0.035 0.059 0.006 0.114 0.009 0.167 0.009 0.058 0 0.102 0.003 0.132 0.009 0.094 0.018 0.168 0.054 0.224 0.11 0.056 0.056 0.1 0.12 0.132 0.193 0.032 0.073 0.054 0.152 0.066 0.237 0.012 0.085 0.018 0.168 0.018 0.25l-0.07 0.132 0 3.265c0.018 0.029 0.038 0.076 0.062 0.14 0.023 0.064 0.035 0.111 0.035 0.14 0 0.164-0.018 0.326-0.053 0.487-0.035 0.161-0.053 0.32-0.053 0.478 0 0.029 0.001 0.057 0.004 0.083 0.003 0.026 0.007 0.054 0.013 0.083-0.006 0.076-0.016 0.151-0.031 0.224-0.015 0.073-0.034 0.145-0.057 0.215-0.012 0.029-0.05 0.051-0.114 0.066-0.064 0.015-0.136 0.032-0.215 0.053-0.079 0.021-0.149 0.045-0.211 0.075-0.061 0.029-0.092 0.07-0.092 0.123 0 0.053 0.028 0.105 0.083 0.158 0.056 0.053 0.107 0.085 0.154 0.096l0.053-0.044c0.129-0.029 0.259-0.051 0.39-0.066 0.132-0.015 0.265-0.028 0.399-0.04 0.023 0.012 0.051 0.022 0.083 0.031 0.032 0.009 0.063 0.004 0.092-0.013 0.099 0.012 0.209 0.034 0.329 0.066 0.12 0.032 0.23 0.048 0.329 0.048 0.047 0 0.091-0.028 0.132-0.083 0.041-0.056 0.076-0.098 0.105-0.127-0.058-0.094-0.112-0.149-0.162-0.167-0.05-0.017-0.124-0.038-0.224-0.062l-0.035 0-0.061-0.061c-0.07 0.023-0.127 0.006-0.171-0.053-0.044-0.058-0.078-0.137-0.101-0.237-0.023-0.099-0.038-0.214-0.044-0.342-0.006-0.129-0.009-0.252-0.009-0.369 0-0.123 0.001-0.234 0.004-0.334 0.003-0.099 0.004-0.17 0.004-0.211l-0.079 0c0.029-0.094 0.057-0.219 0.083-0.377 0.026-0.158 0.04-0.287 0.04-0.386 0-0.041-0.009-0.083-0.026-0.127-0.017-0.044-0.035-0.083-0.053-0.118l0.062-0.123c0.012-0.222 0.029-0.445 0.053-0.667 0.023-0.222 0.035-0.442 0.035-0.658-0.035-0.088-0.076-0.179-0.123-0.272 0.041-0.047 0.067-0.124 0.079-0.233 0.012-0.108 0.018-0.227 0.018-0.355 0-0.129 0.002-0.26 0.004-0.395 0.003-0.135 0.013-0.252 0.031-0.351 0.076 0.088 0.139 0.171 0.189 0.25 0.05 0.079 0.099 0.158 0.149 0.237 0.05 0.079 0.105 0.159 0.167 0.241 0.061 0.082 0.142 0.173 0.242 0.272 0.012 0.012 0.019 0.041 0.022 0.088 0.003 0.047 0.01 0.085 0.022 0.114 0.035 0.07 0.078 0.136 0.127 0.197 0.05 0.061 0.092 0.124 0.127 0.189 0.064 0.023 0.096 0.067 0.096 0.132l0 0.035c0.135 0.211 0.269 0.423 0.404 0.636 0.135 0.214 0.278 0.423 0.43 0.628 0.012 0.012 0.035 0.042 0.07 0.092 0.035 0.05 0.058 0.075 0.07 0.075l0.027 0c0.117 0.199 0.238 0.404 0.364 0.614 0.126 0.211 0.268 0.401 0.426 0.57l0.026-0.018c0.064 0.135 0.123 0.241 0.175 0.32 0.053 0.079 0.105 0.152 0.158 0.219 0.053 0.067 0.108 0.134 0.167 0.202 0.058 0.067 0.126 0.154 0.202 0.259 0 0.018 0.002 0.034 0.004 0.048 0.003 0.015 0.002 0.028-0.004 0.039l0.053 0.088 0.009 0c0.017 0.041 0.051 0.119 0.101 0.233 0.05 0.114 0.105 0.231 0.167 0.351 0.061 0.12 0.124 0.227 0.189 0.32 0.064 0.094 0.12 0.14 0.167 0.14 0.012 0 0.025-0.003 0.04-0.009 0.015-0.006 0.028-0.012 0.039-0.018l0.044-0.044c0.006-0.041 0.018-0.079 0.035-0.114 0.018-0.035 0.026-0.073 0.026-0.114 0-0.521-0.001-1.034-0.004-1.54-0.003-0.506 0.01-1.022 0.04-1.549 0.012-0.117 0.025-0.237 0.039-0.36 0.015-0.123 0.022-0.246 0.022-0.369 0-0.082-0.013-0.161-0.04-0.237-0.026-0.076-0.04-0.155-0.039-0.237 0-0.07 0.004-0.14 0.013-0.211 0.009-0.07 0.013-0.138 0.013-0.202 0-0.041-0.003-0.082-0.009-0.123-0.006-0.041-0.015-0.076-0.026-0.105 0.018-0.047 0.034-0.124 0.048-0.233 0.015-0.108 0.029-0.23 0.044-0.364 0.015-0.135 0.031-0.272 0.048-0.412 0.018-0.14 0.041-0.269 0.07-0.386 0.029-0.117 0.066-0.214 0.11-0.29 0.044-0.076 0.095-0.114 0.154-0.114 0.006 0 0.006 0.003 0 0.009-0.006 0.006-0.012 0.009-0.018 0.009l-0.009-0.044-0.009-0.017 0.044-0.009-0.009 0.009-0.027 0.009 0 0.009 0.062 0.018c0.023-0.018 0.056-0.04 0.097-0.066 0.041-0.026 0.08-0.054 0.119-0.083 0.038-0.029 0.075-0.06 0.11-0.092 0.035-0.032 0.058-0.057 0.07-0.075zM104.597 31.394c-0.018-0.029-0.043-0.061-0.075-0.096-0.032-0.035-0.066-0.053-0.101-0.053-0.076 0-0.136 0.042-0.18 0.127-0.044 0.085-0.085 0.18-0.123 0.285-0.038 0.105-0.077 0.2-0.119 0.285-0.041 0.085-0.091 0.127-0.149 0.127-0.211 0-0.424-0.022-0.641-0.066-0.216-0.044-0.433-0.066-0.65-0.066-0.105 0-0.218 0.022-0.338 0.066-0.12 0.044-0.227 0.066-0.32 0.066-0.298 0-0.573 0.051-0.825 0.153-0.252 0.102-0.5 0.238-0.746 0.408-0.006 0.012-0.013 0.016-0.022 0.013-0.009-0.003-0.013-0.01-0.013-0.022 0-0.012 0-0.018 0-0.018 0.006 0-0.006 0-0.035 0-0.099 0-0.208 0.038-0.325 0.114-0.117 0.076-0.233 0.176-0.347 0.298-0.114 0.123-0.225 0.26-0.333 0.413-0.108 0.152-0.205 0.304-0.29 0.456-0.085 0.152-0.151 0.295-0.198 0.43-0.047 0.135-0.07 0.249-0.07 0.342l0 0.035c-0.029 0.041-0.063 0.076-0.101 0.105-0.038 0.029-0.069 0.067-0.092 0.114 0.018 0.088 0.019 0.168 0.004 0.241-0.015 0.073-0.034 0.145-0.057 0.215-0.023 0.07-0.045 0.142-0.066 0.215-0.02 0.073-0.031 0.154-0.031 0.241 0 0.082 0.02 0.212 0.061 0.391 0.041 0.178 0.092 0.364 0.153 0.557 0.061 0.193 0.127 0.37 0.198 0.531 0.07 0.161 0.138 0.262 0.202 0.303l0.114 0.07-0.035 0.097c0 0.047 0.016 0.101 0.048 0.162 0.032 0.061 0.069 0.123 0.11 0.184 0.041 0.061 0.085 0.118 0.132 0.171 0.047 0.053 0.088 0.097 0.123 0.132l0.114-0.035c0.105 0.082 0.212 0.161 0.32 0.237 0.108 0.076 0.221 0.146 0.338 0.211l0.07-0.07 0.114 0c0.023 0.029 0.061 0.06 0.114 0.092 0.053 0.032 0.108 0.063 0.167 0.092 0.059 0.029 0.117 0.054 0.176 0.075 0.059 0.021 0.108 0.031 0.149 0.031 0.07 0 0.142 0.004 0.215 0.013 0.073 0.009 0.148 0.013 0.224 0.013 0.023 0 0.035 0.003 0.035 0.009 0 0.012-0.003 0.019-0.009 0.022-0.006 0.003 0.006 0.004 0.035 0.004 0.146 0 0.292-0.015 0.439-0.044 0.146-0.029 0.29-0.06 0.43-0.092 0.14-0.032 0.281-0.062 0.421-0.088 0.14-0.026 0.281-0.037 0.421-0.031l0.026 0c0.018-0.035 0.045-0.063 0.083-0.083 0.038-0.02 0.079-0.037 0.123-0.048 0.044-0.012 0.089-0.019 0.136-0.022 0.047-0.003 0.088-0.004 0.123-0.004 0.047 0 0.089 0.038 0.127 0.114 0.038 0.076 0.073 0.162 0.105 0.259 0.032 0.097 0.061 0.192 0.088 0.285 0.026 0.094 0.054 0.158 0.083 0.193l0.263 0c0.006-0.035 0.019-0.069 0.04-0.101 0.02-0.032 0.031-0.066 0.031-0.101 0-0.088-0.015-0.177-0.044-0.268-0.029-0.091-0.061-0.181-0.097-0.272-0.035-0.091-0.067-0.183-0.096-0.277-0.029-0.094-0.044-0.184-0.044-0.272 0-0.117 0.012-0.234 0.035-0.351 0.024-0.117 0.048-0.234 0.075-0.351 0.026-0.117 0.051-0.233 0.075-0.347 0.023-0.114 0.035-0.227 0.035-0.338 0-0.041-0.001-0.083-0.004-0.127-0.003-0.044-0.016-0.083-0.039-0.118-0.088 0.006-0.17 0.041-0.246 0.105-0.076 0.064-0.114 0.146-0.114 0.246l0 0.035c-0.047 0.064-0.07 0.137-0.07 0.219 0 0.076-0.006 0.149-0.017 0.219-0.012 0.047-0.067 0.123-0.167 0.228-0.099 0.105-0.211 0.214-0.333 0.325-0.123 0.111-0.241 0.208-0.355 0.29-0.114 0.082-0.195 0.123-0.241 0.123-0.035 0-0.067 0.01-0.097 0.031-0.029 0.02-0.061 0.031-0.096 0.031-0.018 0-0.026 0.003-0.026 0.009 0 0.012 0.001 0.019 0.004 0.022 0.003 0.003-0.01 0.004-0.039 0.004-0.047 0-0.088-0.01-0.123-0.031-0.035-0.02-0.076-0.031-0.123-0.031-0.029 0-0.053 0.004-0.07 0.013-0.018 0.009-0.038 0.013-0.061 0.013l-0.061 0.061c-0.117-0.029-0.241-0.06-0.373-0.092-0.132-0.032-0.256-0.051-0.373-0.057l-0.07-0.07c-0.035 0.012-0.072 0.024-0.11 0.035-0.038 0.012-0.075 0.018-0.11 0.018-0.017 0-0.032 0.001-0.044 0.004-0.012 0.003-0.023-0.001-0.035-0.013 0.018-0.029-0.013-0.095-0.092-0.198-0.079-0.102-0.171-0.212-0.277-0.329-0.105-0.117-0.211-0.227-0.316-0.329-0.105-0.102-0.175-0.171-0.211-0.206l-0.096 0.018-0.053-0.053 0.097-0.123c-0.035-0.076-0.075-0.176-0.119-0.298-0.044-0.123-0.085-0.25-0.123-0.382-0.038-0.132-0.07-0.259-0.096-0.382-0.026-0.123-0.039-0.225-0.039-0.307 0-0.176 0.016-0.357 0.048-0.544 0.032-0.187 0.077-0.371 0.136-0.553 0.058-0.181 0.124-0.358 0.198-0.531 0.073-0.173 0.154-0.335 0.241-0.487l0.009-0.14c0.023-0.017 0.075-0.057 0.154-0.118 0.079-0.061 0.171-0.133 0.276-0.215 0.105-0.082 0.215-0.167 0.329-0.255 0.114-0.088 0.222-0.168 0.325-0.241 0.102-0.073 0.189-0.133 0.259-0.18 0.07-0.047 0.114-0.07 0.132-0.07 0.064 0 0.126 0.01 0.184 0.031 0.059 0.02 0.12 0.031 0.184 0.031 0.076 0 0.151-0.006 0.224-0.018 0.073-0.012 0.151-0.018 0.233-0.018 0.099 0 0.225 0.025 0.377 0.075 0.152 0.05 0.3 0.116 0.443 0.197 0.143 0.082 0.266 0.175 0.369 0.281 0.102 0.105 0.154 0.217 0.154 0.333l-0.009 0.044c0.029 0.059 0.051 0.119 0.066 0.18 0.015 0.061 0.039 0.116 0.075 0.162-0.047 0.023-0.053 0.053-0.017 0.088 0.035 0.035 0.064 0.053 0.088 0.053l0.114 0c0.023-0.023 0.051-0.05 0.083-0.079 0.032-0.029 0.048-0.064 0.048-0.105 0-0.158-0.026-0.317-0.079-0.478-0.053-0.161-0.079-0.32-0.079-0.478 0-0.146 0.007-0.275 0.022-0.386 0.015-0.111 0.035-0.218 0.062-0.32 0.026-0.102 0.061-0.205 0.105-0.307 0.044-0.102 0.098-0.215 0.162-0.338z" class="sf"/><path d="m31.96815 20.19342a10.384086 13.647655 0 1 1-20.768171 0 10.384086 13.647655 0 1 1 20.768171 0z" transform="matrix(1.0392857,0,0,1.0108696,-0.58834325,-1.1095582)" style="fill-opacity:1;fill-rule:nonzero;fill:#fff"/><path d="m21.523 14.453c-0.022-0.036-0.053-0.076-0.093-0.12-0.04-0.044-0.082-0.065-0.125-0.065-0.094 0-0.169 0.053-0.223 0.158-0.054 0.105-0.105 0.223-0.152 0.354-0.047 0.131-0.096 0.249-0.147 0.354-0.051 0.105-0.113 0.158-0.185 0.158-0.261 0-0.526-0.027-0.795-0.082-0.269-0.054-0.537-0.082-0.806-0.082-0.13 0-0.27 0.027-0.419 0.082-0.149 0.055-0.281 0.082-0.397 0.082-0.37 0-0.711 0.063-1.023 0.19-0.312 0.127-0.621 0.296-0.926 0.506-0.007 0.014-0.016 0.02-0.027 0.016-0.011-0.004-0.016-0.013-0.016-0.027 0-0.015 0-0.022 0-0.022 0.007 0-0.007 0-0.044 0-0.123 0-0.258 0.047-0.403 0.142-0.145 0.094-0.289 0.218-0.43 0.37-0.142 0.153-0.279 0.323-0.414 0.512-0.134 0.189-0.254 0.377-0.359 0.566-0.105 0.189-0.187 0.366-0.245 0.533-0.058 0.167-0.087 0.309-0.087 0.425l0 0.044c-0.036 0.051-0.078 0.095-0.125 0.131-0.047 0.036-0.085 0.083-0.114 0.141 0.022 0.109 0.023 0.209 0.005 0.3-0.018 0.091-0.042 0.18-0.071 0.267-0.029 0.087-0.056 0.176-0.082 0.267-0.025 0.091-0.038 0.191-0.038 0.299 0 0.102 0.025 0.263 0.076 0.485 0.051 0.221 0.114 0.452 0.19 0.691 0.076 0.24 0.158 0.459 0.245 0.659 0.087 0.2 0.171 0.325 0.25 0.375l0.142 0.087-0.044 0.12c0 0.058 0.02 0.125 0.06 0.201 0.04 0.076 0.085 0.152 0.136 0.229 0.051 0.076 0.105 0.147 0.163 0.212 0.058 0.065 0.109 0.12 0.152 0.163l0.142-0.044c0.131 0.102 0.263 0.2 0.398 0.294 0.134 0.094 0.274 0.182 0.419 0.262l0.087-0.087 0.142 0c0.029 0.036 0.076 0.074 0.142 0.114 0.065 0.04 0.134 0.078 0.207 0.114 0.073 0.036 0.145 0.067 0.218 0.093 0.073 0.025 0.134 0.038 0.185 0.038 0.087 0 0.176 0.005 0.267 0.016 0.091 0.011 0.183 0.016 0.278 0.016 0.029 0 0.044 0.004 0.044 0.011 0 0.014-0.004 0.023-0.011 0.027-0.007 0.004 0.007 0.006 0.044 0.006 0.181 0 0.363-0.018 0.544-0.054 0.181-0.036 0.359-0.074 0.533-0.114 0.174-0.04 0.348-0.076 0.523-0.109 0.174-0.033 0.349-0.045 0.523-0.038l0.033 0c0.022-0.044 0.056-0.078 0.103-0.104 0.047-0.025 0.098-0.045 0.153-0.06 0.054-0.015 0.111-0.024 0.169-0.027 0.058-0.004 0.109-0.005 0.153-0.005 0.058 0 0.111 0.047 0.158 0.142 0.047 0.094 0.091 0.201 0.131 0.321 0.04 0.12 0.076 0.238 0.109 0.354 0.033 0.116 0.067 0.196 0.104 0.24l0.327 0c0.007-0.044 0.024-0.085 0.049-0.125 0.025-0.04 0.038-0.082 0.038-0.125 0-0.109-0.018-0.22-0.054-0.332-0.036-0.112-0.076-0.225-0.12-0.337-0.044-0.113-0.083-0.227-0.12-0.343-0.036-0.116-0.054-0.229-0.054-0.337 0-0.145 0.015-0.291 0.044-0.436 0.029-0.145 0.06-0.29 0.093-0.435 0.033-0.145 0.064-0.289 0.093-0.43 0.029-0.142 0.044-0.281 0.044-0.419 0-0.051-0.002-0.103-0.005-0.158-0.004-0.054-0.02-0.103-0.049-0.147-0.109 0.007-0.211 0.051-0.305 0.131-0.094 0.08-0.142 0.181-0.142 0.305l0 0.044c-0.058 0.08-0.087 0.17-0.087 0.272 0 0.094-0.007 0.185-0.022 0.272-0.015 0.058-0.084 0.152-0.207 0.283-0.123 0.131-0.261 0.265-0.414 0.403-0.152 0.138-0.299 0.258-0.441 0.359-0.142 0.102-0.241 0.153-0.299 0.153-0.044 0-0.084 0.013-0.12 0.038-0.036 0.025-0.076 0.038-0.12 0.038-0.022 0-0.033 0.004-0.033 0.011 0 0.014 0.002 0.023 0.006 0.027 0.004 0.004-0.013 0.006-0.049 0.006-0.058 0-0.109-0.013-0.152-0.038-0.044-0.025-0.094-0.038-0.152-0.038-0.036 0-0.065 0.005-0.087 0.016-0.022 0.011-0.047 0.016-0.076 0.016l-0.076 0.076c-0.145-0.036-0.299-0.074-0.463-0.114-0.163-0.04-0.318-0.063-0.463-0.071l-0.087-0.087c-0.044 0.015-0.089 0.029-0.136 0.044-0.047 0.015-0.093 0.022-0.136 0.022-0.022 0-0.04 0.002-0.054 0.005-0.015 0.004-0.029-0.002-0.044-0.016 0.022-0.036-0.016-0.118-0.114-0.245-0.098-0.127-0.212-0.263-0.343-0.408-0.131-0.145-0.261-0.281-0.392-0.408-0.131-0.127-0.218-0.212-0.261-0.256l-0.12 0.022-0.065-0.065 0.12-0.153c-0.044-0.094-0.093-0.218-0.147-0.37-0.054-0.152-0.105-0.31-0.153-0.474-0.047-0.163-0.087-0.321-0.12-0.474-0.033-0.152-0.049-0.279-0.049-0.381 0-0.218 0.02-0.443 0.06-0.675 0.04-0.232 0.096-0.461 0.169-0.686 0.073-0.225 0.154-0.445 0.245-0.659 0.091-0.214 0.191-0.416 0.299-0.604l0.011-0.174c0.029-0.022 0.093-0.071 0.191-0.147 0.098-0.076 0.212-0.165 0.343-0.267 0.131-0.102 0.267-0.207 0.408-0.316 0.142-0.109 0.276-0.209 0.403-0.299 0.127-0.091 0.234-0.165 0.321-0.223 0.087-0.058 0.142-0.087 0.163-0.087 0.08 0 0.156 0.013 0.229 0.038 0.073 0.025 0.149 0.038 0.229 0.038 0.094 0 0.187-0.007 0.278-0.022 0.091-0.014 0.187-0.022 0.289-0.022 0.123 0 0.279 0.031 0.468 0.093 0.189 0.062 0.372 0.143 0.55 0.245 0.178 0.102 0.33 0.218 0.457 0.348 0.127 0.131 0.191 0.269 0.191 0.414l-0.011 0.054c0.036 0.073 0.064 0.147 0.082 0.223 0.018 0.076 0.049 0.143 0.093 0.201-0.058 0.029-0.065 0.065-0.022 0.109 0.044 0.044 0.08 0.065 0.109 0.065l0.142 0c0.029-0.029 0.064-0.062 0.104-0.098 0.04-0.036 0.06-0.08 0.06-0.131 0-0.196-0.033-0.394-0.098-0.593-0.065-0.2-0.098-0.397-0.098-0.593 0-0.182 0.009-0.341 0.027-0.479 0.018-0.138 0.044-0.27 0.076-0.397 0.033-0.127 0.076-0.254 0.131-0.381 0.054-0.127 0.122-0.267 0.202-0.419zM29.307 14.453c-0.022-0.036-0.053-0.076-0.093-0.12-0.04-0.044-0.082-0.065-0.125-0.065-0.094 0-0.169 0.053-0.223 0.158-0.054 0.105-0.105 0.223-0.152 0.354-0.047 0.131-0.096 0.249-0.147 0.354-0.051 0.105-0.113 0.158-0.185 0.158-0.261 0-0.526-0.027-0.795-0.082-0.269-0.054-0.537-0.082-0.806-0.082-0.13 0-0.27 0.027-0.419 0.082-0.149 0.055-0.281 0.082-0.397 0.082-0.37 0-0.711 0.063-1.023 0.19-0.312 0.127-0.621 0.296-0.926 0.506-0.007 0.014-0.016 0.02-0.027 0.016-0.011-0.004-0.016-0.013-0.016-0.027 0-0.015 0-0.022 0-0.022 0.007 0-0.007 0-0.044 0-0.123 0-0.258 0.047-0.403 0.142-0.145 0.094-0.289 0.218-0.43 0.37-0.142 0.153-0.279 0.323-0.414 0.512-0.134 0.189-0.254 0.377-0.359 0.566-0.105 0.189-0.187 0.366-0.245 0.533-0.058 0.167-0.087 0.309-0.087 0.425l0 0.044c-0.036 0.051-0.078 0.095-0.125 0.131-0.047 0.036-0.085 0.083-0.114 0.141 0.022 0.109 0.023 0.209 0.005 0.3-0.018 0.091-0.042 0.18-0.071 0.267-0.029 0.087-0.056 0.176-0.082 0.267-0.025 0.091-0.038 0.191-0.038 0.299 0 0.102 0.025 0.263 0.076 0.485 0.051 0.221 0.114 0.452 0.19 0.691 0.076 0.24 0.158 0.459 0.245 0.659 0.087 0.2 0.171 0.325 0.25 0.375l0.142 0.087-0.044 0.12c0 0.058 0.02 0.125 0.06 0.201 0.04 0.076 0.085 0.152 0.136 0.229 0.051 0.076 0.105 0.147 0.163 0.212 0.058 0.065 0.109 0.12 0.152 0.163l0.142-0.044c0.131 0.102 0.263 0.2 0.398 0.294 0.134 0.094 0.274 0.182 0.419 0.262l0.087-0.087 0.142 0c0.029 0.036 0.076 0.074 0.142 0.114 0.065 0.04 0.134 0.078 0.207 0.114 0.073 0.036 0.145 0.067 0.218 0.093 0.073 0.025 0.134 0.038 0.185 0.038 0.087 0 0.176 0.005 0.267 0.016 0.091 0.011 0.183 0.016 0.278 0.016 0.029 0 0.044 0.004 0.044 0.011 0 0.014-0.004 0.023-0.011 0.027-0.007 0.004 0.007 0.006 0.044 0.006 0.181 0 0.363-0.018 0.544-0.054 0.181-0.036 0.359-0.074 0.533-0.114 0.174-0.04 0.348-0.076 0.523-0.109 0.174-0.033 0.348-0.045 0.523-0.038l0.033 0c0.022-0.044 0.056-0.078 0.103-0.104 0.047-0.025 0.098-0.045 0.153-0.06 0.054-0.015 0.111-0.024 0.169-0.027 0.058-0.004 0.109-0.005 0.153-0.005 0.058 0 0.111 0.047 0.158 0.142 0.047 0.094 0.091 0.201 0.131 0.321 0.04 0.12 0.076 0.238 0.109 0.354 0.033 0.116 0.067 0.196 0.104 0.24l0.327 0c0.007-0.044 0.024-0.085 0.049-0.125 0.025-0.04 0.038-0.082 0.038-0.125 0-0.109-0.018-0.22-0.054-0.332-0.036-0.112-0.076-0.225-0.12-0.337-0.044-0.113-0.083-0.227-0.12-0.343-0.036-0.116-0.054-0.229-0.054-0.337 0-0.145 0.015-0.291 0.044-0.436 0.029-0.145 0.06-0.29 0.093-0.435 0.033-0.145 0.064-0.289 0.093-0.43 0.029-0.142 0.044-0.281 0.044-0.419 0-0.051-0.002-0.103-0.005-0.158-0.004-0.054-0.02-0.103-0.049-0.147-0.109 0.007-0.211 0.051-0.305 0.131-0.094 0.08-0.142 0.181-0.142 0.305l0 0.044c-0.058 0.08-0.087 0.17-0.087 0.272 0 0.094-0.007 0.185-0.022 0.272-0.015 0.058-0.084 0.152-0.207 0.283-0.123 0.131-0.261 0.265-0.414 0.403-0.152 0.138-0.299 0.258-0.441 0.359-0.142 0.102-0.241 0.153-0.299 0.153-0.044 0-0.084 0.013-0.12 0.038-0.036 0.025-0.076 0.038-0.12 0.038-0.022 0-0.033 0.004-0.033 0.011 0 0.014 0.002 0.023 0.006 0.027 0.004 0.004-0.013 0.006-0.049 0.006-0.058 0-0.109-0.013-0.152-0.038-0.044-0.025-0.094-0.038-0.152-0.038-0.036 0-0.065 0.005-0.087 0.016-0.022 0.011-0.047 0.016-0.076 0.016l-0.076 0.076c-0.145-0.036-0.299-0.074-0.463-0.114-0.163-0.04-0.318-0.063-0.463-0.071l-0.087-0.087c-0.044 0.015-0.089 0.029-0.136 0.044-0.047 0.015-0.093 0.022-0.136 0.022-0.022 0-0.04 0.002-0.054 0.005-0.015 0.004-0.029-0.002-0.044-0.016 0.022-0.036-0.016-0.118-0.114-0.245-0.098-0.127-0.212-0.263-0.343-0.408-0.131-0.145-0.261-0.281-0.392-0.408-0.131-0.127-0.218-0.212-0.261-0.256l-0.12 0.022-0.065-0.065 0.12-0.153c-0.044-0.094-0.093-0.218-0.147-0.37-0.054-0.152-0.105-0.31-0.153-0.474-0.047-0.163-0.087-0.321-0.12-0.474-0.033-0.152-0.049-0.279-0.049-0.381 0-0.218 0.02-0.443 0.06-0.675 0.04-0.232 0.096-0.461 0.169-0.686 0.073-0.225 0.154-0.445 0.245-0.659 0.091-0.214 0.191-0.416 0.299-0.604l0.011-0.174c0.029-0.022 0.093-0.071 0.191-0.147 0.098-0.076 0.212-0.165 0.343-0.267 0.131-0.102 0.267-0.207 0.408-0.316 0.142-0.109 0.276-0.209 0.403-0.299 0.127-0.091 0.234-0.165 0.321-0.223 0.087-0.058 0.142-0.087 0.163-0.087 0.08 0 0.156 0.013 0.229 0.038 0.073 0.025 0.149 0.038 0.229 0.038 0.094 0 0.187-0.007 0.278-0.022 0.091-0.014 0.187-0.022 0.289-0.022 0.123 0 0.279 0.031 0.468 0.093 0.189 0.062 0.372 0.143 0.55 0.245 0.178 0.102 0.33 0.218 0.457 0.348 0.127 0.131 0.191 0.269 0.191 0.414l-0.011 0.054c0.036 0.073 0.064 0.147 0.082 0.223 0.018 0.076 0.049 0.143 0.093 0.201-0.058 0.029-0.065 0.065-0.022 0.109 0.044 0.044 0.08 0.065 0.109 0.065l0.142 0c0.029-0.029 0.064-0.062 0.104-0.098 0.04-0.036 0.06-0.08 0.06-0.131 0-0.196-0.033-0.394-0.098-0.593-0.065-0.2-0.098-0.397-0.098-0.593 0-0.182 0.009-0.341 0.027-0.479 0.018-0.138 0.044-0.27 0.076-0.397 0.033-0.127 0.076-0.254 0.131-0.381 0.054-0.127 0.122-0.267 0.202-0.419zM37.681 18.25 37.681 18.25" class="s0"/><path d="m37.681 18.25c0-0.179-0.051-0.403-0.154-0.673-0.103-0.269-0.212-0.538-0.328-0.808-0.115-0.269-0.224-0.545-0.327-0.827-0.103-0.282-0.154-0.539-0.154-0.769 0-0.257 0.077-0.398 0.231-0.423 0.051-0.359-0.09-0.859-0.424-1.501C36.193 12.608 35.737 11.909 35.161 11.153 34.584 10.396 33.93 9.627 33.199 8.845 32.468 8.063 31.737 7.358 31.006 6.73 30.275 6.102 29.583 5.582 28.929 5.172 28.275 4.761 27.743 4.556 27.333 4.556 26.615 4.556 25.852 4.454 25.044 4.249 24.236 4.044 23.448 3.941 22.679 3.941c-1.051 0-2.199 0.179-3.442 0.538-1.244 0.359-2.501 0.846-3.77 1.461-1.269 0.616-2.5 1.353-3.692 2.212-1.192 0.859-2.25 1.795-3.174 2.808-0.923 1.013-1.667 2.077-2.232 3.192-0.564 1.116-0.846 2.251-0.846 3.405 0 0.205 0.051 0.378 0.154 0.519 0.103 0.141 0.18 0.288 0.231 0.443-0.077 0.462-0.179 0.955-0.308 1.481-0.128 0.526-0.193 1.032-0.193 1.52 0 1.077 0.141 2.071 0.423 2.981 0.282 0.911 0.834 1.763 1.655 2.557 0 0.128 0.122 0.423 0.365 0.885 0.243 0.462 0.519 0.949 0.827 1.462 0.308 0.513 0.616 0.987 0.923 1.423 0.308 0.436 0.513 0.692 0.615 0.769 0.154 0.103 0.385 0.179 0.693 0.231 0.308 0.051 0.615 0.115 0.923 0.193 0.308 0.077 0.584 0.18 0.827 0.308 0.243 0.128 0.365 0.307 0.365 0.538l-0.423 0.654c0.436 0.205 0.936 0.397 1.5 0.577 0.564 0.18 1.141 0.327 1.731 0.443 0.59 0.115 1.173 0.205 1.75 0.269 0.577 0.064 1.109 0.096 1.596 0.096 0.743 0 1.494-0.051 2.25-0.154 0.757-0.103 1.507-0.218 2.25-0.346 0.743-0.128 1.494-0.25 2.25-0.366 0.757-0.115 1.507-0.173 2.25-0.173 0.846-0.641 1.782-1.397 2.808-2.269 1.026-0.872 1.988-1.821 2.885-2.847 0.897-1.026 1.647-2.097 2.25-3.212 0.603-1.115 0.904-2.25 0.904-3.404 0-0.667 0.109-1.321 0.328-1.962 0.218-0.641 0.327-1.282 0.328-1.924zm-5.925 0.27c0 0.589-0.077 1.249-0.231 1.98-0.154 0.731-0.34 1.488-0.558 2.27-0.218 0.782-0.436 1.552-0.654 2.308-0.218 0.756-0.378 1.443-0.481 2.058-0.436 0.359-0.795 0.769-1.077 1.231-0.282 0.461-0.577 0.91-0.885 1.346-0.308 0.436-0.648 0.846-1.02 1.231-0.372 0.385-0.865 0.667-1.48 0.847l-0.424 0.423c-0.128 0.052-0.269 0.122-0.423 0.212-0.154 0.09-0.32 0.192-0.5 0.308-0.18 0.115-0.34 0.212-0.481 0.289-0.141 0.077-0.25 0.116-0.326 0.116-0.513 0-1.033-0.032-1.558-0.096-0.526-0.064-1.045-0.135-1.557-0.211L19.832 32.521c-0.282-0.025-0.596-0.057-0.942-0.096-0.346-0.039-0.648-0.109-0.904-0.212L17.717 31.944C16.896 31.79 16.165 31.328 15.524 30.559 14.883 29.79 14.312 28.905 13.812 27.905 13.312 26.905 12.87 25.885 12.485 24.847 12.101 23.808 11.754 22.943 11.447 22.25l0-3.423c0.282-0.615 0.448-1.295 0.499-2.038 0.051-0.744 0.141-1.449 0.269-2.116 0.077-0.41 0.205-0.801 0.384-1.173 0.18-0.372 0.378-0.738 0.596-1.096 0.218-0.359 0.429-0.724 0.634-1.096 0.205-0.372 0.372-0.75 0.5-1.135 0.385-0.051 0.866-0.301 1.443-0.75 0.577-0.449 1.192-0.923 1.847-1.423 0.654-0.5 1.308-0.955 1.962-1.366 0.654-0.41 1.237-0.616 1.75-0.616 0.667 0 1.34 0.135 2.02 0.404 0.68 0.269 1.308 0.558 1.885 0.866 0.577 0.308 1.09 0.597 1.538 0.866 0.449 0.269 0.776 0.404 0.981 0.404 0.052 0 0.122-0.019 0.212-0.058 0.09-0.038 0.16-0.07 0.212-0.096 0.179 0.41 0.455 0.878 0.826 1.404 0.372 0.526 0.776 0.866 1.213 1.019-0.103 0.128-0.245 0.302-0.424 0.519-0.179 0.218-0.269 0.417-0.269 0.597 0 0.23 0.07 0.608 0.211 1.134 0.141 0.526 0.314 1.071 0.519 1.635 0.205 0.564 0.41 1.096 0.616 1.596 0.205 0.5 0.385 0.84 0.538 1.019 0.052 0.205 0.122 0.404 0.212 0.596 0.09 0.193 0.134 0.391 0.134 0.596z" class="s0"/><path d="m62.897889-17.411804a6.8979998 6.8979998 0 1 1-13.795999 0 6.8979998 6.8979998 0 1 1 13.795999 0z" transform="matrix(1.2284946,0,0,1.4354839,0.94469727,40.292429)" style="fill-opacity:1;fill-rule:nonzero;fill:#fff"/><path d="m74.436 13.555-1.404 0c-0.008 0.043-0.006 0.106 0.007 0.189 0.013 0.082 0.028 0.169 0.045 0.26 0.017 0.091 0.035 0.18 0.052 0.266 0.017 0.087 0.026 0.152 0.026 0.195l0 1.144-0.338 0 0 2.249-0.104 0c-0.009 0.19-0.004 0.403 0.013 0.637 0.017 0.234 0.035 0.451 0.052 0.65 0.061 0.043 0.156 0.067 0.286 0.071 0.13 0.004 0.256 0.017 0.377 0.039 0.121 0.022 0.221 0.069 0.299 0.143 0.078 0.074 0.095 0.201 0.052 0.383l-1.781 0-0.104-1.924c-0.008-0.009-0.047-0.013-0.117-0.013l0-0.585c-0.017-0.017-0.069-0.026-0.156-0.026 0 0.009-0.002 0.019-0.006 0.032-0.004 0.013-0.007 0.041-0.007 0.085 0 0.043 0.002 0.104 0.007 0.182 0.004 0.078 0.007 0.182 0.007 0.312l-0.104 0-0.117 1.937-1.794 0c-0.043-0.208-0.028-0.349 0.045-0.422 0.074-0.074 0.173-0.119 0.299-0.136 0.126-0.017 0.254-0.024 0.384-0.02 0.13 0.004 0.23-0.015 0.299-0.058 0.017-0.174 0.03-0.371 0.039-0.592 0.009-0.221 0.022-0.444 0.039-0.669-0.017-0.017-0.056-0.026-0.117-0.026l0-2.262c-0.052 0-0.108 0-0.169 0-0.061 0-0.122 0.004-0.182 0.013l0-1.092 0.156-0.962-2.015 0 0.65 4.303-0.962 0c0 0.19 0.007 0.403 0.019 0.637 0.013 0.234 0.028 0.451 0.045 0.65 0.061 0.043 0.158 0.067 0.293 0.071 0.134 0.004 0.262 0.017 0.383 0.039 0.121 0.022 0.219 0.069 0.292 0.143 0.074 0.074 0.089 0.201 0.045 0.383l-1.781 0-0.104-1.937c-0.121-0.026-0.243-0.026-0.364 0l-0.13 1.937-1.781 0c-0.052-0.208-0.039-0.349 0.039-0.422 0.078-0.074 0.178-0.119 0.299-0.136 0.121-0.017 0.247-0.024 0.377-0.02 0.13 0.004 0.23-0.015 0.299-0.058 0.017-0.174 0.033-0.371 0.046-0.592 0.013-0.221 0.028-0.444 0.046-0.669-0.009-0.009-0.022-0.013-0.039-0.013-0.017 0-0.06 0-0.13 0-0.061 0-0.156 0-0.286 0-0.121 0-0.299 0.004-0.533 0.013l0.663-4.316-1.378 0 0-0.897 1.521-0.026 0.715-0.052c-0.13-0.061-0.234-0.117-0.312-0.169-0.078-0.052-0.141-0.093-0.189-0.123-0.048-0.03-0.089-0.045-0.124-0.045-0.026 0-0.052 0.017-0.078 0.052-0.026-0.104-0.031-0.247-0.013-0.429 0.017-0.182 0.059-0.364 0.124-0.546 0.065-0.182 0.154-0.34 0.266-0.474 0.113-0.134 0.251-0.202 0.416-0.202l0.702 0c0 0 0.024 0.017 0.072 0.052 0.048 0.035 0.104 0.074 0.169 0.117 0.065 0.043 0.134 0.091 0.208 0.143 0.074 0.052 0.137 0.091 0.189 0.117 0.043 0.147 0.085 0.342 0.123 0.585 0.039 0.243 0.05 0.455 0.033 0.637-0.017-0.026-0.054-0.033-0.111-0.02-0.056 0.013-0.119 0.039-0.188 0.078-0.069 0.039-0.141 0.078-0.214 0.117-0.074 0.039-0.141 0.071-0.201 0.098 0 0.009 0.007 0.015 0.019 0.019 0.013 0.004 0.043 0.009 0.091 0.013 0.048 0.004 0.119 0.009 0.214 0.013 0.095 0.004 0.23 0.011 0.403 0.02l2.314 0 0.715-0.052c-0.017-0.035-0.048-0.05-0.091-0.046-0.043 0.004-0.082-0.002-0.117-0.019-0.026-0.061-0.058-0.13-0.097-0.208-0.039-0.078-0.074-0.16-0.104-0.247-0.03-0.087-0.05-0.175-0.059-0.266-0.009-0.091 0.009-0.175 0.052-0.254-0.009-0.017-0.041-0.024-0.098-0.019-0.056 0.004-0.215 0.011-0.474 0.019l0-0.169c0.052-0.017 0.128-0.054 0.228-0.11 0.1-0.056 0.206-0.121 0.319-0.195 0.113-0.074 0.227-0.152 0.344-0.234 0.117-0.082 0.227-0.158 0.331-0.228 0.017 0.043 0.039 0.089 0.065 0.136 0.026 0.048 0.048 0.093 0.065 0.136 0.035-0.043 0.063-0.093 0.085-0.15 0.022-0.056 0.041-0.111 0.059-0.163 0.035-0.008 0.074 0.003 0.117 0.033 0.043 0.03 0.087 0.065 0.13 0.104 0.043 0.039 0.087 0.08 0.13 0.124 0.043 0.043 0.078 0.074 0.104 0.091 0.035 0.026 0.087 0.05 0.156 0.072 0.069 0.022 0.145 0.043 0.228 0.065 0.082 0.022 0.167 0.041 0.254 0.059 0.087 0.017 0.165 0.035 0.234 0.052l0 0.221c-0.069-0.017-0.158-0.028-0.266-0.033-0.108-0.004-0.223 0.015-0.345 0.058 0 0.095 0.004 0.195 0.013 0.299 0.009 0.104 0.004 0.21-0.013 0.318-0.017 0.108-0.054 0.21-0.11 0.305-0.056 0.095-0.145 0.173-0.267 0.234 0 0.009 0.007 0.015 0.019 0.019 0.013 0.004 0.043 0.009 0.091 0.013 0.048 0.004 0.119 0.009 0.215 0.013 0.095 0.004 0.225 0.011 0.39 0.02l1.573 0.039zM81.132 14.322 81.132 14.322" class="s0"/><path d="m81.132 14.322c0-0.13-0.037-0.293-0.112-0.488-0.075-0.195-0.154-0.391-0.238-0.586-0.084-0.195-0.163-0.395-0.237-0.6-0.074-0.205-0.112-0.391-0.112-0.558 0-0.186 0.056-0.288 0.168-0.307 0.037-0.261-0.066-0.624-0.307-1.089C80.052 10.229 79.722 9.722 79.303 9.173 78.885 8.624 78.41 8.066 77.88 7.499 77.35 6.931 76.819 6.42 76.289 5.964 75.759 5.508 75.257 5.132 74.782 4.834 74.308 4.536 73.922 4.387 73.624 4.387c-0.521 0-1.075-0.074-1.661-0.223-0.586-0.149-1.158-0.223-1.716-0.223-0.763 0-1.595 0.13-2.497 0.39-0.902 0.26-1.814 0.614-2.735 1.06-0.921 0.447-1.814 0.982-2.679 1.605-0.865 0.623-1.632 1.302-2.302 2.037-0.67 0.735-1.21 1.507-1.619 2.316-0.409 0.809-0.614 1.633-0.614 2.47 0 0.149 0.037 0.274 0.112 0.376 0.075 0.102 0.13 0.209 0.167 0.321-0.056 0.335-0.13 0.693-0.223 1.074-0.093 0.381-0.14 0.749-0.14 1.102 0 0.781 0.102 1.502 0.307 2.163 0.205 0.661 0.605 1.279 1.2 1.855 0 0.093 0.088 0.307 0.265 0.642 0.177 0.335 0.377 0.689 0.6 1.061 0.223 0.372 0.447 0.716 0.67 1.033 0.223 0.316 0.372 0.502 0.446 0.558 0.112 0.074 0.279 0.13 0.502 0.167 0.223 0.037 0.446 0.084 0.67 0.14 0.223 0.056 0.423 0.13 0.6 0.223 0.177 0.093 0.265 0.223 0.265 0.39l-0.307 0.474c0.316 0.149 0.679 0.288 1.088 0.419 0.409 0.13 0.828 0.237 1.256 0.321 0.428 0.084 0.851 0.149 1.27 0.195 0.419 0.047 0.805 0.07 1.158 0.07 0.539 0 1.084-0.037 1.633-0.112 0.549-0.074 1.093-0.158 1.633-0.251 0.539-0.093 1.084-0.182 1.633-0.265 0.549-0.084 1.093-0.126 1.633-0.126 0.614-0.465 1.293-1.014 2.037-1.646 0.744-0.632 1.442-1.321 2.093-2.065 0.651-0.744 1.195-1.521 1.632-2.33 0.437-0.809 0.656-1.632 0.656-2.47 0-0.484 0.079-0.958 0.238-1.423 0.158-0.465 0.238-0.93 0.238-1.396zm-4.298 0.196c0 0.428-0.056 0.906-0.167 1.437-0.112 0.53-0.246 1.079-0.405 1.647-0.158 0.567-0.316 1.126-0.474 1.674-0.158 0.549-0.274 1.047-0.349 1.493-0.316 0.261-0.577 0.558-0.781 0.893-0.205 0.335-0.419 0.66-0.642 0.976-0.223 0.316-0.47 0.614-0.74 0.893-0.27 0.279-0.628 0.484-1.074 0.614l-0.307 0.307c-0.093 0.037-0.195 0.089-0.307 0.154-0.112 0.065-0.233 0.139-0.363 0.223-0.13 0.084-0.247 0.154-0.349 0.21-0.102 0.056-0.181 0.084-0.237 0.084-0.372 0-0.749-0.023-1.131-0.07-0.381-0.047-0.758-0.098-1.13-0.153l-0.196-0.224c-0.204-0.018-0.432-0.041-0.683-0.069-0.251-0.028-0.47-0.079-0.656-0.154l-0.195-0.195c-0.596-0.112-1.126-0.447-1.591-1.005-0.465-0.558-0.879-1.2-1.242-1.926-0.363-0.726-0.684-1.465-0.963-2.219-0.279-0.753-0.53-1.381-0.753-1.884l0-2.483c0.204-0.446 0.325-0.939 0.362-1.479 0.037-0.54 0.102-1.051 0.195-1.535 0.056-0.297 0.149-0.581 0.279-0.851 0.13-0.27 0.275-0.535 0.433-0.795 0.158-0.26 0.312-0.525 0.46-0.795 0.149-0.27 0.27-0.544 0.363-0.824 0.279-0.037 0.628-0.218 1.047-0.544 0.418-0.326 0.865-0.67 1.34-1.033 0.475-0.363 0.949-0.693 1.424-0.991 0.474-0.298 0.897-0.447 1.269-0.447 0.484 0 0.972 0.098 1.465 0.293 0.493 0.195 0.949 0.405 1.367 0.628 0.418 0.223 0.79 0.433 1.116 0.628 0.326 0.195 0.563 0.293 0.712 0.293 0.037 0 0.089-0.014 0.154-0.042 0.065-0.028 0.116-0.051 0.154-0.07 0.13 0.298 0.33 0.637 0.6 1.019 0.27 0.382 0.563 0.628 0.88 0.739-0.075 0.093-0.177 0.219-0.307 0.377-0.13 0.158-0.195 0.302-0.195 0.433 0 0.167 0.051 0.441 0.153 0.823 0.102 0.382 0.228 0.777 0.376 1.186 0.149 0.409 0.298 0.795 0.447 1.158 0.149 0.363 0.279 0.609 0.39 0.739 0.037 0.149 0.089 0.293 0.154 0.433 0.065 0.14 0.098 0.284 0.098 0.433z" class="s0"/><path d="m62.897889-17.411804a6.8979998 6.8979998 0 1 1-13.795999 0 6.8979998 6.8979998 0 1 1 13.795999 0z" transform="matrix(1.2284946,0,0,1.4354839,29.371133,40.329516)" style="fill-opacity:1;fill-rule:nonzero;fill:#fff"/><path d="M98.719 3.938C97.956 3.938 97.121 4.083 96.219 4.344 95.316 4.604 94.421 4.96 93.5 5.406 92.579 5.853 91.677 6.377 90.813 7 89.948 7.623 89.17 8.297 88.5 9.031 87.83 9.766 87.316 10.534 86.906 11.344 86.497 12.153 86.281 12.975 86.281 13.813 86.281 13.961 86.332 14.085 86.406 14.188 86.481 14.29 86.526 14.419 86.563 14.531 86.507 14.866 86.437 15.213 86.344 15.594 86.251 15.975 86.188 16.334 86.188 16.688 86.188 17.469 86.295 18.183 86.5 18.844 86.705 19.504 87.123 20.142 87.719 20.719 87.719 20.812 87.792 21.009 87.969 21.344 88.145 21.679 88.339 22.034 88.563 22.406 88.786 22.778 89.027 23.121 89.25 23.438 89.473 23.754 89.613 23.944 89.688 24 89.799 24.074 89.964 24.15 90.188 24.188 90.411 24.225 90.62 24.257 90.844 24.313 91.067 24.368 91.292 24.438 91.469 24.531 91.645 24.624 91.719 24.77 91.719 24.938L91.406 25.406C91.722 25.555 92.091 25.682 92.5 25.813 92.909 25.943 93.322 26.041 93.75 26.125 94.178 26.209 94.613 26.297 95.031 26.344 95.45 26.39 95.834 26.406 96.188 26.406 96.727 26.406 97.263 26.356 97.813 26.281 98.362 26.207 98.898 26.124 99.438 26.031 99.977 25.938 100.545 25.865 101.094 25.781 101.643 25.698 102.179 25.656 102.719 25.656 103.332 25.191 104.006 24.632 104.75 24 105.494 23.368 106.193 22.682 106.844 21.938 107.495 21.193 108.032 20.434 108.469 19.625 108.906 18.816 109.125 17.994 109.125 17.156 109.125 16.673 109.217 16.184 109.375 15.719 109.533 15.254 109.625 14.778 109.625 14.313 109.625 14.182 109.575 14.039 109.5 13.844 109.425 13.648 109.334 13.445 109.25 13.25 109.166 13.055 109.106 12.861 109.031 12.656 108.957 12.452 108.906 12.261 108.906 12.094 108.906 11.908 108.982 11.799 109.094 11.781 109.131 11.521 109.023 11.153 108.781 10.688 108.539 10.222 108.2 9.736 107.781 9.188 107.363 8.639 106.874 8.068 106.344 7.5 105.813 6.933 105.312 6.424 104.781 5.969 104.251 5.513 103.724 5.142 103.25 4.844 102.776 4.546 102.391 4.375 102.094 4.375 101.573 4.375 101.023 4.305 100.438 4.156 99.852 4.008 99.277 3.938 98.719 3.938zM97.75 5.438C98.234 5.438 98.726 5.555 99.219 5.75 99.712 5.945 100.175 6.152 100.594 6.375 101.012 6.598 101.362 6.805 101.688 7 102.013 7.195 102.257 7.281 102.406 7.281 102.444 7.281 102.497 7.278 102.563 7.25 102.628 7.222 102.681 7.206 102.719 7.188 102.849 7.485 103.043 7.806 103.313 8.188 103.582 8.569 103.871 8.826 104.188 8.938 104.113 9.031 104.005 9.154 103.875 9.313 103.745 9.471 103.687 9.619 103.688 9.75 103.687 9.917 103.742 10.181 103.844 10.563 103.946 10.944 104.07 11.341 104.219 11.75 104.367 12.159 104.507 12.543 104.656 12.906 104.805 13.269 104.951 13.526 105.063 13.656 105.1 13.805 105.154 13.954 105.219 14.094 105.284 14.233 105.313 14.383 105.313 14.531 105.312 14.959 105.268 15.438 105.156 15.969 105.045 16.499 104.908 17.026 104.75 17.594 104.618 18.068 104.476 18.539 104.344 19L102 17.563C102.008 17.516 102.031 17.474 102.031 17.406 102.031 17.189 101.979 16.974 101.875 16.719 101.771 16.463 101.646 16.217 101.469 16 101.291 15.783 101.1 15.612 100.875 15.469 100.65 15.326 100.39 15.25 100.156 15.25 100.122 15.25 100.06 15.218 99.969 15.188 99.878 15.157 99.787 15.137 99.688 15.094 99.588 15.05 99.497 15.012 99.406 14.969 99.315 14.926 99.262 14.892 99.219 14.875 99.175 14.866 99.109 14.838 99.031 14.813 98.953 14.787 98.877 14.762 98.781 14.719L99.063 12.906 99.156 10.969C99.304 11.029 99.451 11.109 99.594 11.188 99.737 11.266 99.852 11.342 99.969 11.438 100.086 11.533 100.181 11.646 100.25 11.75 100.319 11.854 100.344 11.95 100.344 12.063L100.344 12.125C100.387 12.203 100.416 12.288 100.438 12.375 100.459 12.462 100.519 12.556 100.563 12.625 100.528 12.651 100.496 12.688 100.5 12.719 100.504 12.749 100.51 12.755 100.531 12.781 100.553 12.807 100.595 12.826 100.625 12.844 100.655 12.861 100.693 12.875 100.719 12.875L100.875 12.875C100.918 12.832 100.979 12.798 101.031 12.75 101.083 12.702 101.094 12.632 101.094 12.563 101.094 12.32 101.074 12.1 101 11.875 100.926 11.65 100.875 11.408 100.875 11.156 100.875 10.948 100.889 10.758 100.906 10.594 100.924 10.429 100.957 10.272 101 10.125 101.043 9.978 101.096 9.839 101.156 9.688 101.217 9.536 101.28 9.347 101.375 9.156 101.349 9.104 101.302 9.056 101.25 9 101.198 8.944 101.163 8.906 101.094 8.906 100.972 8.906 100.855 8.991 100.781 9.125 100.708 9.259 100.646 9.384 100.594 9.531 100.576 9.575 100.571 9.622 100.563 9.656 100.554 9.691 100.549 9.715 100.531 9.75 100.514 9.811 100.485 9.909 100.438 10 100.39 10.091 100.319 10.125 100.25 10.125 100.077 10.125 99.896 10.12 99.719 10.094 99.541 10.068 99.361 10.026 99.188 10L99.25 8.969 98.188 9.406 98.219 9.938C98.149 9.955 98.088 9.987 98.031 10 97.975 10.013 97.904 10.014 97.844 10.031 97.766 10.049 97.703 10.072 97.625 10.094 97.547 10.115 97.453 10.125 97.375 10.125 97.358 10.125 97.365 10.087 97.344 10 97.322 9.913 97.303 9.818 97.281 9.719 97.26 9.619 97.236 9.524 97.219 9.438L97.188 9.313 96.219 9.344 96.25 10.406C96.077 10.501 95.911 10.639 95.781 10.813 95.773 10.786 95.748 10.75 95.688 10.75 95.566 10.845 95.47 10.949 95.375 11.031 95.28 11.114 95.158 11.18 95.063 11.25 94.768 11.484 94.549 11.708 94.406 11.938 94.293 12.12 94.242 12.387 94.219 12.688L91.375 10.906C91.381 10.894 91.4 10.888 91.406 10.875 91.537 10.605 91.686 10.354 91.844 10.094 92.002 9.833 92.164 9.551 92.313 9.281 92.461 9.012 92.563 8.748 92.656 8.469 92.936 8.432 93.3 8.232 93.719 7.906 94.137 7.581 94.588 7.238 95.063 6.875 95.537 6.512 95.994 6.204 96.469 5.906 96.943 5.608 97.378 5.438 97.75 5.438zM97.219 10.75C97.314 10.75 97.422 10.782 97.5 10.813 97.578 10.843 97.655 10.844 97.75 10.844 97.836 10.844 97.918 10.853 98 10.844 98.082 10.835 98.186 10.821 98.281 10.813L98.375 12.344 98.094 14.469C98.024 14.469 97.936 14.455 97.875 14.438 97.814 14.42 97.757 14.424 97.688 14.406 97.479 14.372 97.317 14.325 97.188 14.281L97.219 10.75zM96.281 11.594L96.313 12.344 96.375 13.719C96.358 13.684 96.334 13.629 96.313 13.594 96.291 13.559 96.276 13.543 96.25 13.5 96.198 13.405 96.132 13.282 96.063 13.156 95.993 13.031 95.908 12.906 95.813 12.75L95.813 12.188C95.847 12.135 95.918 12.041 96 11.938 96.082 11.834 96.169 11.715 96.281 11.594zM91.063 12.219L95.281 14.75C95.403 14.841 95.522 14.928 95.656 15 95.699 15.023 95.739 15.043 95.781 15.063L96.438 15.438 96.063 19.281C95.958 19.221 95.843 19.126 95.688 19 95.532 18.874 95.366 18.728 95.219 18.594 95.071 18.459 94.956 18.344 94.844 18.219 94.731 18.093 94.665 17.99 94.656 17.938 94.63 17.825 94.621 17.738 94.625 17.625 94.629 17.512 94.601 17.408 94.531 17.313 94.549 17.234 94.535 17.136 94.5 17.063 94.465 16.989 94.436 16.931 94.375 16.875 94.314 16.819 94.234 16.785 94.156 16.75 94.078 16.715 94.007 16.688 93.938 16.688 93.894 16.757 93.879 16.833 93.875 16.906 93.871 16.98 93.844 17.033 93.844 17.094 93.844 17.267 93.872 17.456 93.906 17.625 93.941 17.794 93.992 17.96 94.031 18.125 94.07 18.29 94.09 18.456 94.125 18.625 94.16 18.794 94.188 18.952 94.188 19.125 94.187 19.255 94.168 19.401 94.125 19.531 94.082 19.661 94.021 19.799 93.969 19.938 93.925 20.067 93.891 20.174 93.844 20.313 93.796 20.451 93.75 20.589 93.75 20.719 93.75 20.78 93.778 20.854 93.813 20.906 93.83 20.941 93.835 20.951 93.844 20.969 93.852 20.986 93.875 21.019 93.875 21.063L94.313 21.063C94.338 21.028 94.385 20.989 94.406 20.938 94.428 20.886 94.42 20.819 94.438 20.75 94.455 20.689 94.505 20.636 94.531 20.563 94.557 20.489 94.577 20.413 94.594 20.344 94.637 20.205 94.671 20.073 94.719 19.969 94.766 19.865 94.837 19.813 94.906 19.813 95.001 19.813 95.103 19.845 95.25 19.875 95.397 19.905 95.488 19.967 95.531 20.063 95.592 20.054 95.681 20.058 95.75 20.063 95.819 20.067 95.868 20.054 95.938 20.063L95.781 21.188 96.563 21.438 96.531 20.656 96.75 20.219C96.776 20.167 96.819 20.152 96.875 20.156 96.931 20.161 96.998 20.162 97.063 20.188 97.127 20.213 97.185 20.247 97.25 20.281 97.315 20.316 97.377 20.335 97.438 20.344 97.498 20.361 97.564 20.371 97.625 20.375 97.686 20.379 97.743 20.398 97.813 20.406L97.844 21.438 98.75 21.438 98.656 20.344 98.844 20.344C98.904 20.344 98.98 20.312 99.063 20.281 99.145 20.251 99.253 20.231 99.344 20.188 99.435 20.144 99.516 20.11 99.594 20.063 99.672 20.015 99.738 19.95 99.781 19.906L99.906 19.906 100 20.031C100.182 19.927 100.371 19.796 100.531 19.688 100.692 19.579 100.835 19.488 101 19.375 101.017 19.375 101.045 19.389 101.063 19.406 101.08 19.406 101.081 19.402 101.094 19.406 101.107 19.411 101.13 19.406 101.156 19.406 101.208 19.354 101.274 19.301 101.344 19.219 101.413 19.137 101.466 19.028 101.531 18.938 101.596 18.847 101.671 18.747 101.719 18.656 101.724 18.646 101.714 18.636 101.719 18.625L104.094 20.031C104.036 20.28 103.943 20.558 103.906 20.781 103.59 21.042 103.33 21.322 103.125 21.656 102.92 21.991 102.723 22.309 102.5 22.625 102.277 22.941 102.02 23.252 101.75 23.531 101.48 23.81 101.134 24.026 100.688 24.156L100.375 24.438C100.282 24.475 100.174 24.529 100.063 24.594 99.951 24.659 99.818 24.76 99.688 24.844 99.557 24.928 99.446 24.975 99.344 25.031 99.242 25.087 99.181 25.125 99.125 25.125 98.753 25.125 98.381 25.109 98 25.063 97.619 25.016 97.216 24.962 96.844 24.906L96.656 24.688C96.452 24.669 96.22 24.622 95.969 24.594 95.718 24.566 95.499 24.512 95.313 24.438L95.125 24.25C94.529 24.138 93.996 23.808 93.531 23.25 93.066 22.692 92.644 22.038 92.281 21.313 91.918 20.587 91.623 19.847 91.344 19.094 91.065 18.34 90.786 17.721 90.563 17.219L90.563 14.75C90.767 14.304 90.9 13.79 90.938 13.25 90.963 12.887 91.012 12.557 91.063 12.219zM97.063 15.813L97.844 16.281 97.75 17 97.781 19.375C97.686 19.392 97.614 19.411 97.531 19.438 97.449 19.464 97.345 19.483 97.25 19.5L97.188 19.438C97.144 19.429 97.093 19.419 97.063 19.406 97.032 19.393 97.004 19.375 96.969 19.375 96.908 19.375 96.851 19.403 96.781 19.438L96.906 17.969 97.063 15.813zM98.469 16.656L100.188 17.688C100.127 17.748 100.022 17.857 99.875 18 99.728 18.143 99.589 18.277 99.438 18.438 99.286 18.598 99.148 18.755 99.031 18.906 98.914 19.058 98.844 19.172 98.844 19.25 98.835 19.259 98.807 19.281 98.781 19.281 98.747 19.281 98.722 19.259 98.688 19.25 98.653 19.241 98.628 19.259 98.594 19.25L98.406 17 98.469 16.656z" class="s0"/></svg>