<?xml version="1.0" encoding="UTF-8" standalone="no"?>
<!-- Created with Inkscape (http://www.inkscape.org/) -->

<svg
   xmlns:dc="http://purl.org/dc/elements/1.1/"
   xmlns:cc="http://creativecommons.org/ns#"
   xmlns:rdf="http://www.w3.org/1999/02/22-rdf-syntax-ns#"
   xmlns:svg="http://www.w3.org/2000/svg"
   xmlns="http://www.w3.org/2000/svg"
   xmlns:sodipodi="http://sodipodi.sourceforge.net/DTD/sodipodi-0.dtd"
   xmlns:inkscape="http://www.inkscape.org/namespaces/inkscape"
   width="120"
   height="42"
   id="svg2759"
   sodipodi:version="0.32"
   inkscape:version="0.48.4 r9939"
   version="1.0"
   sodipodi:docname="by-nc.svg"
   inkscape:output_extension="org.inkscape.output.svg.inkscape">
  <defs
     id="defs2761" />
  <sodipodi:namedview
     id="base"
     pagecolor="#ffffff"
     bordercolor="#8b8b8b"
     borderopacity="1"
     gridtolerance="10000"
     guidetolerance="10"
     objecttolerance="10"
     inkscape:pageopacity="0.0"
     inkscape:pageshadow="2"
     inkscape:zoom="2.8284271"
     inkscape:cx="20.628036"
     inkscape:cy="-3.8964883"
     inkscape:document-units="px"
     inkscape:current-layer="g3949"
     width="120px"
     height="42px"
     inkscape:showpageshadow="false"
     inkscape:window-width="1198"
     inkscape:window-height="838"
     inkscape:window-x="2058"
     inkscape:window-y="78"
     showgrid="false"
     inkscape:window-maximized="0" />
  <metadata
     id="metadata2764">
    <rdf:RDF>
      <cc:Work
         rdf:about="">
        <dc:format>image/svg+xml</dc:format>
        <dc:type
           rdf:resource="http://purl.org/dc/dcmitype/StillImage" />
      </cc:Work>
    </rdf:RDF>
  </metadata>
  <g
     inkscape:label="Layer 1"
     inkscape:groupmode="layer"
     id="layer1">
    <path
       inkscape:connector-curvature="0"
       style="fill:#91180e;fill-opacity:1"
       d="m 3.253565,0.65428595 113.354585,0.201362 c 1.58383,0 2.99881,-0.23484 2.99881,3.16012205 l -0.13878,37.329943 -119.075135,0 0,-37.468225 c 0,-1.6744431 0.16208,-3.22320205 2.86052,-3.22320205 z"
       nodetypes="ccccccc"
       id="path3817_3_-9" />
    <path
       inkscape:connector-curvature="0"
       id="path332-4"
       d="m 117.75331,-6e-7 -115.50614,0 C 1.00834,-6e-7 0,1.0072754 0,2.2459934 L 0,41.49297 C 0,41.77293 0.22758,42 0.50756,42 l 118.98487,0 C 119.77242,42 120,41.77292 120,41.49297 L 120,2.2459934 C 120,1.0072754 118.99214,-6e-7 117.75332,-6e-7 z m -115.50615,1.014063 115.50614,0 c 0.67934,0 1.23156,0.552643 1.23156,1.231931 0,0 0,15.7850566 0,27.2086466 l -82.55708,0 c -3.025983,5.47113 -8.85571,9.18535 -15.546259,9.18535 -6.693462,0 -12.521738,-3.7113 -15.546261,-9.18535 l -4.32013,0 c 0,-11.42358 0,-27.2086466 0,-27.2086466 0,-0.679278 0.55269,-1.231931 1.23203,-1.231931 z" />
    <g
       style="font-size:9.93252468px;font-style:normal;font-variant:normal;font-weight:normal;font-stretch:normal;line-height:125%;letter-spacing:0px;word-spacing:0px;fill:#ffffff;fill-opacity:1;stroke:none;font-family:Windlass;-inkscape-font-specification:Windlass"
       id="text3033">
      <path
         d="m 68.780587,36.73635 c -6e-6,-0.165499 -0.03977,-0.34257 -0.119276,-0.531212 -0.07952,-0.188636 -0.185514,-0.365757 -0.317969,-0.531364 -0.132468,-0.165598 -0.28145,-0.303011 -0.446946,-0.412238 -0.165507,-0.109219 -0.337677,-0.16383 -0.516511,-0.163835 -0.03315,5e-6 -0.09604,-0.01823 -0.18869,-0.05471 -0.09266,-0.03647 -0.145652,-0.06794 -0.158984,-0.09442 0.231778,-0.125688 0.398997,-0.21834 0.501658,-0.277958 0.10265,-0.05961 0.185451,-0.117554 0.248404,-0.173837 0.06294,-0.05627 0.129172,-0.127456 0.198693,-0.213546 0.06951,-0.08608 0.190351,-0.218542 0.362527,-0.397386 0.05294,0.01334 0.07941,-0.01313 0.07942,-0.07942 l 0,-0.297964 c -0.03315,-0.04627 -0.05634,-0.102548 -0.06957,-0.168836 -0.01324,-0.06627 -0.01986,-0.129222 -0.01985,-0.188842 -6e-6,-0.02647 0.0017,-0.05627 0.005,-0.08942 0.0033,-0.03313 0.02157,-0.05627 0.05471,-0.06941 -0.05962,-0.178832 -0.132468,-0.351002 -0.218547,-0.51651 -0.08609,-0.165495 -0.19203,-0.312809 -0.317818,-0.441944 -0.125798,-0.129121 -0.273163,-0.231776 -0.442095,-0.307967 -0.168942,-0.07618 -0.359299,-0.114267 -0.571072,-0.114275 -0.02648,8e-6 -0.07119,-0.0066 -0.134129,-0.01985 -0.06295,-0.01323 -0.134133,-0.02975 -0.213546,-0.04956 -0.07942,-0.0198 -0.162171,-0.03637 -0.248252,-0.04971 -0.08609,-0.01333 -0.165606,-0.02 -0.238553,-0.02 -0.231786,8e-6 -0.458568,0.02981 -0.680345,0.08942 -0.221783,0.05962 -0.441896,0.08943 -0.66034,0.08942 -0.211981,8e-6 -0.42391,-0.0066 -0.635787,-0.01985 -0.211879,-0.01323 -0.423808,-0.01985 -0.635787,-0.01985 -0.105889,8e-6 -0.208494,-0.02318 -0.307815,-0.06956 -0.09932,-0.04637 -0.18869,-0.06956 -0.268106,-0.06957 -0.04648,8e-6 -0.09124,0.02981 -0.134281,0.08942 -0.04304,0.05962 -0.06456,0.109332 -0.06456,0.149133 0.09275,0.04628 0.185507,0.08599 0.278261,0.119125 0.09275,0.03315 0.182173,0.07619 0.268259,0.129128 0.03294,0.172177 0.08088,0.349298 0.143828,0.531363 0.06295,0.182079 0.09442,0.3592 0.09442,0.531364 -1e-6,0.07296 -0.01657,0.16571 -0.04971,0.278261 -0.03314,0.112563 -0.06952,0.195314 -0.109122,0.248252 0.0067,0.05295 0.01495,0.153939 0.02486,0.302965 0.0099,0.149038 0.01318,0.303021 0.0099,0.46195 -0.0033,0.158939 -0.01824,0.301303 -0.04471,0.427091 -0.02647,0.125798 -0.07285,0.188695 -0.13913,0.18869 0.07295,0.231788 0.142514,0.488376 0.208696,0.769765 0.06618,0.281397 0.09927,0.544552 0.09927,0.789467 -1e-6,0.06628 -0.01324,0.142468 -0.03971,0.22855 -0.02647,0.08609 -0.05628,0.177124 -0.08942,0.273108 -0.03314,0.09599 -0.06295,0.19531 -0.08942,0.297964 -0.02647,0.102657 -0.03971,0.203696 -0.03971,0.303116 -1e-6,0.04628 -1e-6,0.09255 0,0.138828 -1e-6,0.03981 0.0067,0.08285 0.02001,0.129127 -0.02647,0.07942 -0.04304,0.162169 -0.04971,0.248253 -0.0067,0.08609 -0.01334,0.172171 -0.02,0.258255 -0.0067,0.08609 -0.01662,0.168888 -0.02986,0.248404 -0.01324,0.07952 -0.03632,0.158986 -0.06926,0.238402 -0.02001,0.05294 -0.06143,0.09599 -0.124278,0.129127 -0.06285,0.03314 -0.127411,0.06461 -0.193692,0.09442 -0.06628,0.02981 -0.125894,0.06456 -0.178839,0.104272 -0.05294,0.03971 -0.08275,0.08937 -0.08942,0.148982 0.03314,0.0198 0.06795,0.04461 0.104424,0.07441 0.03647,0.02981 0.07785,0.04471 0.124126,0.04471 0.05961,0 0.142363,-0.0099 0.248253,-0.02971 0.105888,-0.0198 0.223396,-0.03966 0.352524,-0.05956 0.129127,-0.01991 0.261589,-0.03981 0.397386,-0.05971 0.135795,-0.0199 0.266539,-0.02986 0.392233,-0.02986 0.231781,0 0.468515,0.01991 0.710202,0.05971 0.241682,0.03981 0.481751,0.05971 0.720205,0.05971 0.05961,0 0.185403,-0.01 0.37738,-0.02986 0.19197,-0.01991 0.393947,-0.04476 0.60593,-0.07457 0.211976,-0.02981 0.407334,-0.05961 0.586076,-0.08942 0.178733,-0.02981 0.284672,-0.05461 0.317818,-0.07442 0.125889,-0.07295 0.263302,-0.170655 0.412239,-0.293114 0.148925,-0.122458 0.286288,-0.258204 0.412087,-0.407237 0.125787,-0.149031 0.230059,-0.306298 0.312816,-0.471801 0.08274,-0.1655 0.12412,-0.324434 0.124126,-0.476803 -6e-6,-0.04627 -0.0016,-0.0926 -0.0048,-0.138979 -0.0032,-0.04637 -0.0082,-0.09604 -0.01485,-0.148981 l 0.03971,-0.09942 c 0.06627,-0.06608 0.107701,-0.117354 0.124278,-0.153831 0.01656,-0.03647 0.02485,-0.101087 0.02486,-0.193843 z m -1.638951,-3.535855 c -0.03315,0.317874 -0.08447,0.576129 -0.153983,0.774766 -0.06952,0.198647 -0.157272,0.355914 -0.263257,0.471801 -0.105994,0.115896 -0.226837,0.198647 -0.362528,0.248252 -0.135699,0.04961 -0.291298,0.08604 -0.466799,0.109274 -0.175508,0.02324 -0.369199,0.03981 -0.581075,0.04971 -0.211881,0.0099 -0.44038,0.03143 -0.685498,0.06456 -0.05295,-0.317864 -0.08604,-0.630731 -0.09927,-0.938601 -0.01324,-0.30786 -0.04633,-0.620726 -0.09927,-0.938601 0.05294,-0.11255 0.09265,-0.241678 0.119125,-0.387383 0.02647,-0.145691 0.03971,-0.281487 0.03971,-0.407388 0.05314,-0.0396 0.107857,-0.08093 0.164137,-0.123975 0.05628,-0.04303 0.110888,-0.09103 0.163835,-0.14398 0.07274,-0.0067 0.143877,-0.01661 0.213394,-0.02986 0.06951,-0.01323 0.140744,-0.01985 0.213697,-0.01985 0.09922,7e-6 0.203489,0.01653 0.312817,0.04956 0.10932,0.03305 0.220261,0.04957 0.332822,0.04956 0.172166,7e-6 0.31453,0.0381 0.427091,0.114275 0.112553,0.07619 0.210207,0.172227 0.292962,0.288112 0.08275,0.115898 0.157212,0.241692 0.223397,0.37738 0.06618,0.135702 0.135741,0.266496 0.208696,0.392385 z m 0.575921,3.982952 -0.07942,0.08942 c -0.09276,0.03314 -0.167275,0.08447 -0.223549,0.153983 -0.05628,0.06952 -0.104277,0.147317 -0.14398,0.2334 -0.03971,0.08609 -0.08109,0.172172 -0.124126,0.258255 -0.04305,0.08609 -0.09766,0.158936 -0.163835,0.218547 -0.06619,0.05962 -0.125747,0.122511 -0.178687,0.188691 -0.05295,0.06618 -0.112562,0.125743 -0.178839,0.178687 -0.03314,0.03314 -0.08781,0.07457 -0.163986,0.124278 -0.07619,0.04971 -0.137417,0.07457 -0.183689,0.07457 -0.01981,10e-7 -0.02971,0.0032 -0.02971,0.0097 -4e-6,0.01334 0.0066,0.02662 0.01985,0.03986 0.01323,0.01324 0.0033,0.01985 -0.02986,0.01985 -0.105892,1e-6 -0.213499,0.01819 -0.322819,0.05456 -0.109328,0.03637 -0.190462,0.05456 -0.243403,0.05456 -0.04628,0 -0.08265,-0.01819 -0.109122,-0.05456 -0.02648,-0.03637 -0.06295,-0.05456 -0.109425,-0.05456 -0.05962,1e-6 -0.125847,0.0033 -0.198693,0.0099 -0.07285,0.0066 -0.148984,0.0099 -0.228398,0.0099 -0.07275,0 -0.142265,-0.0099 -0.208544,-0.02971 -0.06628,-0.0198 -0.119228,-0.05618 -0.158833,-0.109122 -0.02648,-0.324536 -0.04966,-0.65564 -0.06957,-0.993313 -0.01991,-0.33767 -0.06957,-0.66544 -0.148981,-0.98331 l 0.119124,-0.01 c 0.03314,-0.132358 0.04971,-0.254817 0.04971,-0.367377 -3e-6,-0.13256 -0.0066,-0.27164 -0.01986,-0.41724 -0.01324,-0.145594 0.02652,-0.274772 0.119277,-0.387535 0.09922,0.02001 0.185252,0.02668 0.258104,0.02001 0.07285,-0.0067 0.140744,-0.01662 0.203694,-0.02986 0.06294,-0.01323 0.127508,-0.02647 0.193691,-0.03971 0.06618,-0.01323 0.142311,-0.01985 0.228399,-0.01985 0.05961,4e-6 0.09932,0.03314 0.119125,0.09942 0.07295,-0.02 0.144179,-0.02005 0.213697,-1.52e-4 0.06951,0.01991 0.140642,0.03653 0.213394,0.04986 0.112553,0.02648 0.226778,0.04133 0.342673,0.04456 0.115888,0.0032 0.223544,0.03799 0.322971,0.104272 0.02647,0.01981 0.06951,0.06613 0.129128,0.138979 0.05961,0.07285 0.120837,0.150703 0.183688,0.233551 0.06284,0.08286 0.117453,0.163989 0.163835,0.243403 0.04637,0.07942 0.07613,0.135698 0.08927,0.168836 l 0,0.0197 c 0.0067,0.09276 0.005,0.172224 -0.0049,0.238402 -0.0099,0.06618 -0.0099,0.124128 0,0.173837 0.0099,0.04971 0.0397,0.09276 0.08942,0.129128 0.04971,0.03638 0.137408,0.07447 0.263105,0.114275 z"
         style=""
         id="path3042" />
      <path
         d="m 76.435191,31.561543 0,-0.07942 -0.02971,-0.03971 -0.119428,-0.08942 c -0.23179,0.03315 -0.46519,0.06462 -0.700199,0.09442 -0.235023,0.02981 -0.468423,0.05462 -0.700199,0.07441 l -0.07942,-0.03971 c -0.172176,0.0067 -0.342679,0.0034 -0.511509,-0.0099 -0.168842,-0.01323 -0.339344,-0.02318 -0.511509,-0.02986 -0.03982,-0.0067 -0.06962,0.0082 -0.08942,0.04471 -0.01981,0.03648 -0.03971,0.06796 -0.05971,0.09442 l 0,0.109122 c 0.09275,0.07296 0.188786,0.130954 0.288112,0.173989 0.09932,0.04305 0.195354,0.09438 0.288113,0.153983 0.01313,0.01981 0.04455,0.03305 0.09427,0.03971 0.04971,0.0067 0.08113,0.01991 0.09427,0.03971 0.02667,0.06629 0.0201,0.170612 -0.0197,0.312968 -0.03981,0.142371 -0.104379,0.301254 -0.193692,0.476651 -0.08932,0.17541 -0.193595,0.362433 -0.312816,0.561069 -0.119231,0.198648 -0.243408,0.390672 -0.37253,0.576073 -0.129133,0.185412 -0.254926,0.354298 -0.377381,0.50666 -0.122463,0.152371 -0.230069,0.271597 -0.322819,0.357677 -0.185511,-0.231778 -0.354397,-0.460227 -0.506659,-0.685347 -0.152269,-0.225109 -0.301251,-0.455225 -0.446946,-0.690348 -0.145701,-0.235111 -0.291398,-0.478463 -0.437094,-0.730056 -0.1457,-0.25158 -0.3013,-0.519737 -0.466799,-0.804471 0.0198,-0.02 0.02147,-0.0449 0.005,-0.07472 -0.01647,-0.0298 -0.0082,-0.0447 0.0247,-0.04471 0.05314,7e-6 0.109473,0.0083 0.168988,0.02485 0.05951,0.01658 0.119072,0.02486 0.178687,0.02486 0.03981,-0.02646 0.068,-0.05127 0.08457,-0.07441 0.01657,-0.02313 0.0298,-0.04794 0.03971,-0.07442 0.0099,-0.02646 0.0198,-0.04965 0.0297,-0.06957 0.0099,-0.0199 0.03142,-0.03652 0.06456,-0.04986 -0.03314,-0.03293 -0.06957,-0.06597 -0.109274,-0.09912 -0.03971,-0.03313 -0.0827,-0.05961 -0.128976,-0.07942 l -0.158833,0.03971 -0.05971,-0.02001 c -0.112559,0.01335 -0.238352,0.04153 -0.37738,0.08457 -0.139031,0.04305 -0.261591,0.06457 -0.36768,0.06456 l -0.486502,0 c -0.112559,-0.0398 -0.248304,-0.07127 -0.407238,-0.09442 -0.158934,-0.02313 -0.298014,-0.0347 -0.41724,-0.03471 -0.03314,8e-6 -0.06628,0.02315 -0.09942,0.06941 -0.03314,0.04628 -0.05628,0.08599 -0.06941,0.119125 0,0.06629 0.02319,0.116 0.06957,0.149133 0.04638,0.03315 0.102655,0.05962 0.168836,0.07942 0.06618,0.01981 0.129076,0.04133 0.18869,0.06456 0.05961,0.02325 0.105989,0.058 0.13913,0.104272 0.09922,0.07296 0.200157,0.14914 0.302814,0.22855 0.102654,0.07942 0.190406,0.165458 0.263257,0.258103 0.07285,0.09266 0.125842,0.193648 0.158984,0.302965 0.03314,0.109331 0.08608,0.213603 0.158833,0.312817 0.112556,0.145704 0.248301,0.332777 0.407237,0.56122 0.158932,0.228454 0.317866,0.468522 0.476803,0.720205 0.158931,0.251693 0.302962,0.498379 0.432093,0.740059 0.129124,0.241689 0.223494,0.445282 0.28311,0.61078 0.0198,0.05295 0.04956,0.09927 0.08927,0.138979 0.0397,0.03971 0.07946,0.07947 0.119277,0.119277 -0.01981,0.02647 -0.03799,0.05295 -0.05456,0.07942 -0.01657,0.02647 -0.02486,0.05628 -0.02486,0.08942 l 0.0097,0.01 -0.04941,0.109122 c 0.0198,0.112561 0.04461,0.228452 0.07442,0.347675 0.0298,0.119228 0.04471,0.23512 0.04471,0.347675 -4e-6,0.258257 -0.01162,0.538034 -0.03486,0.83933 -0.02324,0.301299 -0.06457,0.577741 -0.123974,0.829327 -0.02668,0.112558 -0.07639,0.198643 -0.149134,0.258255 -0.07275,0.05961 -0.147216,0.104323 -0.223397,0.134129 -0.07619,0.02981 -0.144084,0.05461 -0.203694,0.07442 -0.05962,0.0198 -0.08942,0.04628 -0.08942,0.07942 -3e-6,0.01334 0.0033,0.02662 0.01,0.03986 0.0067,0.01324 0.01323,0.02642 0.0197,0.03956 0.03314,0.0067 0.06628,0.01495 0.09942,0.02486 0.03314,0.0099 0.06628,0.02485 0.09942,0.04486 0.0198,-0.01334 0.06941,-0.03158 0.148831,-0.05471 0.07941,-0.02314 0.129124,-0.03471 0.149133,-0.03471 0.03314,0 0.06618,0 0.09912,0 0.03981,0 0.07628,0.0066 0.109425,0.0197 l 0.05971,-0.05941 c 0.297859,-0.0067 0.580869,0.01152 0.84903,0.05456 0.268153,0.04304 0.544595,0.0679 0.829327,0.07457 -5e-6,-0.02647 0.0033,-0.053 0.01,-0.07957 0.0067,-0.02657 0.01,-0.0531 0.01,-0.07957 -5e-6,-0.02647 -5e-6,-0.04961 0,-0.06941 -5e-6,-0.0198 -0.01324,-0.03637 -0.03971,-0.04971 -0.218653,-0.04628 -0.369352,-0.120741 -0.452098,-0.223397 -0.08275,-0.102655 -0.124131,-0.279776 -0.124126,-0.531363 -5e-6,-0.02647 0.0033,-0.05133 0.01,-0.07457 0.0067,-0.02324 0.01,-0.04809 0.01,-0.07457 l -0.109425,-0.01 -0.02971,-0.04941 0.149133,-0.297964 c -0.02668,-0.05315 -0.05159,-0.109474 -0.07472,-0.168988 -0.02314,-0.05951 -0.03471,-0.115839 -0.03471,-0.168987 -4e-6,-0.112555 0.01823,-0.226729 0.05471,-0.342522 0.03647,-0.115788 0.05471,-0.233296 0.05471,-0.352524 -4e-6,-0.225112 -0.0067,-0.450277 -0.02001,-0.675496 -0.01334,-0.225212 -0.02324,-0.453711 -0.02971,-0.685498 0.09255,-0.11902 0.208388,-0.287805 0.347523,-0.506356 0.139126,-0.218543 0.288158,-0.455276 0.447097,-0.710202 0.158929,-0.254916 0.32443,-0.518122 0.496505,-0.789619 0.172064,-0.271485 0.340899,-0.518172 0.506508,-0.740059 0.165596,-0.221875 0.322863,-0.408948 0.471801,-0.561221 0.148924,-0.152258 0.27977,-0.238292 0.392536,-0.258103 0.0198,-0.0067 0.06446,-0.0249 0.133978,-0.05471 0.06951,-0.0298 0.140689,-0.06456 0.213545,-0.104272 0.07284,-0.0397 0.137405,-0.07941 0.193692,-0.119125 0.05627,-0.0397 0.08441,-0.06956 0.08442,-0.08957 z"
         style=""
         id="path3044" />
    </g>
    <g
       style="font-size:8.77623081px;font-style:normal;font-variant:normal;font-weight:normal;font-stretch:normal;line-height:125%;letter-spacing:0px;word-spacing:0px;fill:#ffffff;fill-opacity:1;stroke:none;font-family:Windlass;-inkscape-font-specification:Windlass"
       id="text3037">
      <path
         d="m 98.292306,32.166475 0,-0.122933 c -0.08178,-0.03499 -0.166597,-0.05249 -0.254438,-0.0525 -0.116959,7e-6 -0.247123,0.02045 -0.390495,0.06133 -0.143384,0.0409 -0.273549,0.07598 -0.390495,0.105257 -0.03518,-0.0116 -0.08785,-0.02035 -0.158019,-0.02625 -0.07018,-0.0059 -0.146241,-0.0088 -0.228191,-0.0088 -0.07607,7e-6 -0.150659,-0.0015 -0.223771,-0.0044 -0.07312,-0.0029 -0.130215,-0.0044 -0.171277,-0.0044 -0.04679,-0.02338 -0.08768,-0.03508 -0.122666,-0.03509 -0.01179,7e-6 -0.02353,0.003 -0.03522,0.0088 -0.0117,0.0059 -0.02049,-0.0029 -0.02638,-0.02625 -0.04089,6e-6 -0.07888,-0.0029 -0.113961,-0.0088 -0.03509,-0.0059 -0.07022,-0.0088 -0.105391,-0.0088 -0.03518,7e-6 -0.07321,0.0205 -0.114095,0.06147 -0.04089,0.04098 -0.06134,0.07906 -0.06133,0.114229 -5e-6,0.035 0.01169,0.06714 0.03509,0.09642 0.02339,0.02929 0.04383,0.05857 0.06133,0.08785 0.128731,0.0057 0.250147,0.02469 0.364247,0.05691 0.11409,0.03224 0.213544,0.07906 0.298362,0.140477 0.08481,0.06143 0.149176,0.141866 0.193105,0.241314 0.04392,0.09946 0.05999,0.219447 0.04821,0.359962 l 0,0.04366 0.01768,0.04392 0.07901,0.07901 c -0.111244,0.333542 -0.169765,0.680202 -0.175562,1.039981 -0.0058,0.359789 -0.0087,0.715198 -0.0087,1.066229 -5e-6,0.117134 0.01754,0.231274 0.05263,0.34242 0.03508,0.111152 0.05557,0.222346 0.06147,0.333581 -0.02929,0.05839 -0.05272,0.108072 -0.07031,0.149047 -0.01759,0.04098 -0.02639,0.0937 -0.02638,0.158153 -5e-6,0.08178 0.0058,0.169494 0.01754,0.263143 0.01169,0.09365 -0.0059,0.181456 -0.05263,0.26341 -0.0234,-0.02928 -0.0658,-0.09075 -0.127219,-0.184401 -0.06143,-0.09365 -0.133117,-0.198995 -0.215067,-0.316038 -0.08196,-0.117039 -0.166818,-0.239883 -0.254572,-0.368533 -0.08776,-0.128645 -0.171103,-0.245641 -0.250019,-0.350991 -0.07892,-0.105343 -0.146195,-0.193101 -0.201809,-0.263276 -0.05562,-0.07017 -0.09218,-0.105253 -0.109676,-0.105257 -0.02929,-0.04696 -0.05562,-0.08945 -0.07901,-0.127487 -0.0234,-0.03803 -0.04678,-0.08043 -0.07017,-0.127219 l -0.114095,-0.08758 c 0.0057,-0.09374 -0.01188,-0.171317 -0.05276,-0.232743 -0.04089,-0.06142 -0.0862,-0.114047 -0.135923,-0.157886 -0.04973,-0.04383 -0.09508,-0.08333 -0.136057,-0.118514 -0.04098,-0.03517 -0.06147,-0.07615 -0.06147,-0.122934 -0.03518,-0.07606 -0.07616,-0.150649 -0.122934,-0.223771 -0.04678,-0.07311 -0.09504,-0.144757 -0.144762,-0.214933 -0.04973,-0.07017 -0.09508,-0.143284 -0.136057,-0.219353 -0.04098,-0.07606 -0.07316,-0.155067 -0.09655,-0.237029 -0.01161,0.0175 -0.02473,0.03652 -0.03937,0.05705 -0.01465,0.02054 -0.0308,0.03081 -0.04848,0.0308 l -0.0086,-0.0088 c -3e-6,-0.02928 -0.01902,-0.08927 -0.05705,-0.179981 -0.03803,-0.0907 -0.08776,-0.193099 -0.149181,-0.3072 -0.06142,-0.11409 -0.128739,-0.232559 -0.201943,-0.35541 -0.07321,-0.122838 -0.144898,-0.23546 -0.215067,-0.337867 -0.07017,-0.102393 -0.134497,-0.185777 -0.192971,-0.250152 -0.05848,-0.06436 -0.102358,-0.09655 -0.131638,-0.09655 -0.128739,0.01179 -0.266269,0.02938 -0.412591,0.05276 -0.146326,0.0234 -0.286713,0.03215 -0.421162,0.02625 -0.08196,-0.0059 -0.174135,-0.01321 -0.276533,-0.02196 -0.102401,-0.0087 -0.207703,-0.01896 -0.315905,-0.03067 -0.108204,-0.01169 -0.212032,-0.02191 -0.311485,-0.03067 -0.09945,-0.0087 -0.181411,-0.01312 -0.245868,-0.01312 -0.05857,6e-6 -0.11414,0.03219 -0.166724,0.09655 -0.05258,0.06438 -0.07888,0.11995 -0.07888,0.166724 0,0.04089 0.02044,0.07013 0.06133,0.08771 0.04089,0.01759 0.09061,0.02929 0.149181,0.03509 0.05857,0.0058 0.114184,0.0087 0.166857,0.0087 0.05839,6e-6 0.102221,0.003 0.131504,0.0088 0.09356,0.0175 0.168152,0.05406 0.223772,0.109676 0.05562,0.05563 0.0995,0.119994 0.131638,0.193105 0.03214,0.07312 0.0541,0.152089 0.06589,0.236895 0.01178,0.08482 0.01768,0.168203 0.01768,0.250153 l -0.07044,0.131772 0,3.264571 c 0.01768,0.02929 0.03821,0.07611 0.0616,0.140477 0.02339,0.06437 0.03508,0.111196 0.03509,0.140476 -10e-7,0.163735 -0.01754,0.326084 -0.05263,0.487048 -0.03509,0.160967 -0.05263,0.32037 -0.05263,0.478209 -10e-7,0.02928 0.0014,0.05709 0.0043,0.08343 0.0029,0.02634 0.0072,0.05415 0.01312,0.08343 -0.0059,0.07606 -0.01611,0.150655 -0.03067,0.223771 -0.01455,0.07312 -0.03361,0.144763 -0.05718,0.214933 -0.01161,0.02928 -0.04959,0.05125 -0.113961,0.06589 -0.06437,0.01464 -0.136058,0.03223 -0.215067,0.05276 -0.07901,0.02053 -0.149226,0.0454 -0.210648,0.07459 -0.06142,0.02919 -0.09213,0.07013 -0.09213,0.1228 -1e-6,0.05267 0.02781,0.105346 0.08343,0.158019 0.05562,0.05267 0.106819,0.08481 0.153601,0.09642 l 0.05276,-0.04366 c 0.128557,-0.02928 0.258678,-0.05124 0.390361,-0.06589 0.131682,-0.01464 0.264837,-0.02785 0.399468,-0.03964 0.02339,0.01178 0.05115,0.02205 0.08329,0.0308 0.03214,0.0087 0.06285,0.0044 0.09213,-0.01312 0.09945,0.01161 0.209173,0.03352 0.329162,0.06575 0.119986,0.03223 0.229706,0.04834 0.329162,0.04834 0.04678,0 0.09066,-0.02781 0.131638,-0.08343 0.04098,-0.05562 0.07602,-0.09807 0.105123,-0.127353 -0.05839,-0.09356 -0.112446,-0.149091 -0.16217,-0.16659 -0.04973,-0.0175 -0.12432,-0.03803 -0.223772,-0.0616 l -0.03535,0 -0.06133,-0.06133 c -0.07017,0.02339 -0.127221,0.0058 -0.171143,-0.05263 -0.04393,-0.05848 -0.07758,-0.13744 -0.100972,-0.236895 -0.02339,-0.09945 -0.03799,-0.213548 -0.04379,-0.342286 -0.0058,-0.128735 -0.0087,-0.251579 -0.0087,-0.368533 -2e-6,-0.123021 0.0014,-0.23426 0.0043,-0.333715 0.0029,-0.09945 0.0043,-0.169623 0.0043,-0.210514 l -0.07874,0 c 0.0291,-0.09356 0.05682,-0.21935 0.08316,-0.377372 0.02634,-0.158016 0.0395,-0.286753 0.03951,-0.386209 -10e-7,-0.04089 -0.0087,-0.08329 -0.02625,-0.127219 -0.0175,-0.04392 -0.03509,-0.08338 -0.05276,-0.118381 l 0.0616,-0.122934 c 0.01161,-0.222294 0.0291,-0.444637 0.0525,-0.667028 0.02339,-0.222384 0.03508,-0.441781 0.03509,-0.658191 -0.035,-0.08784 -0.07589,-0.178548 -0.122666,-0.272115 0.04089,-0.04678 0.06718,-0.124312 0.07887,-0.232609 0.01169,-0.108288 0.01754,-0.226713 0.01754,-0.355276 -10e-7,-0.128731 0.0015,-0.260414 0.0044,-0.395048 0.0029,-0.134623 0.01317,-0.251664 0.03067,-0.351124 0.07606,0.08785 0.138957,0.171282 0.188686,0.250286 0.04972,0.07902 0.09945,0.15798 0.149181,0.236895 0.04972,0.07893 0.105299,0.159364 0.166723,0.241314 0.06142,0.08196 0.141948,0.172666 0.241582,0.272115 0.0116,0.01161 0.01888,0.04085 0.02183,0.08771 0.0029,0.04687 0.01022,0.08495 0.02183,0.114229 0.03517,0.07018 0.07762,0.135973 0.127352,0.19739 0.04973,0.06143 0.09218,0.124278 0.127353,0.188552 0.06428,0.0234 0.09642,0.06732 0.09642,0.131772 l 0,0.03509 c 0.134626,0.210696 0.26921,0.422817 0.403752,0.636362 0.134537,0.213553 0.27787,0.422728 0.43,0.627524 0.01178,0.01161 0.03522,0.04228 0.07031,0.092 0.03508,0.04973 0.05843,0.07459 0.07004,0.07459 l 0.02652,0 c 0.116948,0.198911 0.238319,0.403711 0.364114,0.614401 0.125786,0.210694 0.267691,0.400853 0.425715,0.570476 l 0.02625,-0.01768 c 0.06427,0.134631 0.12275,0.24145 0.175428,0.320458 0.05267,0.07901 0.105341,0.152129 0.158019,0.219352 0.05267,0.06723 0.108243,0.134496 0.166724,0.20181 0.05847,0.06732 0.125741,0.153645 0.20181,0.258991 -6e-6,0.0175 0.0015,0.03357 0.0044,0.04821 0.0029,0.01464 0.0015,0.02777 -0.0044,0.03937 l 0.05276,0.08785 0.0088,0 c 0.01749,0.04107 0.05111,0.118604 0.100838,0.23261 0.04972,0.114006 0.105296,0.231003 0.166724,0.35099 0.06142,0.119987 0.124311,0.226807 0.188686,0.320458 0.06436,0.09365 0.119936,0.140476 0.166723,0.140476 0.01178,0 0.02499,-0.0029 0.03964,-0.0088 0.01463,-0.0059 0.02776,-0.01179 0.03937,-0.01768 l 0.04392,-0.04392 c 0.0059,-0.04089 0.01763,-0.07888 0.03522,-0.113961 0.01758,-0.03509 0.02637,-0.07316 0.02638,-0.114229 -7e-6,-0.52066 -0.0015,-1.034044 -0.0044,-1.540153 -0.003,-0.506106 0.01022,-1.022436 0.0395,-1.548991 0.0116,-0.116949 0.02472,-0.236892 0.03937,-0.359828 0.01463,-0.122931 0.02196,-0.24582 0.02196,-0.368667 -6e-6,-0.08177 -0.01317,-0.160694 -0.03951,-0.236762 -0.02634,-0.07606 -0.03951,-0.155069 -0.0395,-0.237028 -7e-6,-0.07017 0.0044,-0.140383 0.01312,-0.210648 0.0087,-0.07026 0.01312,-0.137526 0.01312,-0.20181 -6e-6,-0.04106 -0.0029,-0.08204 -0.0087,-0.122933 -0.0058,-0.04088 -0.0146,-0.07597 -0.02638,-0.105257 0.01767,-0.04678 0.03379,-0.124313 0.04834,-0.23261 0.01455,-0.108287 0.02914,-0.229703 0.04379,-0.364248 0.01464,-0.134534 0.03075,-0.272019 0.04834,-0.412457 0.01758,-0.140426 0.04102,-0.269162 0.07031,-0.38621 0.02928,-0.117035 0.06583,-0.213587 0.109676,-0.289657 0.04383,-0.07606 0.09503,-0.114089 0.1536,-0.114095 0.0059,6e-6 0.0059,0.003 0,0.0088 -0.0059,0.0059 -0.01179,0.0088 -0.01768,0.0088 l -0.0088,-0.04392 -0.0086,-0.01741 0.04393,-0.0088 -0.0088,0.0088 -0.02652,0.0086 0,0.0088 0.0616,0.01768 c 0.02338,-0.01767 0.05557,-0.03968 0.09655,-0.06602 0.04097,-0.02633 0.08048,-0.05409 0.118515,-0.08329 0.03802,-0.02919 0.07458,-0.0599 0.109676,-0.09213 0.03508,-0.03222 0.05842,-0.05709 0.07004,-0.07459 z"
         style=""
         id="path3047" />
      <path
         d="m 104.59701,31.394056 c -0.0177,-0.0291 -0.0426,-0.06124 -0.0747,-0.09642 -0.0321,-0.03517 -0.0658,-0.05275 -0.10097,-0.05276 -0.0761,8e-6 -0.13602,0.04246 -0.17985,0.127353 -0.0438,0.08491 -0.0848,0.179988 -0.1228,0.285238 -0.038,0.105264 -0.0775,0.200343 -0.11851,0.285238 -0.041,0.08491 -0.0907,0.12736 -0.14931,0.127353 -0.21052,7e-6 -0.42403,-0.02195 -0.64052,-0.06589 -0.2165,-0.04392 -0.43304,-0.06588 -0.64962,-0.06589 -0.10517,7e-6 -0.21775,0.02197 -0.33773,0.06589 -0.11999,0.04393 -0.22677,0.06589 -0.32032,0.06589 -0.29837,7e-6 -0.57334,0.05116 -0.82492,0.153466 -0.25158,0.102318 -0.50031,0.238375 -0.74617,0.408172 -0.006,0.01161 -0.013,0.01594 -0.0218,0.01299 -0.009,-0.0029 -0.0133,-0.01022 -0.0133,-0.02183 0,-0.01178 0,-0.01767 0,-0.01768 0.006,6e-6 -0.006,6e-6 -0.0351,0 -0.0995,6e-6 -0.20771,0.03804 -0.324746,0.114095 -0.117043,0.07607 -0.232611,0.175568 -0.346705,0.298496 -0.114096,0.122939 -0.225245,0.26047 -0.333447,0.412591 -0.108204,0.152132 -0.204712,0.304215 -0.289524,0.456247 -0.08481,0.152043 -0.150654,0.295376 -0.197524,0.43 -0.04687,0.134634 -0.0703,0.248729 -0.0703,0.342286 l 0,0.03509 c -0.02911,0.04107 -0.06267,0.0762 -0.100704,0.10539 -0.03803,0.0292 -0.06874,0.06719 -0.09213,0.113962 0.0175,0.08785 0.01893,0.168334 0.0043,0.241448 -0.01464,0.07312 -0.03366,0.144765 -0.05705,0.214933 -0.02339,0.07017 -0.04531,0.141864 -0.06575,0.215067 -0.02044,0.07321 -0.03067,0.153648 -0.03067,0.241314 0,0.08196 0.02044,0.212169 0.06133,0.390629 0.04089,0.178466 0.09204,0.36425 0.153466,0.557353 0.06142,0.193107 0.127263,0.370097 0.197524,0.530972 0.07026,0.160877 0.13753,0.26176 0.20181,0.302647 l 0.114095,0.07017 -0.03509,0.09669 c -10e-7,0.04678 0.01611,0.100884 0.04834,0.162305 0.03223,0.06142 0.06879,0.122845 0.109676,0.184266 0.04089,0.06142 0.08477,0.118471 0.131639,0.171143 0.04687,0.05267 0.0878,0.0966 0.122799,0.131772 l 0.114096,-0.03535 c 0.105344,0.08196 0.212164,0.160966 0.320457,0.237029 0.108287,0.07606 0.220917,0.146324 0.337867,0.210782 l 0.0702,-0.07044 0.1141,0 c 0.0234,0.02928 0.0614,0.06004 0.11409,0.09227 0.0527,0.03223 0.10825,0.06294 0.16673,0.09213 0.0585,0.02919 0.11699,0.05406 0.17556,0.07459 0.0586,0.02053 0.10829,0.0308 0.14918,0.0308 0.0702,0 0.14181,0.0044 0.21493,0.01312 0.0731,0.0087 0.14771,0.01312 0.22377,0.01312 0.0234,0 0.0351,0.0029 0.0351,0.0088 0,0.01161 -0.003,0.01888 -0.009,0.02183 -0.006,0.0029 0.006,0.0044 0.0352,0.0044 0.14624,0 0.29247,-0.0146 0.43871,-0.04379 0.14623,-0.02919 0.28956,-0.05991 0.43,-0.09213 0.14043,-0.03223 0.28086,-0.06151 0.42129,-0.08785 0.14043,-0.02634 0.28091,-0.03656 0.42143,-0.03067 l 0.0263,0 c 0.0175,-0.03518 0.0453,-0.06298 0.0833,-0.08343 0.038,-0.02044 0.079,-0.03651 0.12293,-0.04821 0.0439,-0.01169 0.0893,-0.01902 0.13606,-0.02196 0.0468,-0.0029 0.0877,-0.0044 0.12293,-0.0044 0.0468,0 0.0892,0.03803 0.12722,0.114095 0.038,0.07606 0.0731,0.162349 0.10526,0.258857 0.0321,0.09651 0.0614,0.191587 0.0877,0.285238 0.0263,0.09365 0.0541,0.158063 0.0834,0.193239 l 0.26327,0 c 0.006,-0.03518 0.0191,-0.06883 0.0395,-0.100972 0.0204,-0.03214 0.0307,-0.0658 0.0307,-0.100971 -10e-6,-0.08785 -0.0146,-0.17708 -0.0439,-0.267696 -0.0293,-0.09061 -0.0615,-0.181275 -0.0966,-0.27198 -0.0351,-0.0907 -0.0673,-0.182883 -0.0965,-0.276534 -0.0293,-0.09365 -0.0439,-0.184311 -0.0439,-0.271981 0,-0.11713 0.0117,-0.234171 0.0352,-0.351124 0.0235,-0.116951 0.0484,-0.233948 0.0747,-0.35099 0.0263,-0.11704 0.0512,-0.232608 0.0746,-0.346705 0.0234,-0.114094 0.0351,-0.226761 0.0351,-0.338001 0,-0.04089 -0.001,-0.08329 -0.004,-0.127219 -0.003,-0.04392 -0.0161,-0.08338 -0.0395,-0.118381 -0.0878,0.0059 -0.16981,0.04102 -0.24587,0.105391 -0.0761,0.06437 -0.1141,0.146282 -0.11409,0.245734 l 0,0.03509 c -0.0468,0.06428 -0.0702,0.137399 -0.0702,0.219353 -1e-5,0.07606 -0.006,0.149182 -0.0174,0.219352 -0.0118,0.04678 -0.0674,0.122846 -0.16686,0.22819 -0.0995,0.105348 -0.21061,0.213595 -0.33345,0.324743 -0.12285,0.11115 -0.24132,0.207703 -0.35541,0.289658 -0.1141,0.08196 -0.19454,0.122934 -0.24131,0.122933 -0.0352,10e-7 -0.0674,0.01022 -0.0967,0.03067 -0.0293,0.02044 -0.0614,0.03067 -0.0964,0.03067 -0.0177,1e-6 -0.0265,0.0029 -0.0265,0.0088 -10e-6,0.01161 0.001,0.01888 0.004,0.02183 0.003,0.0029 -0.0102,0.0044 -0.0395,0.0044 -0.0468,0 -0.0877,-0.01022 -0.1228,-0.03067 -0.0351,-0.02044 -0.076,-0.03067 -0.1228,-0.03067 -0.0293,10e-7 -0.0527,0.0044 -0.0703,0.01312 -0.0176,0.0087 -0.0381,0.01312 -0.0615,0.01312 l -0.0613,0.06133 c -0.11696,-0.02928 -0.24128,-0.05999 -0.37295,-0.09213 -0.13169,-0.03214 -0.25601,-0.05116 -0.37296,-0.05705 l -0.0702,-0.07017 c -0.0352,0.01178 -0.0718,0.02352 -0.10981,0.03522 -0.038,0.0117 -0.0746,0.01754 -0.10981,0.01754 -0.0175,10e-7 -0.0321,0.0014 -0.0438,0.0043 -0.0117,0.0029 -0.0234,-0.0015 -0.0352,-0.01312 0.0177,-0.02928 -0.013,-0.09512 -0.092,-0.197524 -0.079,-0.102399 -0.17119,-0.21212 -0.27653,-0.329162 -0.10535,-0.11704 -0.21065,-0.226716 -0.31591,-0.329029 -0.10525,-0.102309 -0.17547,-0.171052 -0.21064,-0.206228 l -0.0964,0.01768 -0.05276,-0.05276 0.09668,-0.122933 c -0.0352,-0.07606 -0.07472,-0.175516 -0.118647,-0.298362 -0.04393,-0.122842 -0.0849,-0.250106 -0.122933,-0.381791 -0.03803,-0.13168 -0.07017,-0.258944 -0.09642,-0.381791 -0.02625,-0.122841 -0.03937,-0.225241 -0.03937,-0.3072 -10e-7,-0.175514 0.01607,-0.356879 0.04821,-0.544095 0.03214,-0.187209 0.07745,-0.371475 0.135923,-0.5528 0.05847,-0.181316 0.124316,-0.358306 0.197527,-0.530971 0.0732,-0.172656 0.15364,-0.33505 0.24131,-0.487182 l 0.009,-0.140343 c 0.0234,-0.01749 0.0746,-0.05695 0.1536,-0.11838 0.079,-0.06142 0.17114,-0.133105 0.2764,-0.215067 0.10525,-0.08195 0.21493,-0.166807 0.32903,-0.254572 0.11409,-0.08775 0.22234,-0.16819 0.32474,-0.241314 0.1024,-0.07311 0.18873,-0.13306 0.25899,-0.179847 0.0703,-0.04678 0.11414,-0.07017 0.13164,-0.07017 0.0643,7e-6 0.1257,0.01023 0.18427,0.03067 0.0586,0.02045 0.11998,0.03067 0.18426,0.03067 0.0761,7e-6 0.15065,-0.0058 0.22377,-0.01754 0.0731,-0.01169 0.15065,-0.01754 0.23261,-0.01754 0.0994,6e-6 0.22524,0.02487 0.37738,0.07459 0.15212,0.04973 0.29987,0.11553 0.44325,0.19739 0.14338,0.08187 0.26626,0.175479 0.36867,0.280819 0.10239,0.105352 0.15359,0.216501 0.1536,0.333448 l -0.009,0.04392 c 0.0293,0.05857 0.0512,0.118564 0.0658,0.179981 0.0145,0.06143 0.0394,0.115529 0.0746,0.162305 -0.0468,0.0234 -0.0526,0.05263 -0.0175,0.08771 0.0351,0.03509 0.0643,0.05263 0.0877,0.05263 l 0.11409,0 c 0.0234,-0.02338 0.0512,-0.04968 0.0834,-0.07887 0.0322,-0.02919 0.0483,-0.06432 0.0483,-0.105391 0,-0.157836 -0.0263,-0.317239 -0.079,-0.47821 -0.0527,-0.160959 -0.079,-0.320362 -0.079,-0.478209 0,-0.146407 0.007,-0.275188 0.022,-0.386344 0.0146,-0.111142 0.0351,-0.217916 0.0615,-0.320323 0.0263,-0.102393 0.0614,-0.204749 0.10526,-0.307067 0.0438,-0.102303 0.098,-0.21497 0.16244,-0.338 z"
         style=""
         id="path3049" />
    </g>
    <path
       sodipodi:type="arc"
       style="fill:#ffffff;fill-opacity:1;stroke:#000000;stroke-width:0;stroke-linecap:square;stroke-linejoin:round;stroke-miterlimit:4;stroke-opacity:1;stroke-dasharray:none;stroke-dashoffset:0"
       id="path3971"
       sodipodi:cx="-37.5"
       sodipodi:cy="19"
       sodipodi:rx="11.375"
       sodipodi:ry="14"
       d="m -26.125,19 a 11.375,14 0 1 1 -22.75,0 11.375,14 0 1 1 22.75,0 z"
       transform="translate(59.25,0.77295031)" />
    <g
       id="g3957"
       style="fill:#000000"
       transform="translate(59.25,0.77295031)">
      <g
         style="font-size:10.88811588px;font-style:normal;font-variant:normal;font-weight:normal;font-stretch:normal;line-height:125%;letter-spacing:0px;word-spacing:0px;fill:#000000;fill-opacity:1;stroke:none;font-family:Windlass;-inkscape-font-specification:Windlass"
         id="text3041">
        <path
           d="m -37.726774,13.679953 c -0.02194,-0.0361 -0.05284,-0.07597 -0.09271,-0.119621 -0.03988,-0.04363 -0.08164,-0.06545 -0.125269,-0.06546 -0.09437,10e-6 -0.16875,0.05268 -0.223125,0.157999 -0.05439,0.105342 -0.105174,0.223301 -0.15235,0.353877 -0.04719,0.130595 -0.0962,0.248554 -0.147034,0.353877 -0.05085,0.105341 -0.112594,0.158007 -0.185245,0.157999 -0.261178,8e-6 -0.526059,-0.02724 -0.794645,-0.08174 -0.268598,-0.05448 -0.537245,-0.08173 -0.805943,-0.08174 -0.13048,8e-6 -0.270148,0.02726 -0.419004,0.08174 -0.148865,0.0545 -0.281334,0.08175 -0.397405,0.08174 -0.370163,8e-6 -0.711302,0.06347 -1.023419,0.190396 -0.312124,0.126939 -0.6207,0.295736 -0.925729,0.506393 -0.0071,0.01441 -0.01612,0.01978 -0.02708,0.01611 -0.01097,-0.0036 -0.01645,-0.01267 -0.01645,-0.02708 -2e-6,-0.01461 -2e-6,-0.02192 0,-0.02193 0.0073,8e-6 -0.0072,8e-6 -0.04353,0 -0.123389,8e-6 -0.257685,0.04719 -0.402889,0.141551 -0.145207,0.09437 -0.288586,0.217816 -0.430135,0.370325 -0.141552,0.152523 -0.279448,0.323148 -0.413687,0.511876 -0.134242,0.188741 -0.253973,0.37742 -0.359193,0.566037 -0.105223,0.18863 -0.186908,0.366454 -0.245056,0.533474 -0.05815,0.167031 -0.08722,0.308581 -0.08722,0.424652 l 0,0.04353 c -0.03611,0.05095 -0.07775,0.09454 -0.124937,0.130751 -0.04718,0.03622 -0.08528,0.08335 -0.114304,0.141385 0.02171,0.108992 0.02348,0.208842 0.0053,0.299549 -0.01816,0.09072 -0.04176,0.179602 -0.07077,0.266654 -0.02902,0.08706 -0.05621,0.176002 -0.08158,0.26682 -0.02536,0.09083 -0.03805,0.190622 -0.03805,0.299384 0,0.101681 0.02536,0.263224 0.07609,0.484628 0.05073,0.221412 0.114193,0.451903 0.190396,0.691473 0.0762,0.239575 0.157888,0.459156 0.245056,0.658743 0.08717,0.199591 0.170624,0.324749 0.250372,0.375475 l 0.141551,0.08706 -0.04353,0.119953 c -10e-7,0.05804 0.01999,0.12516 0.05998,0.201361 0.03998,0.0762 0.08534,0.152406 0.136068,0.228608 0.05073,0.0762 0.105165,0.146979 0.163315,0.212326 0.05815,0.06535 0.108931,0.119843 0.15235,0.163481 l 0.141551,-0.04386 c 0.130694,0.101678 0.263218,0.199701 0.397571,0.294067 0.13435,0.09437 0.274073,0.181536 0.41917,0.261504 l 0.08706,-0.08739 0.141551,0 c 0.02902,0.03633 0.0762,0.07449 0.141551,0.11447 0.06535,0.03998 0.134293,0.07809 0.206844,0.114304 0.07254,0.03622 0.145147,0.06706 0.217808,0.09254 0.07266,0.02548 0.134349,0.03821 0.18508,0.03821 0.08705,0 0.175938,0.0054 0.266654,0.01628 0.09071,0.01085 0.183248,0.01628 0.277619,0.01628 0.02902,0 0.04352,0.0037 0.04353,0.01097 -4e-6,0.0144 -0.0036,0.02342 -0.0108,0.02708 -0.0072,0.0037 0.0074,0.0055 0.04369,0.0055 0.18142,0 0.362844,-0.01811 0.544273,-0.05433 0.181419,-0.03622 0.359244,-0.07432 0.533474,-0.114304 0.174219,-0.03998 0.348444,-0.07631 0.522674,-0.108987 0.174219,-0.03267 0.3485,-0.04536 0.522841,-0.03805 l 0.03256,0 c 0.0217,-0.04364 0.05615,-0.07814 0.103338,-0.103505 0.04718,-0.02536 0.09802,-0.0453 0.152516,-0.05981 0.05449,-0.01451 0.110753,-0.02359 0.168798,-0.02725 0.05803,-0.0037 0.10887,-0.0055 0.152516,-0.0055 0.05803,1e-6 0.110642,0.04718 0.157832,0.141551 0.04718,0.09437 0.09071,0.201417 0.130586,0.321148 0.03987,0.119731 0.07614,0.23769 0.108821,0.353877 0.03267,0.116186 0.06717,0.196099 0.103505,0.239739 l 0.326631,0 c 0.0073,-0.04364 0.02364,-0.0854 0.04901,-0.125269 0.02536,-0.03987 0.03804,-0.08163 0.03805,-0.125269 -8e-6,-0.108988 -0.01817,-0.219692 -0.05449,-0.332113 -0.03634,-0.112421 -0.07627,-0.224897 -0.119787,-0.337429 -0.04354,-0.112532 -0.08346,-0.226891 -0.119786,-0.343078 -0.03634,-0.116186 -0.0545,-0.228663 -0.05449,-0.337429 -7e-6,-0.145316 0.01456,-0.290522 0.04369,-0.435618 0.02912,-0.145094 0.06002,-0.290244 0.09271,-0.435452 0.03267,-0.145204 0.06351,-0.288582 0.09254,-0.430135 0.02901,-0.141548 0.04352,-0.281327 0.04353,-0.419336 -8e-6,-0.05072 -0.0018,-0.103336 -0.0055,-0.157832 -0.0037,-0.05449 -0.02,-0.103447 -0.04901,-0.146868 -0.108995,0.0073 -0.210672,0.0509 -0.305032,0.130752 -0.09437,0.07986 -0.141558,0.181483 -0.141551,0.304866 l 0,0.04353 c -0.05804,0.07975 -0.08706,0.170461 -0.08706,0.272136 -7e-6,0.09437 -0.0072,0.185082 -0.0216,0.272137 -0.01463,0.05804 -0.08363,0.152407 -0.20701,0.283101 -0.123393,0.130698 -0.261288,0.264994 -0.413687,0.402888 -0.152412,0.137897 -0.299389,0.257684 -0.440934,0.35936 -0.141557,0.101678 -0.241351,0.152517 -0.299384,0.152516 -0.04364,10e-7 -0.08363,0.01268 -0.119952,0.03805 -0.03634,0.02537 -0.07621,0.03805 -0.119621,0.03805 -0.02193,1e-6 -0.0329,0.0037 -0.03289,0.01096 -6e-6,0.0144 0.0018,0.02343 0.0055,0.02708 0.0037,0.0037 -0.01269,0.0055 -0.04901,0.0055 -0.05804,0 -0.108826,-0.01268 -0.15235,-0.03805 -0.04353,-0.02536 -0.09432,-0.03805 -0.15235,-0.03805 -0.03633,0 -0.06541,0.0054 -0.08722,0.01628 -0.02182,0.01085 -0.04724,0.01628 -0.07626,0.01628 l -0.07609,0.07609 c -0.145099,-0.03633 -0.299332,-0.07443 -0.462698,-0.114304 -0.163375,-0.03987 -0.317607,-0.06347 -0.462699,-0.07077 l -0.08706,-0.08706 c -0.04364,0.01462 -0.08905,0.02919 -0.136234,0.04369 -0.04719,0.01451 -0.0926,0.02177 -0.136234,0.02176 -0.02171,1e-6 -0.03982,0.0018 -0.05433,0.0053 -0.01451,0.0035 -0.02908,-0.0019 -0.04369,-0.01628 0.02193,-0.03633 -0.01612,-0.118013 -0.114137,-0.245056 -0.09803,-0.12704 -0.212385,-0.263163 -0.343078,-0.40837 -0.1307,-0.145205 -0.26134,-0.281273 -0.391923,-0.408205 -0.130588,-0.126929 -0.217701,-0.212213 -0.261338,-0.255855 l -0.11962,0.02193 -0.06546,-0.06546 0.119953,-0.152516 c -0.04364,-0.09437 -0.09271,-0.217751 -0.1472,-0.370159 -0.0545,-0.152402 -0.105334,-0.31029 -0.152516,-0.473664 -0.04718,-0.163367 -0.08706,-0.321255 -0.11962,-0.473663 -0.03256,-0.152402 -0.04885,-0.279443 -0.04885,-0.381124 -2e-6,-0.217749 0.01994,-0.442757 0.05981,-0.675025 0.03987,-0.232258 0.09608,-0.460866 0.168631,-0.685824 0.07255,-0.224947 0.154231,-0.444528 0.245056,-0.658743 0.09082,-0.214202 0.190615,-0.415674 0.299383,-0.604415 l 0.01097,-0.174114 c 0.02902,-0.0217 0.09254,-0.07066 0.190561,-0.146867 0.09802,-0.0762 0.212324,-0.165136 0.342912,-0.26682 0.130583,-0.10167 0.266651,-0.206947 0.408205,-0.315831 0.141547,-0.10887 0.275843,-0.208664 0.402888,-0.299384 0.127038,-0.0907 0.234142,-0.165079 0.321314,-0.223125 0.08716,-0.05803 0.141602,-0.08705 0.163315,-0.08706 0.07974,8e-6 0.155945,0.01269 0.228608,0.03805 0.07265,0.02537 0.148856,0.03805 0.228608,0.03805 0.09436,8e-6 0.186902,-0.0072 0.277619,-0.02177 0.09071,-0.0145 0.186902,-0.02176 0.288584,-0.02176 0.123381,8e-6 0.279441,0.03086 0.468181,0.09254 0.188729,0.0617 0.372036,0.143331 0.549922,0.244889 0.177873,0.101575 0.330334,0.217706 0.457382,0.348395 0.127034,0.130704 0.190555,0.268599 0.190562,0.413687 l -0.01097,0.05449 c 0.03632,0.07267 0.06351,0.147096 0.08158,0.223291 0.01805,0.07621 0.04889,0.14333 0.09254,0.201361 -0.05805,0.02903 -0.0653,0.0653 -0.02177,0.108822 0.04352,0.04353 0.07979,0.0653 0.108822,0.06529 l 0.141551,0 c 0.02901,-0.02901 0.06351,-0.06163 0.103504,-0.09786 0.03998,-0.03621 0.05997,-0.0798 0.05998,-0.130751 -8e-6,-0.195817 -0.03268,-0.393578 -0.09802,-0.593284 -0.06536,-0.199693 -0.09803,-0.397454 -0.09802,-0.593284 -7e-6,-0.181638 0.0091,-0.341409 0.02725,-0.479313 0.01816,-0.137887 0.04358,-0.270356 0.07626,-0.397405 0.03267,-0.127033 0.07619,-0.254019 0.130586,-0.380958 0.05438,-0.126922 0.121551,-0.2667 0.201527,-0.419336 z"
           style=""
           id="path3058" />
        <path
           d="m -29.943473,13.679953 c -0.02194,-0.0361 -0.05284,-0.07597 -0.09271,-0.119621 -0.03988,-0.04363 -0.08164,-0.06545 -0.125269,-0.06546 -0.09437,10e-6 -0.168749,0.05268 -0.223125,0.157999 -0.05439,0.105342 -0.105174,0.223301 -0.15235,0.353877 -0.04719,0.130595 -0.0962,0.248554 -0.147033,0.353877 -0.05085,0.105341 -0.112594,0.158007 -0.185246,0.157999 -0.261178,8e-6 -0.526059,-0.02724 -0.794645,-0.08174 -0.268598,-0.05448 -0.537245,-0.08173 -0.805942,-0.08174 -0.13048,8e-6 -0.270148,0.02726 -0.419004,0.08174 -0.148866,0.0545 -0.281334,0.08175 -0.397406,0.08174 -0.370163,8e-6 -0.711302,0.06347 -1.023419,0.190396 -0.312124,0.126939 -0.6207,0.295736 -0.925729,0.506393 -0.0071,0.01441 -0.01612,0.01978 -0.02708,0.01611 -0.01097,-0.0036 -0.01645,-0.01267 -0.01645,-0.02708 -2e-6,-0.01461 -2e-6,-0.02192 0,-0.02193 0.0073,8e-6 -0.0072,8e-6 -0.04353,0 -0.123389,8e-6 -0.257685,0.04719 -0.402888,0.141551 -0.145208,0.09437 -0.288586,0.217816 -0.430135,0.370325 -0.141553,0.152523 -0.279448,0.323148 -0.413688,0.511876 -0.134241,0.188741 -0.253972,0.37742 -0.359193,0.566037 -0.105222,0.18863 -0.186908,0.366454 -0.245056,0.533474 -0.05815,0.167031 -0.08722,0.308581 -0.08722,0.424652 l 0,0.04353 c -0.03611,0.05095 -0.07775,0.09454 -0.124937,0.130751 -0.04718,0.03622 -0.08529,0.08335 -0.114304,0.141385 0.02171,0.108992 0.02348,0.208842 0.0053,0.299549 -0.01816,0.09072 -0.04176,0.179602 -0.07078,0.266654 -0.02902,0.08706 -0.05621,0.176002 -0.08157,0.26682 -0.02536,0.09083 -0.03805,0.190622 -0.03805,0.299384 0,0.101681 0.02536,0.263224 0.07609,0.484628 0.05073,0.221412 0.114193,0.451903 0.190395,0.691473 0.0762,0.239575 0.157888,0.459156 0.245056,0.658743 0.08717,0.199591 0.170625,0.324749 0.250372,0.375475 l 0.141551,0.08706 -0.04353,0.119953 c -10e-7,0.05804 0.01999,0.12516 0.05998,0.201361 0.03998,0.0762 0.08534,0.152406 0.136068,0.228608 0.05073,0.0762 0.105165,0.146979 0.163315,0.212326 0.05815,0.06535 0.108931,0.119843 0.15235,0.163481 l 0.141551,-0.04386 c 0.130695,0.101678 0.263218,0.199701 0.397572,0.294067 0.134349,0.09437 0.274072,0.181536 0.41917,0.261504 l 0.08706,-0.08739 0.14155,0 c 0.02902,0.03633 0.0762,0.07449 0.141551,0.11447 0.06535,0.03998 0.134294,0.07809 0.206844,0.114304 0.07255,0.03622 0.145147,0.06706 0.217809,0.09254 0.07265,0.02548 0.134348,0.03821 0.185079,0.03821 0.08705,0 0.175938,0.0054 0.266654,0.01628 0.09071,0.01085 0.183248,0.01628 0.277619,0.01628 0.02902,0 0.04353,0.0037 0.04353,0.01097 -4e-6,0.0144 -0.0036,0.02342 -0.0108,0.02708 -0.0072,0.0037 0.0074,0.0055 0.04369,0.0055 0.18142,0 0.362844,-0.01811 0.544273,-0.05433 0.18142,-0.03622 0.359244,-0.07432 0.533474,-0.114304 0.17422,-0.03998 0.348444,-0.07631 0.522675,-0.108987 0.174219,-0.03267 0.348499,-0.04536 0.522841,-0.03805 l 0.03256,0 c 0.0217,-0.04364 0.05615,-0.07814 0.103339,-0.103505 0.04718,-0.02536 0.09802,-0.0453 0.152516,-0.05981 0.05449,-0.01451 0.110753,-0.02359 0.168797,-0.02725 0.05803,-0.0037 0.10887,-0.0055 0.152516,-0.0055 0.05803,1e-6 0.110642,0.04718 0.157833,0.141551 0.04718,0.09437 0.0907,0.201417 0.130585,0.321148 0.03987,0.119731 0.07614,0.23769 0.108822,0.353877 0.03267,0.116186 0.06717,0.196099 0.103505,0.239739 l 0.32663,0 c 0.0073,-0.04364 0.02364,-0.0854 0.04901,-0.125269 0.02536,-0.03987 0.03804,-0.08163 0.03805,-0.125269 -8e-6,-0.108988 -0.01817,-0.219692 -0.05449,-0.332113 -0.03634,-0.112421 -0.07626,-0.224897 -0.119786,-0.337429 -0.04354,-0.112532 -0.08347,-0.226891 -0.119787,-0.343078 -0.03634,-0.116186 -0.0545,-0.228663 -0.05449,-0.337429 -7e-6,-0.145316 0.01456,-0.290522 0.04369,-0.435618 0.02912,-0.145094 0.06002,-0.290244 0.09271,-0.435452 0.03267,-0.145204 0.06351,-0.288582 0.09254,-0.430135 0.02901,-0.141548 0.04352,-0.281327 0.04353,-0.419336 -7e-6,-0.05072 -0.0018,-0.103336 -0.0055,-0.157832 -0.0037,-0.05449 -0.02,-0.103447 -0.04901,-0.146868 -0.108995,0.0073 -0.210672,0.0509 -0.305032,0.130752 -0.09437,0.07986 -0.141558,0.181483 -0.141551,0.304866 l 0,0.04353 c -0.05804,0.07975 -0.08706,0.170461 -0.08706,0.272136 -7e-6,0.09437 -0.0072,0.185082 -0.0216,0.272137 -0.01463,0.05804 -0.08363,0.152407 -0.20701,0.283101 -0.123392,0.130698 -0.261288,0.264994 -0.413687,0.402888 -0.152411,0.137897 -0.299389,0.257684 -0.440934,0.35936 -0.141556,0.101678 -0.241351,0.152517 -0.299383,0.152516 -0.04364,10e-7 -0.08363,0.01268 -0.119953,0.03805 -0.03633,0.02537 -0.07621,0.03805 -0.11962,0.03805 -0.02194,1e-6 -0.0329,0.0037 -0.0329,0.01096 -5e-6,0.0144 0.0018,0.02343 0.0055,0.02708 0.0036,0.0037 -0.01269,0.0055 -0.04901,0.0055 -0.05804,0 -0.108827,-0.01268 -0.15235,-0.03805 -0.04353,-0.02536 -0.09432,-0.03805 -0.15235,-0.03805 -0.03633,0 -0.06541,0.0054 -0.08722,0.01628 -0.02182,0.01085 -0.04724,0.01628 -0.07626,0.01628 l -0.07609,0.07609 c -0.1451,-0.03633 -0.299333,-0.07443 -0.462699,-0.114304 -0.163374,-0.03987 -0.317607,-0.06347 -0.462698,-0.07077 l -0.08706,-0.08706 c -0.04364,0.01462 -0.08906,0.02919 -0.136235,0.04369 -0.04719,0.01451 -0.0926,0.02177 -0.136234,0.02176 -0.02171,1e-6 -0.03982,0.0018 -0.05433,0.0053 -0.01451,0.0035 -0.02908,-0.0019 -0.04369,-0.01628 0.02193,-0.03633 -0.01612,-0.118013 -0.114138,-0.245056 -0.09802,-0.12704 -0.212385,-0.263163 -0.343078,-0.40837 -0.130699,-0.145205 -0.26134,-0.281273 -0.391923,-0.408205 -0.130588,-0.126929 -0.2177,-0.212213 -0.261337,-0.255855 l -0.119621,0.02193 -0.06546,-0.06546 0.119953,-0.152516 c -0.04364,-0.09437 -0.09271,-0.217751 -0.1472,-0.370159 -0.05449,-0.152402 -0.105334,-0.31029 -0.152516,-0.473664 -0.04718,-0.163367 -0.08706,-0.321255 -0.11962,-0.473663 -0.03256,-0.152402 -0.04885,-0.279443 -0.04885,-0.381124 -2e-6,-0.217749 0.01993,-0.442757 0.05981,-0.675025 0.03987,-0.232258 0.09608,-0.460866 0.168632,-0.685824 0.07254,-0.224947 0.15423,-0.444528 0.245055,-0.658743 0.09082,-0.214202 0.190615,-0.415674 0.299384,-0.604415 l 0.01096,-0.174114 c 0.02902,-0.0217 0.09254,-0.07066 0.190562,-0.146867 0.09802,-0.0762 0.212323,-0.165136 0.342912,-0.26682 0.130582,-0.10167 0.26665,-0.206947 0.408204,-0.315831 0.141548,-0.10887 0.275844,-0.208664 0.402889,-0.299384 0.127037,-0.0907 0.234141,-0.165079 0.321313,-0.223125 0.08716,-0.05803 0.141602,-0.08705 0.163315,-0.08706 0.07974,8e-6 0.155946,0.01269 0.228608,0.03805 0.07265,0.02537 0.148857,0.03805 0.228608,0.03805 0.09436,8e-6 0.186902,-0.0072 0.277619,-0.02177 0.09071,-0.0145 0.186902,-0.02176 0.288584,-0.02176 0.123381,8e-6 0.279441,0.03086 0.468181,0.09254 0.188729,0.0617 0.372036,0.143331 0.549922,0.244889 0.177874,0.101575 0.330334,0.217706 0.457382,0.348395 0.127034,0.130704 0.190555,0.268599 0.190562,0.413687 l -0.01096,0.05449 c 0.03632,0.07267 0.06351,0.147096 0.08157,0.223291 0.01805,0.07621 0.04889,0.14333 0.09254,0.201361 -0.05804,0.02903 -0.0653,0.0653 -0.02176,0.108822 0.04352,0.04353 0.0798,0.0653 0.108821,0.06529 l 0.141551,0 c 0.02901,-0.02901 0.06351,-0.06163 0.103505,-0.09786 0.03998,-0.03621 0.05997,-0.0798 0.05998,-0.130751 -7e-6,-0.195817 -0.03268,-0.393578 -0.09802,-0.593284 -0.06536,-0.199693 -0.09803,-0.397454 -0.09802,-0.593284 -8e-6,-0.181638 0.0091,-0.341409 0.02725,-0.479313 0.01816,-0.137887 0.04358,-0.270356 0.07626,-0.397405 0.03267,-0.127033 0.0762,-0.254019 0.130586,-0.380958 0.05438,-0.126922 0.121551,-0.2667 0.201527,-0.419336 z"
           style=""
           id="path3060" />
      </g>
      <g
         style="font-size:38.46607208px;font-style:normal;font-variant:normal;font-weight:normal;font-stretch:normal;line-height:125%;letter-spacing:0px;word-spacing:0px;fill:#000000;fill-opacity:1;stroke:none;font-family:Windlass;-inkscape-font-specification:Windlass"
         id="text3053">
        <path
           d="m -21.568942,17.476621 c -3.2e-5,-0.179198 -0.05149,-0.403411 -0.154367,-0.67264 -0.102943,-0.269195 -0.212114,-0.538407 -0.327515,-0.807637 -0.115465,-0.269194 -0.224441,-0.544863 -0.326929,-0.827007 -0.102551,-0.282106 -0.153811,-0.538601 -0.15378,-0.769486 -3.1e-5,-0.256671 0.07705,-0.397537 0.231257,-0.422601 0.05084,-0.35919 -0.09042,-0.859463 -0.423775,-1.50082 -0.333416,-0.641313 -0.788494,-1.340169 -1.365236,-2.09657 -0.576801,-0.7563525 -1.230658,-1.5256418 -1.961572,-2.30787 -0.73097,-0.7821761 -1.461912,-1.4872929 -2.192829,-2.1153523 -0.730968,-0.6280031 -1.423368,-1.1472538 -2.077201,-1.5577538 -0.65388,-0.4104405 -1.185848,-0.6156757 -1.595905,-0.615706 -0.718443,3.03e-5 -1.481471,-0.1024894 -2.289088,-0.3075596 -0.807656,-0.2050088 -1.596119,-0.3075285 -2.365392,-0.3075595 -1.05104,3.1e-5 -2.198517,0.1794405 -3.442436,0.5382292 -1.243946,0.3588495 -2.500595,0.8460139 -3.769952,1.4614947 -1.269377,0.6155387 -2.5002,1.3529374 -3.692475,2.2121983 -1.192288,0.8593144 -2.250158,1.7952961 -3.173616,2.807948 -0.923463,1.0127 -1.667318,2.076831 -2.231567,3.192398 -0.564251,1.115607 -0.846376,2.250564 -0.846376,3.404872 0,0.205056 0.05146,0.37801 0.154367,0.51886 0.102911,0.140883 0.179801,0.288402 0.23067,0.442557 -0.0767,0.461746 -0.179215,0.955367 -0.30756,1.480864 -0.128345,0.525526 -0.192518,1.03206 -0.192518,1.519602 0,1.076862 0.141063,2.07056 0.423188,2.981097 0.282124,0.910558 0.833657,1.762998 1.6546,2.557322 -2e-6,0.128354 0.121691,0.423391 0.36508,0.885114 0.243384,0.461738 0.519053,0.949098 0.827006,1.462082 0.307948,0.512996 0.615703,0.987443 0.923266,1.423343 0.307555,0.435909 0.512595,0.692208 0.615119,0.768899 0.154166,0.102523 0.385031,0.179413 0.692596,0.23067 0.307554,0.05126 0.615309,0.115436 0.923265,0.192518 0.307945,0.07709 0.583613,0.179608 0.827007,0.30756 0.243379,0.127956 0.365073,0.307366 0.36508,0.538229 l -0.422601,0.653857 c 0.435898,0.205041 0.935975,0.397363 1.500233,0.576968 0.564242,0.179606 1.141209,0.327125 1.730903,0.442557 0.589674,0.115433 1.173097,0.205235 1.750272,0.269408 0.577151,0.06417 1.109119,0.09626 1.595905,0.09626 0.743451,0 1.493566,-0.05126 2.25035,-0.15378 0.756752,-0.102519 1.506868,-0.217952 2.25035,-0.346298 0.743446,-0.128344 1.493561,-0.250233 2.25035,-0.365667 0.756747,-0.115431 1.506863,-0.173148 2.250349,-0.173149 0.845961,-0.640943 1.781943,-1.397319 2.807948,-2.269132 1.025955,-0.871806 1.987567,-1.8207 2.884838,-2.846686 0.897216,-1.025974 1.647136,-2.096562 2.249763,-3.211767 0.602567,-1.115186 0.903865,-2.249947 0.903897,-3.404285 -3.2e-5,-0.666757 0.10914,-1.320614 0.327515,-1.961572 0.218312,-0.64093 0.327484,-1.282265 0.327516,-1.924008 z m -5.92463,0.269995 c -2.6e-5,0.589309 -0.07692,1.249426 -0.230669,1.980354 -0.153806,0.730957 -0.339672,1.487529 -0.557599,2.269719 -0.217977,0.782215 -0.43593,1.551504 -0.653857,2.307871 -0.217977,0.756386 -0.378213,1.442525 -0.480709,2.058418 -0.435929,0.359218 -0.794943,0.769493 -1.077045,1.230825 -0.282148,0.461346 -0.577186,0.909967 -0.885114,1.345867 -0.307973,0.435909 -0.647814,0.846184 -1.019525,1.230825 -0.371753,0.384648 -0.865178,0.666969 -1.480277,0.846962 l -0.423775,0.422601 c -0.128364,0.05165 -0.269427,0.122283 -0.423187,0.211888 -0.153799,0.08961 -0.320491,0.192129 -0.500078,0.307559 -0.179624,0.115435 -0.33986,0.211694 -0.480709,0.288778 -0.140884,0.07709 -0.249665,0.11563 -0.326341,0.115628 -0.513399,2e-6 -1.032846,-0.03209 -1.558341,-0.09626 -0.525528,-0.06417 -1.044583,-0.134604 -1.557167,-0.211301 l -0.269995,-0.308733 c -0.281748,-0.02504 -0.595764,-0.05693 -0.942048,-0.09567 -0.346311,-0.03874 -0.647805,-0.109365 -0.904483,-0.211888 l -0.268821,-0.268821 c -0.820953,-0.154168 -1.551895,-0.615898 -2.192829,-1.385192 -0.640954,-0.769285 -1.211465,-1.654007 -1.711534,-2.654168 -0.500085,-1.000147 -0.942446,-2.019475 -1.327084,-3.057987 -0.384652,-1.038491 -0.730754,-1.90404 -1.038307,-2.596648 l 0,-3.423067 c 0.281728,-0.615102 0.448224,-1.294589 0.499491,-2.038462 0.05125,-0.743837 0.141056,-1.44915 0.269408,-2.115939 0.07669,-0.410059 0.204837,-0.80116 0.384449,-1.173305 0.179598,-0.372102 0.378377,-0.737573 0.596337,-1.096414 0.217945,-0.358797 0.429441,-0.724072 0.634488,-1.095828 0.205032,-0.371708 0.371724,-0.7500922 0.500078,-1.1351529 0.385027,-0.050844 0.865931,-0.3006868 1.442712,-0.7495296 0.576762,-0.4487919 1.192271,-0.9232391 1.846532,-1.4233433 0.654236,-0.5000503 1.308288,-0.955324 1.962159,-1.3658226 0.653843,-0.410442 1.237071,-0.6156771 1.749685,-0.615706 0.666754,2.89e-5 1.33998,0.134635 2.01968,0.4038186 0.679665,0.2692407 1.307892,0.557822 1.884683,0.8657449 0.576751,0.3079782 1.089546,0.5965595 1.538384,0.8657449 0.448797,0.2692389 0.775725,0.403845 0.980787,0.4038186 0.05163,2.64e-5 0.122258,-0.019147 0.211887,-0.057521 0.08958,-0.038321 0.160214,-0.070407 0.211887,-0.096259 0.179192,0.4101054 0.454665,0.8780963 0.82642,1.403974 0.371708,0.5259279 0.775918,0.8655735 1.21263,1.0189381 -0.103327,0.128369 -0.244585,0.301518 -0.423775,0.519447 -0.179238,0.217975 -0.268845,0.41695 -0.268821,0.596923 -2.4e-5,0.230106 0.07041,0.608098 0.2113,1.133979 0.140843,0.525925 0.313796,1.071001 0.51886,1.635231 0.205015,0.56427 0.41025,1.096434 0.615706,1.596492 0.205406,0.500096 0.384815,0.839742 0.538229,1.018938 0.05163,0.205057 0.122255,0.403836 0.211888,0.596337 0.08958,0.192535 0.134384,0.391313 0.13441,0.596337 z"
           style=""
           id="path3063" />
      </g>
    </g>
    <path
       sodipodi:type="arc"
       style="fill:#ffffff;fill-opacity:1;stroke:#000000;stroke-width:0;stroke-linecap:square;stroke-linejoin:round;stroke-miterlimit:4;stroke-opacity:1;stroke-dasharray:none;stroke-dashoffset:0"
       id="path3981"
       sodipodi:cx="5.375"
       sodipodi:cy="14.875"
       sodipodi:rx="7.875"
       sodipodi:ry="10"
       d="m 13.25,14.875 a 7.875,10 0 1 1 -15.75,0 7.875,10 0 1 1 15.75,0 z"
       transform="translate(64.25,0.3539434)" />
    <g
       id="g3963"
       style="fill:#000000"
       transform="translate(64,1.1039434)">
      <g
         style="font-size:13px;font-style:normal;font-variant:normal;font-weight:normal;font-stretch:normal;line-height:125%;letter-spacing:0px;word-spacing:0px;fill:#000000;fill-opacity:1;stroke:none;font-family:Windlass;-inkscape-font-specification:Windlass"
         id="text3049">
        <path
           d="m 10.435883,12.450867 -1.4040226,0 c -0.00847,0.04338 -0.00622,0.106264 0.00674,0.188644 0.01295,0.08239 0.028092,0.169079 0.045426,0.260056 0.017314,0.09099 0.034638,0.17979 0.051971,0.266403 0.017314,0.08662 0.025976,0.151622 0.025986,0.194992 l 0,1.144165 -0.3380127,0 0,2.249054 -0.1039429,0 c -0.00874,0.190432 -0.00444,0.402681 0.012894,0.636749 0.017315,0.234072 0.034705,0.450817 0.05217,0.650238 0.060558,0.04311 0.155839,0.06685 0.2858429,0.07121 0.1299853,0.0044 0.255682,0.01739 0.3770905,0.03908 0.1213891,0.02169 0.2211001,0.06936 0.2991333,0.14302 0.078013,0.07366 0.095337,0.201473 0.051971,0.383438 l -1.781311,0 -0.1039429,-1.923736 c -0.00847,-0.0087 -0.047483,-0.01309 -0.1170349,-0.01309 l 0,-0.585175 c -0.0172,-0.01719 -0.069171,-0.02578 -0.1559143,-0.02579 -7.9e-6,0.0085 -0.00219,0.01924 -0.00655,0.03233 -0.00437,0.01309 -0.00655,0.04133 -0.00655,0.0847 -7.8e-6,0.04311 0.00217,0.103681 0.00655,0.181702 0.00436,0.07803 0.00654,0.182101 0.00655,0.312225 l -0.1039429,0 -0.1170349,1.936828 -1.7940064,0 c -0.043381,-0.207884 -0.02824,-0.348657 0.045426,-0.422317 0.073653,-0.07366 0.1733642,-0.11915 0.2991333,-0.136475 0.1257566,-0.01732 0.2536353,-0.02387 0.3836364,-0.01964 0.129988,0.0042 0.2296329,-0.01521 0.298935,-0.05832 0.017185,-0.173501 0.030144,-0.370741 0.038879,-0.59172 0.00872,-0.220976 0.021681,-0.444136 0.038879,-0.66948 -0.017199,-0.01719 -0.056078,-0.02578 -0.1166382,-0.02579 l 0,-2.262146 c -0.052111,5e-6 -0.1084459,5e-6 -0.1690064,0 -0.060838,5e-6 -0.1215377,0.0044 -0.1820984,0.01309 l 0,-1.092194 0.1559143,-0.962066 -2.0149841,0 0.6498413,4.303314 -0.9616699,0 c -4.3e-6,0.190432 0.00648,0.402681 0.01944,0.636749 0.012955,0.234072 0.028031,0.450817 0.045227,0.650238 0.060827,0.04311 0.1584223,0.06685 0.2927856,0.07121 0.1343539,0.0044 0.2621665,0.01739 0.3834381,0.03908 0.1212615,0.02169 0.2187244,0.06936 0.2923889,0.14302 0.073654,0.07366 0.088796,0.201473 0.045425,0.383438 l -1.7809143,0 -0.1039428,-1.936828 c -0.1214024,-0.02618 -0.2428012,-0.02618 -0.3641968,0 l -0.1297302,1.936828 -1.7813111,0 c -0.0518404,-0.207884 -0.0387483,-0.348657 0.039276,-0.422317 0.078022,-0.07366 0.1776668,-0.11915 0.298935,-0.136475 0.1212649,-0.01732 0.2468955,-0.02387 0.3768921,-0.01964 0.1299926,0.0042 0.2296375,-0.01521 0.2989349,-0.05832 0.017454,-0.173501 0.032662,-0.370741 0.045624,-0.59172 0.012958,-0.220976 0.028165,-0.444136 0.045624,-0.66948 -0.00873,-0.0087 -0.021822,-0.01309 -0.039276,-0.01309 -0.017194,3e-6 -0.060437,3e-6 -0.1297302,0 -0.060834,3e-6 -0.1561808,3e-6 -0.2860412,0 -0.1214008,3e-6 -0.299135,0.0044 -0.5332032,0.01309 l 0.6633301,-4.316009 -1.37823485,0 0,-0.897003 1.52105715,-0.02579 0.7149048,-0.05197 C 2.51903,11.428373 2.4150873,11.371971 2.3370667,11.319992 c -0.078026,-0.05196 -0.1409072,-0.09309 -0.1886445,-0.123383 -0.047742,-0.03027 -0.088936,-0.04542 -0.1235809,-0.04542 -0.025922,8e-6 -0.051841,0.01733 -0.077759,0.05197 -0.026186,-0.1042 -0.03055,-0.247286 -0.013092,-0.429261 0.017454,-0.181957 0.058647,-0.363923 0.1235809,-0.545898 C 2.1225003,10.04604 2.2113012,9.8878776 2.3239746,9.7535095 2.4366428,9.6191604 2.5753654,9.5519811 2.7401428,9.5519714 l 0.7018128,0 c -3.7e-6,9.7e-6 0.023866,0.017334 0.07161,0.051972 0.047736,0.034657 0.1040712,0.073669 0.1690063,0.1170349 0.064927,0.043385 0.1342224,0.091059 0.2078858,0.1430206 0.073655,0.051981 0.1365364,0.090926 0.1886444,0.1168366 0.043371,0.147328 0.084499,0.342319 0.1233825,0.584976 0.038875,0.242674 0.049719,0.455122 0.032532,0.637345 -0.017461,-0.02618 -0.054356,-0.03272 -0.1106873,-0.01964 -0.05634,0.0131 -0.119155,0.03915 -0.188446,0.07816 -0.069299,0.03902 -0.1407766,0.07797 -0.2144318,0.116837 -0.073663,0.03889 -0.1407763,0.07142 -0.2013397,0.0976 -3.8e-6,0.0087 0.00648,0.01521 0.01944,0.01944 0.012956,0.0042 0.04324,0.0085 0.090851,0.01289 0.047604,0.0044 0.1190807,0.0087 0.2144318,0.01309 0.095343,0.0044 0.2297676,0.01092 0.4032745,0.01964 l 2.3137207,0 0.7153015,-0.05197 c -0.017463,-0.03491 -0.047879,-0.05018 -0.091247,-0.04582 -0.043383,0.0044 -0.082395,-0.002 -0.1170349,-0.01924 -0.025927,-0.06082 -0.058393,-0.130251 -0.097397,-0.208282 -0.039019,-0.07802 -0.073666,-0.160336 -0.1039429,-0.246964 -0.030291,-0.08661 -0.049796,-0.175411 -0.058517,-0.266403 -0.00874,-0.09097 0.00859,-0.175477 0.051971,-0.253509 -0.00874,-0.01718 -0.041267,-0.02366 -0.097595,-0.01944 -0.056342,0.0042 -0.2145047,0.01072 -0.4744873,0.01944 l 0,-0.169007 c 0.052097,-0.01718 0.1280044,-0.05395 0.2277222,-0.11029 0.099704,-0.05633 0.2058951,-0.121324 0.318573,-0.1949923 C 6.9478383,9.9010358 7.0626249,9.8230126 7.1795349,9.7406158 7.29643,9.6582381 7.4068527,9.582397 7.5108032,9.513092 c 0.017448,0.043385 0.039202,0.088877 0.065262,0.1364747 0.026044,0.047617 0.047666,0.093108 0.064865,0.1364746 0.03464,-0.043366 0.062807,-0.093222 0.084503,-0.1495667 0.02168,-0.056326 0.041252,-0.1105453 0.058716,-0.1626587 0.034639,-0.00845 0.073585,0.00246 0.1168365,0.03273 0.043235,0.030293 0.086545,0.064941 0.1299286,0.1039429 0.043367,0.039021 0.086743,0.080215 0.130127,0.1235809 0.043367,0.043385 0.078015,0.073669 0.1039428,0.090851 0.034639,0.026193 0.086611,0.050063 0.1559143,0.07161 0.069286,0.021565 0.1451277,0.043186 0.2275238,0.064865 0.082378,0.021697 0.1668814,0.041203 0.2535096,0.058518 0.08661,0.01733 0.1645669,0.03472 0.2338714,0.05217 l 0,0.220977 c -0.069304,-0.01745 -0.1581055,-0.02829 -0.2664032,-0.03253 -0.1083159,-0.0042 -0.2231687,0.01522 -0.3445587,0.05832 -8.8e-6,0.09549 0.00436,0.195199 0.013092,0.299133 0.00872,0.103951 0.00442,0.210076 -0.012894,0.318375 -0.017333,0.108315 -0.054162,0.210142 -0.1104889,0.305481 -0.056344,0.09535 -0.1452112,0.173444 -0.2666016,0.234268 -8.4e-6,0.0087 0.00647,0.01521 0.01944,0.01944 0.012951,0.0042 0.043301,0.0085 0.091049,0.01289 0.047731,0.0044 0.1192744,0.0087 0.2146301,0.01309 0.095338,0.0044 0.2252668,0.01092 0.3897858,0.01964 l 1.573029,0.03888 z"
           style=""
           id="path3080" />
      </g>
      <g
         style="font-size:27.90696907px;font-style:normal;font-variant:normal;font-weight:normal;font-stretch:normal;line-height:125%;letter-spacing:0px;word-spacing:0px;fill:#000000;fill-opacity:1;stroke:none;font-family:Windlass;-inkscape-font-specification:Windlass"
         id="text3053-1">
        <path
           d="m 17.131657,13.217865 c -2.3e-5,-0.130006 -0.03735,-0.292672 -0.111992,-0.487997 -0.07468,-0.195299 -0.153888,-0.390612 -0.237611,-0.585937 -0.08377,-0.195299 -0.162831,-0.395296 -0.237186,-0.59999 -0.0744,-0.204666 -0.111589,-0.390752 -0.111566,-0.558258 -2.3e-5,-0.186214 0.0559,-0.288412 0.167776,-0.306595 0.03688,-0.260591 -0.0656,-0.623537 -0.307447,-1.0888389 C 16.051739,9.1249788 15.721582,8.6179618 15.303158,8.0691966 14.884692,7.5204659 14.410321,6.9623498 13.880046,6.3948466 13.34973,5.8273812 12.819435,5.3158221 12.289158,4.8601677 11.758844,4.4045542 11.256511,4.02784 10.782158,3.730024 10.30777,3.4322512 9.9218301,3.283354 9.6243353,3.283332 9.1031084,3.283354 8.5495344,3.2089763 7.9636117,3.0601988 7.3776609,2.9114658 6.8056344,2.8370882 6.2475307,2.8370657 5.4850057,2.8370882 4.6525156,2.967249 3.750058,3.2275487 2.8475806,3.4878925 1.9358868,3.8413281 1.014974,4.2878568 0.09404689,4.7344275 -0.7989105,5.269407 -1.6639008,5.8927971 -2.5289001,6.5162259 -3.2963807,7.1952767 -3.966345,7.9299513 c -0.6699686,0.7347094 -1.2096323,1.5067322 -1.6189926,2.3160707 -0.4093614,0.809369 -0.6140418,1.632774 -0.6140419,2.47022 1e-7,0.148768 0.037331,0.274244 0.1119924,0.37643 0.074662,0.102211 0.1304447,0.209235 0.1673499,0.321074 -0.055641,0.334995 -0.1300192,0.693115 -0.2231332,1.07436 -0.093114,0.381267 -0.1396709,0.748755 -0.1396711,1.102465 2e-7,0.781259 0.1023404,1.502182 0.307021,2.162773 0.2046802,0.660606 0.6048149,1.279047 1.200405,1.855326 -1.3e-6,0.09312 0.088287,0.307169 0.2648642,0.642147 0.1765742,0.334988 0.3765706,0.688566 0.5999896,1.060734 0.2234145,0.372176 0.4466893,0.716385 0.6698251,1.032629 0.22313,0.31625 0.3718853,0.502194 0.4462663,0.557833 0.1118469,0.07438 0.2793386,0.130163 0.5024753,0.16735 0.223129,0.03719 0.4464039,0.08375 0.6698252,0.139671 0.2234122,0.05593 0.4234086,0.130305 0.5999896,0.223133 0.17657077,0.09283 0.26485872,0.222993 0.2648641,0.390483 l -0.3065951,0.474371 c 0.31624178,0.148756 0.67904564,0.288285 1.08841266,0.418587 0.40935468,0.130304 0.82794177,0.237328 1.25576254,0.321073 0.4278059,0.08375 0.851077,0.148898 1.2698148,0.195455 0.4187203,0.04656 0.8046607,0.06984 1.1578224,0.06984 0.5393699,0 1.0835757,-0.03719 1.632619,-0.111566 0.5490203,-0.07438 1.0932261,-0.158123 1.632619,-0.251238 0.5393666,-0.09311 1.0835724,-0.181543 1.632619,-0.26529 0.5490171,-0.08375 1.0932228,-0.125618 1.6326188,-0.125619 0.613741,-0.465001 1.292792,-1.013749 2.037154,-1.646245 0.744326,-0.632491 1.441971,-1.32091 2.092938,-2.065259 0.650926,-0.744339 1.194989,-1.521046 1.632193,-2.330123 0.437159,-0.809063 0.65575,-1.632326 0.655773,-2.469794 -2.3e-5,-0.483729 0.07918,-0.958099 0.237611,-1.423112 0.158385,-0.464992 0.237588,-0.930278 0.237611,-1.39586 z m -4.298293,0.195881 c -1.9e-5,0.427541 -0.0558,0.906453 -0.16735,1.436738 -0.111585,0.530306 -0.24643,1.079196 -0.404535,1.646672 -0.158142,0.567493 -0.316265,1.125609 -0.474371,1.67435 -0.158141,0.548755 -0.274392,1.046546 -0.348752,1.493374 -0.316264,0.260611 -0.576728,0.558263 -0.781391,0.892958 -0.204698,0.334704 -0.418746,0.660177 -0.642147,0.97642 C 9.7913853,21.850509 9.544832,22.148161 9.2751575,22.427216 9.0054522,22.706277 8.6474744,22.9111 8.201223,23.041684 l -0.3074468,0.306595 c -0.093128,0.03747 -0.1954682,0.08872 -0.307021,0.153724 -0.1115801,0.06501 -0.2325148,0.139388 -0.3628042,0.223133 -0.1303161,0.08375 -0.2465667,0.153583 -0.3487519,0.209506 -0.1022113,0.05593 -0.1811311,0.08389 -0.2367596,0.08389 -0.3724687,1e-6 -0.7493248,-0.02328 -1.1305695,-0.06983 C 5.126602,23.902139 4.7500298,23.85104 4.3781521,23.795397 L 4.1822719,23.571412 C 3.9778651,23.553245 3.7500481,23.530109 3.4988203,23.502003 3.2475733,23.4739 3.0288406,23.422659 2.8426216,23.348279 L 2.647593,23.153251 C 2.0519954,23.041402 1.5217,22.706419 1.056705,22.1483 0.59169569,21.590187 0.1777927,20.948325 -0.18500521,20.222712 -0.54781503,19.49711 -0.86874599,18.757592 -1.147799,18.004156 -1.4268621,17.250735 -1.6779576,16.622783 -1.9010862,16.120299 l 0,-2.48342 c 0.2043923,-0.446254 0.325185,-0.939219 0.3623784,-1.478896 0.037184,-0.53965 0.1023356,-1.051351 0.1954544,-1.535105 0.055636,-0.297495 0.1486085,-0.581238 0.2789164,-0.8512268 0.13029767,-0.2699583 0.27451079,-0.535106 0.43263974,-0.795444 C -0.47357934,8.7159018 -0.32013999,8.450896 -0.17137876,8.181189 -0.02262947,7.9115162 0.09830515,7.6370003 0.19142547,7.3576404 0.47076107,7.3207534 0.81965461,7.1394935 1.2381071,6.8138599 1.6565449,6.4882634 2.1030946,6.1440539 2.5777575,5.7812305 3.0524029,5.4184462 3.5269152,5.0881471 4.0012956,4.7903321 4.4756558,4.4925582 4.898785,4.343661 5.2706846,4.3436401 c 0.4837271,2.09e-5 0.9721496,0.097677 1.4652692,0.2929686 0.4930938,0.195333 0.9488697,0.4046975 1.367329,0.6280942 0.4184309,0.2234368 0.790461,0.4328013 1.1160914,0.6280942 0.3255997,0.1953316 0.5627849,0.2929878 0.7115562,0.2929687 0.037457,1.91e-5 0.088698,-0.013891 0.1537236,-0.041731 0.06499,-0.027801 0.116234,-0.05108 0.153723,-0.069836 0.130003,0.2975297 0.329857,0.6370551 0.599564,1.0185771 0.269673,0.3815584 0.562925,0.6279698 0.879758,0.7392349 -0.07496,0.093132 -0.177446,0.2187502 -0.307447,0.3768565 -0.130037,0.1581405 -0.195046,0.3024956 -0.195029,0.4330656 -1.7e-5,0.1669405 0.05108,0.4411725 0.153298,0.8226969 0.102181,0.3815561 0.227657,0.7770068 0.376431,1.1863528 0.148737,0.409376 0.297634,0.795458 0.446692,1.158248 0.14902,0.362818 0.279181,0.609229 0.390483,0.739235 0.03745,0.148768 0.08869,0.292981 0.153723,0.43264 0.06499,0.139683 0.0975,0.283896 0.09751,0.43264 z"
           style=""
           id="path3083" />
      </g>
    </g>
    <path
       sodipodi:type="arc"
       style="fill:#ffffff;fill-opacity:1;stroke:#000000;stroke-width:0;stroke-linecap:square;stroke-linejoin:round;stroke-miterlimit:4;stroke-opacity:1;stroke-dasharray:none;stroke-dashoffset:0"
       id="path3981-2"
       sodipodi:cx="5.375"
       sodipodi:cy="14.875"
       sodipodi:rx="7.875"
       sodipodi:ry="10"
       d="m 13.25,14.875 a 7.875,10 0 1 1 -15.75,0 7.875,10 0 1 1 15.75,0 z"
       transform="translate(92.75,0.37500046)" />
    <g
       id="g3949"
       style="fill:#000000"
       transform="translate(64,1.2500005)">
      <g
         style="font-size:13px;font-style:normal;font-variant:normal;font-weight:normal;font-stretch:normal;line-height:125%;letter-spacing:0px;word-spacing:0px;fill:#000000;fill-opacity:1;stroke:none;font-family:Windlass;-inkscape-font-specification:Windlass"
         id="text3045">
        <path
           d="m 38.044006,16.166168 c -8e-6,-0.216875 -0.05198,-0.453127 -0.155914,-0.708755 -0.103951,-0.255622 -0.244789,-0.491741 -0.422516,-0.708359 -0.177742,-0.216609 -0.37928,-0.396459 -0.604614,-0.539551 -0.225349,-0.143082 -0.455054,-0.214625 -0.689118,-0.21463 -0.03465,5e-6 -0.09747,-0.01514 -0.188446,-0.04542 -0.09099,-0.03028 -0.18627,-0.06711 -0.285842,-0.110489 -0.09958,-0.04337 -0.194932,-0.08668 -0.286042,-0.129929 -0.09112,-0.04324 -0.158234,-0.07359 -0.201339,-0.09105 -0.04338,-0.0087 -0.104081,-0.02605 -0.182099,-0.05197 -0.07803,-0.02591 -0.16478,-0.06056 -0.260254,-0.103943 l 0.299134,-1.820191 0.07816,-1.9237364 c 0.147313,0.060576 0.292449,0.1298717 0.43541,0.2078858 0.142948,0.078033 0.272943,0.1647176 0.389984,0.2600556 0.117028,0.09536 0.210193,0.195001 0.279495,0.298935 0.06929,0.103951 0.103936,0.212258 0.103943,0.324921 l 0,0.07816 c 0.04337,0.07803 0.0759,0.160352 0.09759,0.246964 0.02168,0.08663 0.05421,0.164583 0.09759,0.233871 -0.03465,0.02593 -0.04986,0.0541 -0.04562,0.0845 0.0042,0.03042 0.01718,0.05859 0.03888,0.0845 0.02168,0.02593 0.04773,0.04761 0.07816,0.06506 0.03041,0.01746 0.05858,0.02619 0.0845,0.02618 l 0.169006,0 c 0.04337,-0.04337 0.09104,-0.08893 0.143021,-0.136673 0.05196,-0.04773 0.07795,-0.10625 0.07796,-0.175552 -8e-6,-0.242526 -0.03684,-0.476463 -0.110489,-0.701813 -0.07367,-0.225333 -0.110496,-0.463767 -0.110489,-0.7153017 -7e-6,-0.2078764 0.0087,-0.3941403 0.02599,-0.5587921 0.01732,-0.1646325 0.04767,-0.3206128 0.09105,-0.4679413 0.04337,-0.1473082 0.09534,-0.2968086 0.155914,-0.4485016 0.06056,-0.1516718 0.138583,-0.32286 0.23407,-0.513565 -0.02593,-0.052093 -0.06494,-0.1063121 -0.117035,-0.1626587 -0.05211,-0.056324 -0.11281,-0.084492 -0.182098,-0.084503 -0.121406,1.13e-5 -0.218935,0.067191 -0.292588,0.2015381 -0.07367,0.1343697 -0.136415,0.2752082 -0.188247,0.4225158 -0.01746,0.043386 -0.03049,0.082398 -0.03908,0.117035 -0.0086,0.034658 -0.02163,0.069306 -0.03908,0.1039428 -0.0172,0.060842 -0.04966,0.1367495 -0.0974,0.2277222 -0.04775,0.090993 -0.106263,0.1364847 -0.175552,0.1364746 -0.173244,1.01e-5 -0.348731,-0.013016 -0.526459,-0.039078 -0.17774,-0.026042 -0.353226,-0.052027 -0.526458,-0.077957 l 0.03888,-1.0529175 -1.052918,0.4419556 0.03888,0.5458984 c -0.0693,0.017466 -0.132115,0.032674 -0.188446,0.045624 -0.05634,0.01297 -0.114791,0.028046 -0.175354,0.045227 -0.07803,0.017466 -0.156051,0.037038 -0.23407,0.058716 -0.07803,0.021698 -0.15605,0.032542 -0.23407,0.032532 -0.0172,1.01e-5 -0.03663,-0.043366 -0.05832,-0.1301269 -0.02169,-0.086741 -0.04338,-0.179906 -0.06506,-0.2794953 -0.02169,-0.099568 -0.0412,-0.1927332 -0.05852,-0.2794952 -0.01733,-0.08674 -0.02599,-0.130116 -0.02599,-0.130127 l -0.962066,0.039276 0.02579,1.0529175 c -0.17324,0.095225 -0.32479,0.2295832 -0.454651,0.4030762 -0.0087,-0.026175 -0.04351,-0.039267 -0.104339,-0.039276 -0.121137,0.095489 -0.229377,0.1843558 -0.324723,0.2666015 -0.09535,0.082264 -0.190761,0.1581715 -0.286239,0.2277223 -0.294638,0.233814 -0.513434,0.465569 -0.656388,0.695267 -0.142955,0.229714 -0.214432,0.552584 -0.214431,0.968612 -1e-6,0.259997 0.06718,0.526466 0.201538,0.799408 0.134358,0.272956 0.309844,0.519919 0.526458,0.740891 0.216613,0.220983 0.459278,0.403015 0.727997,0.546097 0.268716,0.143091 0.533069,0.214635 0.793061,0.21463 l -0.377289,4.055755 c -0.103945,-0.06057 -0.233874,-0.153665 -0.389786,-0.279297 -0.155916,-0.125629 -0.307598,-0.255623 -0.455048,-0.389984 -0.147452,-0.134357 -0.277446,-0.264351 -0.389984,-0.389984 -0.112539,-0.125628 -0.173173,-0.214495 -0.1819,-0.266601 -0.02618,-0.112669 -0.03709,-0.22534 -0.03273,-0.338013 0.0044,-0.112668 -0.0281,-0.216611 -0.0974,-0.311829 0.01746,-0.07802 0.0088,-0.153861 -0.02598,-0.227524 -0.03478,-0.07366 -0.08246,-0.138653 -0.143021,-0.194992 -0.06057,-0.05633 -0.129863,-0.101823 -0.207886,-0.136474 -0.07802,-0.03464 -0.151683,-0.05197 -0.220978,-0.05197 -0.04338,0.0693 -0.06724,0.140776 -0.07161,0.214432 -0.0044,0.07366 -0.0065,0.140776 -0.0065,0.20134 0,0.173505 0.01732,0.344694 0.05197,0.513565 0.03465,0.168877 0.07148,0.335701 0.110489,0.500473 0.03901,0.164777 0.07584,0.331667 0.110489,0.500671 0.03465,0.169008 0.05197,0.34013 0.05197,0.513367 -1e-6,0.129863 -0.02162,0.259858 -0.06487,0.389984 -0.04324,0.130128 -0.09092,0.264486 -0.14302,0.403076 -0.04338,0.129863 -0.08887,0.264155 -0.136475,0.402878 -0.04761,0.138723 -0.07141,0.273015 -0.07141,0.402878 0,0.06083 0.01732,0.117167 0.05197,0.169006 0.01719,0.03465 0.03015,0.0607 0.03888,0.07816 0.0087,0.01746 0.01309,0.04774 0.01309,0.09085 l 0.455048,0 c 0.02592,-0.03465 0.04972,-0.07796 0.07141,-0.129929 0.02169,-0.05197 0.04113,-0.112605 0.05832,-0.1819 0.01745,-0.06057 0.03921,-0.127681 0.06526,-0.20134 0.02605,-0.07366 0.04767,-0.145269 0.06487,-0.214828 0.04337,-0.138591 0.08887,-0.259857 0.136474,-0.3638 0.04761,-0.103943 0.10619,-0.155914 0.175751,-0.155915 0.09521,1e-6 0.21648,0.01514 0.3638,0.04543 0.147317,0.03028 0.242664,0.09303 0.286041,0.188248 0.06057,-0.0085 0.125563,-0.01058 0.194992,-0.0063 0.06943,0.0042 0.138787,0.01071 0.208085,0.01944 l -0.169007,1.105285 0.79306,0.259857 -0.05197,-0.779968 0.233673,-0.42926 c 0.02618,-0.05184 0.06744,-0.07558 0.123779,-0.07121 0.05633,0.0044 0.116966,0.01951 0.1819,0.04543 0.06493,0.02592 0.129926,0.0562 0.194993,0.09085 0.06506,0.03465 0.127875,0.05634 0.188446,0.06506 0.06056,0.01746 0.121196,0.0283 0.1819,0.03253 0.06069,0.0042 0.125692,0.01071 0.194992,0.01944 l 0.01309,1.02713 0.923187,0 -0.09125,-1.092193 0.195191,0 c 0.06056,0 0.132039,-0.01514 0.214432,-0.04543 0.08238,-0.03028 0.169067,-0.06711 0.260055,-0.110488 0.09098,-0.04338 0.175481,-0.08887 0.25351,-0.136475 0.07802,-0.04761 0.138716,-0.0931 0.182098,-0.136475 l 0.12973,0 0.103943,0.103943 c 0.182224,-0.103942 0.353479,-0.210067 0.513764,-0.318374 0.160271,-0.108307 0.322797,-0.218795 0.487579,-0.331467 0.01718,1e-6 0.03451,0.0086 0.05197,0.02579 0.01719,1e-6 0.03226,0.0022 0.04523,0.0065 0.01295,0.0044 0.03252,0.0065 0.05872,0.0065 0.05183,-0.0521 0.112465,-0.119282 0.1819,-0.201538 0.06942,-0.08225 0.136599,-0.168873 0.201538,-0.259857 0.06492,-0.09098 0.121259,-0.181965 0.169007,-0.272949 0.04773,-0.09098 0.0716,-0.175485 0.07161,-0.25351 -8e-6,-0.06083 -0.0087,-0.104205 -0.02618,-0.130127 l 0.155914,-0.103943 -0.07776,-0.312225 c 0.08648,-0.07776 0.142748,-0.142687 0.168808,-0.194794 0.02604,-0.0521 0.03907,-0.13872 0.03908,-0.259857 z m -3.678863,-5.083282 -0.286041,2.145111 c -0.0693,6e-6 -0.134297,-0.0087 -0.194993,-0.02599 -0.0607,-0.01732 -0.1257,-0.03471 -0.194992,-0.05217 -0.208154,-0.03464 -0.37716,-0.07365 -0.507019,-0.117035 l 0.05197,-3.5229488 c 0.09521,9.5e-6 0.18183,0.015217 0.259857,0.045624 0.07802,0.030425 0.164771,0.045633 0.260254,0.045624 0.08648,9.4e-6 0.17092,-0.00435 0.253311,-0.013092 0.08238,-0.00872 0.171184,-0.017447 0.266403,-0.026184 z m -1.989197,1.378235 c -0.01719,-0.03464 -0.03663,-0.06935 -0.05832,-0.104142 -0.02169,-0.03477 -0.04563,-0.07372 -0.07181,-0.116836 -0.05184,-0.09547 -0.112409,-0.206028 -0.181702,-0.331665 -0.0693,-0.125624 -0.151684,-0.266462 -0.247161,-0.422516 l 0,-0.558991 c 0.03464,-0.05209 0.09316,-0.130118 0.175552,-0.234069 0.08239,-0.103935 0.179914,-0.216606 0.292587,-0.338013 l 0.01309,0.727997 z m 3.991089,3.951812 -0.05197,0.03888 -0.130126,-0.0127 c -0.06057,0.06057 -0.164517,0.162331 -0.311829,0.305283 -0.147325,0.142957 -0.296825,0.294639 -0.448502,0.455048 -0.151688,0.160412 -0.286046,0.316458 -0.403076,0.468139 -0.11704,0.151684 -0.175557,0.266537 -0.175552,0.344559 -0.0087,0.0085 -0.02606,0.0127 -0.05197,0.01269 -0.03465,1e-6 -0.0693,-0.0043 -0.103943,-0.01289 -0.03465,-0.0086 -0.0693,-0.01726 -0.103942,-0.02599 l -0.182099,-2.22287 0.169007,-1.066009 c 0.138585,0.02592 0.283721,0.04325 0.435409,0.05197 0.151677,0.0087 0.288218,0.05211 0.409622,0.130127 0.09521,0.06057 0.188308,0.155852 0.279297,0.285843 0.09098,0.129998 0.179844,0.268655 0.266602,0.41597 0.08675,0.147321 0.164768,0.296822 0.23407,0.448501 0.06929,0.151686 0.125624,0.279498 0.169006,0.383438 z m -2.45694,-1.871765 -0.155914,1.221924 0.03888,2.366089 c -0.09548,0.01719 -0.18435,0.03881 -0.266601,0.06487 -0.08226,0.02605 -0.171126,0.04767 -0.266602,0.06487 l -0.07776,-0.07776 c -0.04338,-0.0087 -0.08021,-0.01957 -0.110489,-0.03253 -0.03029,-0.01296 -0.06288,-0.01944 -0.09779,-0.01944 -0.06057,1e-6 -0.125502,0.01732 -0.194794,0.05197 l 0.142822,-1.455993 0.169007,-2.444245 c 0.0521,0.01746 0.10632,0.03267 0.162659,0.04562 0.05633,0.01297 0.114783,0.02817 0.175354,0.04562 0.156042,0.04312 0.281805,0.08213 0.377288,0.117035 0.01719,0.0085 0.03445,0.01706 0.05177,0.02579 0.01732,0.0087 0.03471,0.01746 0.05217,0.02618 z"
           style=""
           id="path3086" />
      </g>
      <g
         style="font-size:27.90696907px;font-style:normal;font-variant:normal;font-weight:normal;font-stretch:normal;line-height:125%;letter-spacing:0px;word-spacing:0px;fill:#000000;fill-opacity:1;stroke:none;font-family:Windlass;-inkscape-font-specification:Windlass"
         id="text3053-1-4">
        <path
           d="m 45.610798,13.071808 c -2.4e-5,-0.130006 -0.03735,-0.292672 -0.111993,-0.487997 -0.07468,-0.1953 -0.153888,-0.390612 -0.237611,-0.585937 -0.08377,-0.195299 -0.16283,-0.395296 -0.237185,-0.59999 -0.0744,-0.204667 -0.111589,-0.390753 -0.111567,-0.558258 -2.2e-5,-0.186214 0.0559,-0.288412 0.167776,-0.306596 C 45.1171,10.272439 45.014618,9.9094937 44.772771,9.4441919 44.530879,8.9789216 44.200722,8.4719046 43.782299,7.9231395 43.363832,7.3744088 42.889462,6.8162927 42.359186,6.2487895 41.828871,5.6813241 41.298575,5.169765 40.768298,4.7141106 40.237984,4.258497 39.735651,3.8817829 39.261298,3.5839669 38.786911,3.2861941 38.40097,3.1372968 38.103476,3.1372748 37.582249,3.1372968 37.028675,3.0629192 36.442752,2.9141417 35.856801,2.7654087 35.284775,2.6910311 34.726671,2.6910086 33.964146,2.6910311 33.131656,2.8211919 32.229198,3.0814916 31.326721,3.3418353 30.415027,3.695271 29.494114,4.1417997 28.573187,4.5883704 27.68023,5.1233499 26.815239,5.74674 25.95024,6.3701688 25.18276,7.0492196 24.512795,7.7838942 c -0.669968,0.7347094 -1.209632,1.5067321 -1.618992,2.3160708 -0.409362,0.809368 -0.614042,1.632774 -0.614042,2.47022 0,0.148768 0.03733,0.274244 0.111992,0.37643 0.07466,0.102211 0.130445,0.209235 0.16735,0.321074 -0.05564,0.334995 -0.130019,0.693114 -0.223133,1.07436 -0.09311,0.381267 -0.139671,0.748755 -0.139671,1.102465 0,0.781259 0.10234,1.502182 0.307021,2.162773 0.20468,0.660606 0.604815,1.279047 1.200405,1.855326 -2e-6,0.09312 0.08829,0.307169 0.264864,0.642147 0.176574,0.334988 0.376571,0.688566 0.59999,1.060734 0.223414,0.372176 0.446689,0.716385 0.669825,1.032629 0.22313,0.31625 0.371885,0.502194 0.446266,0.557833 0.111847,0.07438 0.279339,0.130163 0.502475,0.16735 0.223129,0.03719 0.446404,0.08375 0.669825,0.139671 0.223413,0.05593 0.423409,0.130305 0.59999,0.223133 0.176571,0.09283 0.264859,0.222993 0.264864,0.390483 l -0.306595,0.474371 c 0.316242,0.148756 0.679046,0.288285 1.088413,0.418587 0.409354,0.130304 0.827942,0.237328 1.255762,0.321073 0.427806,0.08375 0.851077,0.148898 1.269815,0.195455 0.41872,0.04656 0.804661,0.06983 1.157822,0.06983 0.53937,0 1.083576,-0.03719 1.632619,-0.111566 0.549021,-0.07438 1.093227,-0.158124 1.632619,-0.251238 0.539367,-0.09311 1.083573,-0.181543 1.632619,-0.26529 0.549018,-0.08374 1.093223,-0.125618 1.632619,-0.125619 0.613741,-0.465001 1.292792,-1.013749 2.037155,-1.646245 0.744325,-0.632491 1.441971,-1.32091 2.092937,-2.065259 0.650926,-0.74434 1.19499,-1.521046 1.632193,-2.330123 0.43716,-0.809063 0.655751,-1.632327 0.655773,-2.469794 -2.2e-5,-0.483729 0.07918,-0.958099 0.237612,-1.423112 0.158384,-0.464992 0.237587,-0.930278 0.237611,-1.39586 z m -4.298294,0.195881 c -1.8e-5,0.427541 -0.0558,0.906453 -0.167349,1.436738 -0.111586,0.530306 -0.246431,1.079196 -0.404536,1.646672 -0.158141,0.567493 -0.316265,1.125609 -0.47437,1.67435 -0.158142,0.548755 -0.274392,1.046545 -0.348752,1.493373 -0.316265,0.260612 -0.576728,0.558264 -0.781392,0.892959 -0.204697,0.334704 -0.418746,0.660177 -0.642146,0.97642 -0.223433,0.316251 -0.469987,0.613903 -0.739661,0.892958 -0.269705,0.279061 -0.627683,0.483884 -1.073935,0.614468 l -0.307447,0.306595 c -0.09313,0.03748 -0.195468,0.08872 -0.30702,0.153723 -0.111581,0.06501 -0.232515,0.139389 -0.362805,0.223134 -0.130316,0.08375 -0.246566,0.153582 -0.348752,0.209506 -0.102211,0.05593 -0.181131,0.08389 -0.236759,0.08389 -0.372469,1e-6 -0.749325,-0.02328 -1.13057,-0.06983 -0.381268,-0.04656 -0.75784,-0.09766 -1.129718,-0.153298 l -0.19588,-0.223985 c -0.204407,-0.01817 -0.432224,-0.0413 -0.683451,-0.06941 -0.251247,-0.0281 -0.46998,-0.07934 -0.656199,-0.153723 l -0.195029,-0.195028 c -0.595597,-0.111849 -1.125893,-0.446832 -1.590888,-1.004951 -0.465009,-0.558113 -0.878912,-1.199975 -1.24171,-1.925588 -0.36281,-0.725602 -0.683741,-1.465121 -0.962794,-2.218556 -0.279063,-0.753421 -0.530158,-1.381373 -0.753287,-1.883857 l 0,-2.48342 c 0.204392,-0.446254 0.325185,-0.939219 0.362378,-1.478896 0.03718,-0.53965 0.102336,-1.051352 0.195455,-1.535105 0.05564,-0.297496 0.148608,-0.5812377 0.278916,-0.851227 0.130298,-0.2699582 0.274511,-0.5351059 0.43264,-0.795444 0.158118,-0.2603053 0.311557,-0.5253111 0.460319,-0.7950181 0.148749,-0.2696728 0.269683,-0.5441887 0.362804,-0.8235486 0.279335,-0.036887 0.628229,-0.218147 1.046681,-0.5437805 0.418438,-0.3255966 0.864988,-0.669806 1.339651,-1.0326294 0.474645,-0.3627843 0.949157,-0.6930835 1.423538,-0.9908984 0.47436,-0.2977739 0.897489,-0.4466711 1.269389,-0.446692 0.483727,2.09e-5 0.97215,0.097677 1.465269,0.2929686 0.493094,0.1953329 0.94887,0.4046975 1.367329,0.6280942 0.418431,0.2234368 0.790461,0.4328013 1.116092,0.6280942 0.325599,0.1953316 0.562784,0.2929877 0.711556,0.2929686 0.03746,1.91e-5 0.0887,-0.013891 0.153723,-0.041731 0.06499,-0.027801 0.116234,-0.05108 0.153723,-0.069835 0.130003,0.2975297 0.329857,0.6370551 0.599564,1.0185771 0.269673,0.3815584 0.562925,0.6279698 0.879758,0.7392349 -0.07496,0.093131 -0.177445,0.2187501 -0.307447,0.3768565 -0.130036,0.1581405 -0.195046,0.3024956 -0.195028,0.4330656 -1.8e-5,0.1669405 0.05108,0.4411725 0.153297,0.8226969 0.102181,0.381556 0.227658,0.7770069 0.376431,1.1863529 0.148737,0.409375 0.297634,0.795458 0.446692,1.158248 0.149021,0.362817 0.279182,0.609229 0.390483,0.739235 0.03745,0.148768 0.0887,0.292981 0.153723,0.43264 0.06499,0.139683 0.0975,0.283896 0.09751,0.43264 z"
           style=""
           id="path3092" />
      </g>
      <g
         transform="matrix(0.6459188,-0.76340612,0.76340612,0.6459188,0,0)"
         style="font-size:24.68317413px;font-style:normal;font-variant:normal;font-weight:normal;font-stretch:normal;line-height:125%;letter-spacing:0px;word-spacing:0px;fill:#000000;fill-opacity:1;stroke:none;font-family:Windlass;-inkscape-font-specification:Windlass"
         id="text3099">
        <path
           d="m 13.984848,45.72383 -0.494145,-0.419572 -0.789428,-1.629324 -2.493326,-17.302628 0.07457,-1.653429 0.344998,-0.691503 -2.0730012,0.271931 3.4801102,21.350704 1.950218,0.07382 z"
           style=""
           id="path3089" />
      </g>
    </g>
  </g>
</svg>
