<svg xmlns:svg="http://www.w3.org/2000/svg" xmlns="http://www.w3.org/2000/svg" version="1.1" x="0" y="0" width="100" height="100" viewBox="0 0 100 100" enable-background="new 0 0 100 100" xml:space="preserve"><path d="m92 24.3-8.6-8.6c-0.3-0.3-0.7-0.5-1.1-0.5-0.4 0-0.8 0.2-1.1 0.5L50 46.9 43.9 40.8c-0.6-0.6-1.7-0.6-2.3 0l-8.6 8.6c-0.3 0.3-0.5 0.7-0.5 1.1 0 0.4 0.2 0.8 0.5 1.1l15.8 15.8c0.3 0.3 0.7 0.5 1.1 0.5 0 0 0 0 0.1 0 0 0 0 0 0.1 0 0.4 0 0.8-0.2 1.1-0.5L92 26.6c0.6-0.6 0.6-1.7 0-2.3z" fill="#ccc"/><path d="M72 53.6V74.8H28V30.7h31.1l10-10H23.2v0c0 0 0 0-0.1 0-2.8 0-5 2.2-5.1 5H18v54h0c0.1 2.7 2.3 4.9 5 5v0h0.1l0 0c0 0 0 0 0 0h53.7l0 0c0 0 0 0 0 0H77v0c2.7-0.1 4.9-2.3 5-5H82V43.6l-10 10z" fill="#ccc"/></svg>