<svg xmlns:svg="http://www.w3.org/2000/svg" xmlns="http://www.w3.org/2000/svg" version="1.1" x="0" y="0" width="100" height="100" viewBox="0 0 100 100" enable-background="new 0 0 100 100" xml:space="preserve"><style>.s0{fill:#fff;}</style><g transform="matrix(0.55010953,0,0,0.55010953,22.494299,22.494298)" fill="#fff"><path d="M88.6 43.4 78.3 42.4c-0.7-2.5-1.6-4.8-2.9-7.1l6.6-8c0.7-0.9 0.6-2.1-0.1-2.9l-6.2-6.2c-0.4-0.4-1-0.6-1.5-0.6-0.5 0-1 0.2-1.4 0.5L64.6 24.7C62.4 23.4 60 22.4 57.6 21.7L56.6 11.4C56.5 10.3 55.5 9.5 54.4 9.5h-8.8c-1.1 0-2 0.8-2.1 1.9L42.4 21.7c-2.5 0.7-4.8 1.6-7.1 2.9l-8-6.6c-0.4-0.3-0.9-0.5-1.4-0.5-0.6 0-1.1 0.2-1.5 0.6l-6.2 6.2c-0.8 0.8-0.8 2-0.1 2.9l6.6 8c-1.3 2.2-2.3 4.6-2.9 7.1L11.4 43.4C10.3 43.5 9.5 44.5 9.5 45.6v8.8c0 1.1 0.8 2 1.9 2.1l10.3 1c0.7 2.5 1.6 4.8 2.9 7.1l-6.6 8c-0.7 0.9-0.6 2.1 0.1 2.9l6.2 6.2c0.4 0.4 1 0.6 1.5 0.6 0.5 0 1-0.2 1.4-0.5l8-6.6c2.2 1.3 4.6 2.3 7.1 2.9l1 10.3c0.1 1.1 1 1.9 2.1 1.9h8.8c1.1 0 2-0.8 2.1-1.9L57.6 78.3c2.5-0.7 4.8-1.6 7.1-2.9l8 6.6c0.4 0.3 0.9 0.5 1.4 0.5 0.6 0 1.1-0.2 1.5-0.6l6.2-6.2c0.8-0.8 0.8-2 0.1-2.9L75.3 64.6c1.3-2.2 2.3-4.6 2.9-7.1l10.3-1c1.1-0.1 1.9-1 1.9-2.1V45.6C90.5 44.5 89.7 43.6 88.6 43.4zM50 62C43.4 62 38 56.6 38 50 38 43.4 43.4 38 50 38 56.6 38 62 43.4 62 50 62 56.6 56.6 62 50 62z" fill="#fff"/></g></svg>